<svg xmlns="http://www.w3.org/2000/svg" viewBox="0 0 1184.222 840.46"><g fill="none" stroke="#302F71" stroke-linecap="round" stroke-linejoin="round" stroke-miterlimit="10"><path d="M303.736 140.107c-4.106-21.446-8.183-43.845-8.55-50.046-.703-11.89-1.112-24.73 22.51-32.28" stroke-width="1.417"/><path d="M357.646 417.07s-33.82 27.116-33.82 44.058m37.82-82.058s-44.27 38.78-44.27 68.39" stroke-width="1.392"/><path d="M443.642 420.167l6.254-12.348s-4.75-16-36.75-19.25l-5.99 8.09" stroke-width="2.835"/><path d="M445.146 400.903s2.75-12.084 10-19.334 4.75-21 3.25-28.75-3.292-11.06-13.626-15.14m-30.124 50.89v-18.59c0-7.42.62-14.757 6.25-18.42 10.458-6.808 7-20.25 12.5-20.25s9.5 5.75 5.75 15.25-5.25 11.5-5.25 14.5" stroke-width="2.835"/><path d="M438.89 333.975l23.506-21.918s3.5-1.74 5 3.26l-26.784 25.5m-12.087-1.747s-17.134 4.564-11.382 16.782m-1.18-5.532s-8.067 8.25-1.317 15" stroke-width="2.835"/><path d="M596.91 593.683c-18.51 2.228-37.78 3.404-57.573 3.404-22.09 0-43.53-1.465-63.986-4.222" stroke-width="2.904"/><path d="M594.634 588.36c-17.526 2.226-35.773 3.403-54.516 3.403-20.916 0-41.217-1.465-60.587-4.222" stroke-width="1.354"/></g><path d="M980.403 280.362s30.245-48.496 37.953-68.197c7.71-19.7 21.657-83.108 50.716-86.672 22.697-2.783 48.908 14.693 63.2 22.862 20.985 11.99 52.89 28.906 50.395 60.096 0 0-5 61.53-58.96 151.47l-42.1 66.228" fill="none" stroke="#302F71" stroke-width="2.835" stroke-linecap="round" stroke-linejoin="round" stroke-miterlimit="10"/><path d="M1055.806 131.745s5.377-4.59 20.794 2.264c15.417 6.85 55.212 32.19 62.312 50.74 6.64 17.342-2.322 34.72-8.993 57.17-19.92 67.022-74.31 121.84-95.72 159.097" fill="none" stroke="#302F71" stroke-width="1.392" stroke-linecap="round" stroke-linejoin="round" stroke-miterlimit="10"/><path d="M1060.564 130.17s5.354-4.64 20.71 2.288c15.353 6.926 54.986 32.543 62.057 51.3 6.62 17.53-2.31 35.096-8.95 57.79-19.83 67.75-74 123.16-95.322 160.824" fill="none" stroke="#302F71" stroke-width="1.396" stroke-linecap="round" stroke-linejoin="round" stroke-miterlimit="10"/><path d="M1113.21 137.448s49.312 29.19 57.606 46.024c7.28 14.775 5.354 32.12-1.07 52.248-6.425 20.128-10.208 42.87-45.325 104.637-28.51 50.15-46.94 77.027-46.94 77.027" fill="none" stroke="#302F71" stroke-width="1.392" stroke-linecap="round" stroke-linejoin="round" stroke-miterlimit="10"/><path d="M978.178 396.104c32.47 3.18 65.732 7.064 65.732 7.064s47.964 3.998 35.688 35.69c-11.32 29.223-31.118 71.374-31.118 71.374s-10.562 22.27-35.118 20.842c-10.88-.632-41.327-3.17-71.863-5.802" fill="none" stroke="#302F71" stroke-width="2.835" stroke-linecap="round" stroke-linejoin="round" stroke-miterlimit="10"/><path d="M1056.962 431.38c2.653 2.93 3.98 7.704 1.06 15.47-8.51 22.633-26.958 58.53-26.958 58.53s-6.855 11.99-24.554 11.99c-7.51 0-33.107-2.312-60.095-4.976" fill="none" stroke="#302F71" stroke-width="1.392" stroke-linecap="round" stroke-linejoin="round" stroke-miterlimit="10"/><path d="M971.91 419.032c34.093 3.237 74 7.69 74 7.69s7.042.226 11.052 4.657m-.4.46l-30.353 66.68s-5.43 13.42-24.56 11.704c-7.48-.67-28.85-2.91-52.1-5.394" fill="none" stroke="#302F71" stroke-width="2.835" stroke-linecap="round" stroke-linejoin="round" stroke-miterlimit="10"/><path d="M1023.482 424.282s-17.545 34.988-17.545 66.25c0 0-18.284-6.246-49.49-10.106" fill="none" stroke="#302F71" stroke-width="1.392" stroke-linecap="round" stroke-linejoin="round" stroke-miterlimit="10"/><path d="M1027.52 426.14s-17.94 36.782-17.94 69.182c0 0-20.116-7.175-54.14-11.086" fill="none" stroke="#302F71" stroke-width="1.412" stroke-linecap="round" stroke-linejoin="round" stroke-miterlimit="10"/><path fill="none" stroke="#302F71" stroke-width="1.353" stroke-linecap="round" stroke-linejoin="round" stroke-miterlimit="10" d="M1005.56 490.553l-28.368-44.02"/><path d="M636.943 44.018c21.395.68 39.64 1.634 39.64 1.634s23.812-.497 23.812 32.34c0 8.077-.145 17.46-.36 27.02m-153.655 25.95c1.28-23.475 3.26-53.413 5.633-67.955 0 0 .55-11.69 14.666-16.56m251.13 22.635c3.63-.806 7.86-1.28 12.79-1.28 13.45 0 31.14 2.546 47.51 5.595m-584.99 73.46c-1.856-10.62-4.326-23.02-5.45-30.198-3.413-21.81-8.517-41.42 5.58-49.85 11.82-7.08 36.952-15.65 67.375-18.53m217.005 7.125s.045 14.015 2.047 20.1c.412 1.254 1.87 4.697 4.152 7.663 3.51 4.557 7.724 8.75 12.18 9.386 7.35 1.05 11.75 2.296 16.93-2.888 5.185-5.186 11.16-12.47 12.34-18.905 1.18-6.43.92-14.832.92-14.832" fill="none" stroke="#302F71" stroke-width="2.835" stroke-linecap="round" stroke-linejoin="round" stroke-miterlimit="10"/><path d="M577.59 56.594c2.445-23.104 9.38-21.424 15.58-26.455 5.908-4.8 13.35-10.44 13.35-10.44s13.814 1.963 17.358 10.43c3.543 8.466 2.355 27.943 2.355 27.943m-34.143 129.03c-2.692-24.4-7.712-75.575-5.6-100.89" fill="none" stroke="#302F71" stroke-width="2.835" stroke-linecap="round" stroke-linejoin="round" stroke-miterlimit="10"/><path d="M620.667 80.627c2.4 22.655-2.73 118.265-2.73 118.265 7.09 3.938 26.257 0 26.257 0-2.102-7.352-1.312-25.467-1.312-55.397s-4.913-66.523-6.3-95.96c-1.062-22.52-.802-29.26-11.728-40.188-7.7-7.7-19.78-4.706-19.78-4.706s-18.852-7.29-29.53 13.73c-8.672 17.08-19.977 96.93-4.153 171.6M639.51 79.6s7.508 3.182 14.99 4.364c7.483 1.18 41.94 2.363 37.61 27.96l1.575 5.71s-9.452 15.36-16.935 17.92c-7.48 2.56-6.106 8.257-6.106 8.257m20.642-22.56s.518 1.367 1.4 3.77m-22.672 16.275s2.552 10.36 5.513 20.88" fill="none" stroke="#302F71" stroke-width="2.835" stroke-linecap="round" stroke-linejoin="round" stroke-miterlimit="10"/><path d="M562.918 111.91c-4.224 4.362-16.66 17.617-17.964 23.71-1.576 7.35 3.674 17.065 3.674 17.065v4.726s13.876 3.39 18.227 2.09" fill="none" stroke="#302F71" stroke-width="2.835" stroke-linecap="round" stroke-linejoin="round" stroke-miterlimit="10"/><path d="M551.187 157.99s1.155 14.386 1.155 26.988c0 1.737.01 3.597.03 5.525m34.553-62.233s26.365 21.593 32.628 36.393m44.067-47.683s4.11 10.764 2.977 15.49c-1.137 4.726 3.074 9.862 3.074 9.862" fill="none" stroke="#302F71" stroke-width="2.835" stroke-linecap="round" stroke-linejoin="round" stroke-miterlimit="10"/><path d="M692.5 108.577c-1.656 6.15-4.78 11.14-9.273 15.804-4.417 4.59-12.517 8.27-13.37 15.31M548.76 152.1c4.905 1.21 11.76 3.383 16.736 1.772" fill="none" stroke="#302F71" stroke-width="1.392" stroke-linecap="round" stroke-linejoin="round" stroke-miterlimit="10"/><path d="M604.483 2.445c1.727 5.315 3.12 11.515 2.953 17.13" fill="none" stroke="#302F71" stroke-width="1.38" stroke-linecap="round" stroke-linejoin="round" stroke-miterlimit="10"/><path d="M597.354 47.55c-.866-.686-1.688-1.305-2.598-1.84-.904-.523-1.855-.98-2.89-1.275-2.066-.612-4.394-.58-6.785-.197-.14.024-.28-.074-.3-.22-.02-.11.036-.215.12-.27 2.107-1.313 4.71-2.093 7.42-1.834 1.34.125 2.693.48 3.907 1.11 1.207.624 2.323 1.483 3.14 2.525.49.62.38 1.51-.24 2-.526.41-1.26.39-1.765-.01zm12.626-1.523c.982-.886 2.23-1.542 3.525-1.95 1.305-.413 2.697-.532 4.04-.425 2.71.208 5.146 1.423 6.994 3.076.1.1.11.267.02.378-.08.083-.19.108-.29.074-2.29-.786-4.58-1.217-6.72-.967-1.07.113-2.09.402-3.07.762-.988.37-1.9.84-2.875 1.367-.69.377-1.56.12-1.935-.573-.32-.6-.18-1.32.3-1.75z" fill="#302F71"/><path d="M609.31 55.413s2.066-1.97 5.314-1.97c2.946 0 6.942.81 8.325.96m-26.15.025s.2-2.66-3.84-3.348c-4.04-.69-7.98-.59-7.98-.59" fill="none" stroke="#302F71" stroke-width="2.835" stroke-linecap="round" stroke-linejoin="round" stroke-miterlimit="10"/><path d="M612.458 56.79s6.793 2.265 9.157-2.362" fill="none" stroke="#302F71" stroke-width="1.38" stroke-linecap="round" stroke-linejoin="round" stroke-miterlimit="10"/><path d="M593.827 54.803c-.275-.264-7.605.78-7.605-4.394" fill="none" stroke="#302F71" stroke-width="1.257" stroke-linecap="round" stroke-linejoin="round" stroke-miterlimit="10"/><path d="M600.35 49.21s3.066 4.866 0 13.24m-10.643 13.457c.922 1.08 4.59 1.64 5.454 1.82 3.25.676 5.48 1.79 5.48 1.79s3.42-.827 5.71-1.157c2.47-.355 5.36.352 6.01.012" fill="none" stroke="#302F71" stroke-width="1.38" stroke-linecap="round" stroke-linejoin="round" stroke-miterlimit="10"/><path d="M592.912 78.81s1.966 4.724 7.875 4.724c5.908 0 7.583-3.576 7.583-3.576m-16.14-3.05s3.858-2.18 8.62-.21c0 0 3.984-1.206 8.87 1.64" fill="none" stroke="#302F71" stroke-width="1.38" stroke-linecap="round" stroke-linejoin="round" stroke-miterlimit="10"/><path d="M578.318 509.467c-16.118 1.335-32.667 2.03-49.537 2.03-46.53 0-90.61-5.283-129.99-14.718m211.638 9.11c-2.277.32-4.567.623-6.867.92m52.406-9.37c-3.627.843-7.294 1.66-11 2.43" fill="none" stroke="#302F71" stroke-width="2.835" stroke-linecap="round" stroke-linejoin="round" stroke-miterlimit="10"/><path d="M581.37 497.03c-17.08 1.445-34.652 2.2-52.59 2.2-43.474 0-84.805-4.425-122.164-12.392m248.356-.875c-5.63 1.25-11.357 2.417-17.17 3.5" fill="none" stroke="#302F71" stroke-width="1.392" stroke-linecap="round" stroke-linejoin="round" stroke-miterlimit="10"/><path d="M606.7 212.405c11.743 1.506 23.205 3.344 34.34 5.492m-268.59-30.974s.753 9.485 0 14.506c-.753 5.02-2.672 8.56-1.343 12.55 1.33 3.98 3.14 12.99.61 19.93-2.53 6.94 1.31 15.06-5.632 18.162-6.94 3.102-15.358 1.33-18.606 7.236-2.37 4.297-7.16 11.33-9.59 14.844" fill="none" stroke="#302F71" stroke-width="2.835" stroke-linecap="round" stroke-linejoin="round" stroke-miterlimit="10"/><path d="M373.606 225.094s6.892-.846 5.866-4.024c-1.12-3.47-4.642-7.782-8.28-11.42m-118.854 38.407l16.11-9.222s39.5 11.666 58.5 25.666 25.936 32.24 33.33 36.45m-30.195 399.52s-21.76 10.797-49.59.676c-27.833-10.12-120.608-61.567-132.84-68.314-12.228-6.747-29.602-33.025-37.108-52.29-10.25-26.31-33.878-66.396-38.797-74.222-9.277-14.76-92.775-136.21-64.52-172.056 0 0 0-12.23 16.024-19.82 16.025-7.59 24.46-5.48 45.544 5.06 21.085 10.547 57.773 18.98 82.232 33.74 24.46 14.76 32.05 32.47 42.17 55.666 10.122 23.194 43.437 85.606 61.57 109.22 18.133 23.617 30.784 53.98 30.784 53.98" fill="none" stroke="#302F71" stroke-width="2.835" stroke-linecap="round" stroke-linejoin="round" stroke-miterlimit="10"/><path d="M8.772 333.554s31.21 26.707 64.384 35.423c33.172 8.715 54.538 14.057 61.285 29.24 6.75 15.18 32.62 69.72 45.27 89.963 12.65 20.242 80.44 119.726 80.44 119.726" fill="none" stroke="#302F71" stroke-width="1.417" stroke-linecap="round" stroke-linejoin="round" stroke-miterlimit="10"/><path d="M5.792 337.916s30.717 26.16 63.366 34.697c32.647 8.537 53.675 13.77 60.315 28.64 6.64 14.87 32.097 68.292 44.548 88.12 12.46 19.826 87.5 129.14 87.5 129.14" fill="none" stroke="#302F71" stroke-width="1.392" stroke-linecap="round" stroke-linejoin="round" stroke-miterlimit="10"/><path d="M353.75 530.285c-22.86 13.385-47.534 28.74-47.534 28.74s-32.404 20.863-38.64 28.6c-3.928 4.87-16.11 15.717 3.076 47.45 25.237 41.736 16.587 77.874 60.022 65.223 0 0 17.29-11.386 35.845-23.615 18.55-12.23 76.32-51.87 76.32-51.87s39.22-21.507 23.614-52.292c-15.603-30.78-23.194-40.48-23.194-40.48s-6.324-15.18-25.724-19.4c0 0-12.228-8.85-31.627 0-.71.33-1.478.69-2.29 1.09" fill="none" stroke="#302F71" stroke-width="2.835" stroke-linecap="round" stroke-linejoin="round" stroke-miterlimit="10"/><path d="M426.072 515.314s-6.707-4.31-20.4 4.08c-13.69 8.39-110.367 64.71-110.367 64.71S266.578 596.7 281.388 629.5c0 0 14.708 28.49 18.645 41.42 3.938 12.93 6.794 32.866 26.17 30.49" fill="none" stroke="#302F71" stroke-width="1.417" stroke-linecap="round" stroke-linejoin="round" stroke-miterlimit="10"/><path d="M316.1 671.762c-1.942-4.265-2.818-8.398-4.02-12.342-3.008-9.88-14.242-31.644-14.242-31.644-11.316-25.057 10.632-34.68 10.632-34.68s86.503-49.376 96.598-56.345" fill="none" stroke="#302F71" stroke-width="2.835" stroke-linecap="round" stroke-linejoin="round" stroke-miterlimit="10"/><path d="M406.582 535.832c8.855-6.115 15.587-3.115 15.587-3.115s5.78 3.537 13.09 17.313l15.18 24.458s10.08 15.5 1.12 24.46c-10.12 10.12-119.496 81.81-119.496 81.81-8.188 3.04-12.667-1.71-15.59-8.13" fill="none" stroke="#302F71" stroke-width="1.417" stroke-linecap="round" stroke-linejoin="round" stroke-miterlimit="10"/><path d="M405.067 536.75s7.208-4.88 16.416 9.343c7.888 12.183 19.115 30.083 19.115 30.083s10.12 11.808 0 19.398-111.33 76.188-111.33 76.188-9.895 7.126-13.17 0" fill="none" stroke="#302F71" stroke-width="2.835" stroke-linecap="round" stroke-linejoin="round" stroke-miterlimit="10"/><path d="M460.926 636.71c4.217 4.216-8.434 8.855-8.434 8.855l-84.17 29.55" fill="none" stroke="#302F71" stroke-width="1.417" stroke-miterlimit="10"/><path d="M409.128 648.14l34.086-10.376s13.495-5.27 17.712-1.054" fill="none" stroke="#302F71" stroke-width="2.835" stroke-miterlimit="10"/><path d="M346.392 699.636l111.372-38.468s7.38-3.584 7.38-10.542c0-8.677-6.684-17.873-3.358-12.44" fill="none" stroke="#302F71" stroke-width="2.835" stroke-miterlimit="10"/><path d="M146.756 692.796c-2.81 8.153 10.965 6.748 10.965 6.748l114.71-1.476" fill="none" stroke="#302F71" stroke-width="1.417" stroke-miterlimit="10"/><path d="M241 682.678c-32.53.98-76.533 2.246-76.533 2.246s-17.995-1.035-17.995 9.277" fill="none" stroke="#302F71" stroke-width="2.835" stroke-miterlimit="10"/><path d="M146.472 694.2v14.06s.28 6.185 7.312 6.185H269.57" fill="none" stroke="#302F71" stroke-width="2.835" stroke-miterlimit="10"/><path d="M195.602 798.773c.11 2.02.99 4.015 3.445 5.353 6.96 3.795 15.393.633 22.14-8.012s81.334-90.643 81.334-90.643" fill="none" stroke="#302F71" stroke-width="1.417" stroke-miterlimit="10"/><path d="M282.032 701.11l-84.25 90.154s-2.386 3.8-2.18 7.51" fill="none" stroke="#302F71" stroke-width="2.835" stroke-miterlimit="10"/><path d="M195.588 798.356v13.994s2.336 7.8 11.05 7.8 17.147-8.715 17.147-8.715l80.15-89.27s3.202.472 8.394-1.506l85.13 51.84s12.23 8.22 20.03 5.48c7.8-2.74 6.96-10.33 6.96-10.33l.02-11.38" fill="none" stroke="#302F71" stroke-width="2.835" stroke-miterlimit="10"/><path d="M397.626 772.71c-1.75 1.377-5.357 5.29-5.357 14.127 0 10.51 8.75 13.916 8.75 13.916h13.52s11.24-.186 11.24-14.333c0-9.146-4.34-10.803-4.34-10.803" fill="none" stroke="#302F71" stroke-width="2.835" stroke-miterlimit="10"/><path d="M197.327 813.786s-5.34 3.91-5.34 12.01 5.222 13.323 7.445 13.323h20.525" fill="none" stroke="#302F71" stroke-width="2.634" stroke-miterlimit="10"/><path d="M159.888 714.445s-1.676 15.82 5.727 15.443h14.316s11.26-1.79 11.26-15.443" fill="none" stroke="#302F71" stroke-width="2.697" stroke-miterlimit="10"/><path d="M460.32 685.898c-12.383 1.865-19.873-12.874-10.826-21.92" fill="none" stroke="#302F71" stroke-width="1.417" stroke-miterlimit="10"/><path d="M460.13 659.644s8.533.612 10.642 8.203c2.108 7.59-.607 16.155-11.993 17.842m1.24-.13c-6.75 1.654-22.21.987-20.7-17.44" fill="none" stroke="#302F71" stroke-width="2.835" stroke-miterlimit="10"/><path d="M568.774 714.22c11.444 1.723 18.71-10.734 12.605-19.774" fill="none" stroke="#302F71" stroke-width="1.417" stroke-miterlimit="10"/><path d="M568.967 687.964s-8.534.612-10.643 8.203c-2.108 7.59.606 16.155 11.993 17.842m-1.242-.13c6.75 1.654 22.208.987 20.697-17.44" fill="none" stroke="#302F71" stroke-width="2.835" stroke-miterlimit="10"/><path d="M570.376 671.5c-3.22 5.02 10.13 6.85 10.13 6.85l112.453 13.825" fill="none" stroke="#302F71" stroke-width="1.353" stroke-miterlimit="10"/><path d="M698.812 677.506l-110.907-8.76s-14.31-2.267-17.528 2.754" fill="none" stroke="#302F71" stroke-width="2.835" stroke-miterlimit="10"/><path d="M570.576 671.222s-3.098 6.625-1.347 14.774c1.46 6.803 9.46 8.723 9.46 8.723l112.74 13.1s.914 1.34 2.664 1.97m64.89-33.62l111.3-20.914s14.496-3.457 18.982 3.906c4.486 7.363-9.27 8.934-9.27 8.934l-112.37 23.066" fill="none" stroke="#302F71" stroke-width="2.835" stroke-miterlimit="10"/><path d="M890.166 661.918l2.69 12.298s1.047 6.103-5.822 7.604L774.07 706.525" fill="none" stroke="#302F71" stroke-width="2.835" stroke-miterlimit="10"/><path d="M864.13 772.757c.44 2.104.092 4.397-2.154 6.345-5.986 5.194-14.9 3.907-23.34-3.097-8.438-7.003-97-65.552-97-65.552" fill="none" stroke="#302F71" stroke-width="1.392" stroke-linecap="round" stroke-linejoin="round" stroke-miterlimit="10"/><path d="M762.054 698.217l98.41 68.05s2.93 2.984 3.665 6.49" fill="none" stroke="#302F71" stroke-width="2.835" stroke-miterlimit="10"/><path d="M864.122 772.726l2.99 13.67s-.615 8.12-9.128 9.982-18.614-4.85-18.614-4.85l-97.19-65.546" fill="none" stroke="#302F71" stroke-width="2.835" stroke-linecap="round" stroke-linejoin="round" stroke-miterlimit="10"/><path d="M632.242 780.252c.486 2.11 2.014 4.217 5.49 5.803 10.55 4.816 23.2-9.39 23.2-9.39l65.035-65.808" fill="none" stroke="#302F71" stroke-width="1.353" stroke-miterlimit="10"/><path d="M700.982 703.058l-66.404 68.578s-3.326 4.318-2.336 8.616" fill="none" stroke="#302F71" stroke-width="2.835" stroke-miterlimit="10"/><path d="M632.058 779.008l1.928 12.615s.798 7.595 9.005 8.606c8.21 1.01 18.4-9.64 18.4-9.64l65.25-64.378m154.29-43.064s4.727 11.735-2.88 16.44l-15.45 3.38s-13.24 1.37-15.45-12.43" fill="none" stroke="#302F71" stroke-width="2.835" stroke-miterlimit="10"/><path d="M1041.167 554.32c-.263 5.037-10.453 4.94-10.453 4.94l-103.35 8.216" fill="none" stroke="#302F71" stroke-width="1.392" stroke-linecap="round" stroke-linejoin="round" stroke-miterlimit="10"/><path d="M930.07 551.633l92.892-5.77s14.24-1.588 17.65 5.967c.427.944.592 1.77.555 2.49m-.027.237l1.114 12.052s.278 5.94-6.453 6.56l-110.72 10.24" fill="none" stroke="#302F71" stroke-width="2.725" stroke-miterlimit="10"/><path d="M1003.21 657.24c.172 2.06-.432 4.206-2.804 5.8-6.325 4.248-14.68 1.967-21.904-5.712-4.393-4.67-34.825-31.04-57.99-50.982" fill="none" stroke="#302F71" stroke-width="1.392" stroke-linecap="round" stroke-linejoin="round" stroke-miterlimit="10"/><path d="M925.746 583.988c4.017 3.58 8.034 7.16 12.05 10.742l18.92 16.866 20.565 18.334 15.78 14.062 7.178 6.396.25.224s2.443 3.194 2.73 6.627" fill="none" stroke="#302F71" stroke-width="2.725" stroke-miterlimit="10"/><path d="M1003.206 657.21l1.24 13.395s-1.547 7.675-9.888 8.446c-8.343.78-17.188-6.82-17.188-6.82l-63.017-54.872" fill="none" stroke="#302F71" stroke-width="2.725" stroke-miterlimit="10"/><path d="M987.706 699.326s8.332-10.862-1.43-21.758" fill="none" stroke="#302F71" stroke-width="1.392" stroke-linecap="round" stroke-linejoin="round" stroke-miterlimit="10"/><path d="M1004.08 671.8s5.875 3.52 6.647 11.865c.77 8.344-4.11 14.223-6.402 14.435l-16.618 1.6" fill="none" stroke="#302F71" stroke-width="2.725" stroke-miterlimit="10"/><path d="M988.153 699.636s-12.933 2.428-15.68-12.733c-2.537-14.015 4.094-15.377 4.094-15.377m53.245-97.796s3.123 11.755-4.69 15.344l-15.14 1.4s-12.712 0-13.274-13.683" fill="none" stroke="#302F71" stroke-width="2.725" stroke-miterlimit="10"/><path d="M316.1 668.248s29.032-53.257 123.224-94.1" fill="none" stroke="#302F71" stroke-width="1.417" stroke-linecap="round" stroke-linejoin="round" stroke-miterlimit="10"/><path d="M480.592 546.164c-.63-2.52-5.452-3.978-9.03-7.558" fill="none" stroke="#302F71" stroke-width="2.835" stroke-linecap="round" stroke-linejoin="round" stroke-miterlimit="10"/><path d="M461.818 563.52s20.882-8.922 18.773-17.355" fill="none" stroke="#302F71" stroke-width="1.417" stroke-linecap="round" stroke-linejoin="round" stroke-miterlimit="10"/><path d="M480.592 546.164l4.428 23.615s5.02 14.33-14.885 26.77M265.222 90.32c.56 1.204 1.06 2.468 1.36 3.657 1.94 7.626 4.783 11.375 4.783 15.124 0 3.75-.773 7.11.52 8.41 0 0 4.8 4.758 4.023 12.256-.775 7.497-2.185 12.564-2.185 16.733 0 4.17 1.648 16.093-4.07 18.227-5.282 1.97-25.132 5.037-34.776-7.203" fill="none" stroke="#302F71" stroke-width="2.835" stroke-linecap="round" stroke-linejoin="round" stroke-miterlimit="10"/><path d="M242.756 246.22c1.17-12.37 8.874-28.44 5.083-41.077-4.66-15.512-12.41-21.2-10.77-33.608 1.65-12.41-11.73-32.574-9.92-45.983.71-5.25 0-14.253 0-21.492 0-7.238 5.3-10.73 8.142-14.607 1.187-1.618 1.63-3.415 1.745-4.96" fill="none" stroke="#302F71" stroke-width="2.835" stroke-linecap="round" stroke-linejoin="round" stroke-miterlimit="10"/><path d="M222.142 249.064c-1.494-2.126-3.104-4.27-4.808-6.435-12.41-15.77-10.342-25.08-12.668-42.66-2.327-17.58-23.784-22.49-25.594-42.4-1.81-19.91 4.137-29.99 4.137-51.97s12.92-33.092 25.59-38.52c12.67-5.43 31.8 0 31.8 0s17.29-2.414 27.14 13.57c7.823 12.7 5.17 27.534 10.34 39.943 5.17 12.41 5.427 24.56 2.583 33.866-.013.04-.474 4.832-.485 4.872" fill="none" stroke="#302F71" stroke-width="2.835" stroke-linecap="round" stroke-linejoin="round" stroke-miterlimit="10"/><path d="M255.435 166.53s-3.52 18.477-6.557 25.687c-3.037 7.21-1.92 10.202-1.92 10.202" fill="none" stroke="#302F71" stroke-width="2.835" stroke-linecap="round" stroke-linejoin="round" stroke-miterlimit="10"/><path d="M186.96 174.72s-13.353 10.836-20.21 15.348c-6.856 4.513-15.03 12.21-16.352 18.58-1.32 6.37-5.01 26.277-8.967 34.77-3.95 8.495-7.38 23.624-7.38 30.79 0 7.168-6.06 27.34-6.06 35.302 0 7.963-5.54 29.063-5.54 29.063" fill="none" stroke="#302F71" stroke-width="2.901" stroke-linecap="round" stroke-linejoin="round" stroke-miterlimit="10"/><path d="M154.7 239.947c1.635 3.646 3.863 7.13 6.88 10.148" fill="none" stroke="#302F71" stroke-width="1.392" stroke-linecap="round" stroke-linejoin="round" stroke-miterlimit="10"/><path d="M150.608 207.824s-3.12 17.41 3.486 32.155" fill="none" stroke="#302F71" stroke-width="2.835" stroke-linecap="round" stroke-linejoin="round" stroke-miterlimit="10"/><path d="M169.077 202.316s30.943 12.134 35.62 40.364" fill="none" stroke="#302F71" stroke-width="1.246" stroke-linecap="round" stroke-linejoin="round" stroke-miterlimit="10"/><path d="M187.435 271.496c-11.94 1.518-23.164-.43-23.164-.43s-.58-6.204-4.26-12.408-5.54-17.784-5.54-17.784m51.76-3.882s-1.47 10.613 0 14.49c.41 1.08.8 2.414 1.14 3.777" fill="none" stroke="#302F71" stroke-width="2.835" stroke-linecap="round" stroke-linejoin="round" stroke-miterlimit="10"/><path d="M159.466 257.678s21.958 5.03 47.7-3.2" fill="none" stroke="#302F71" stroke-width="1.392" stroke-linecap="round" stroke-linejoin="round" stroke-miterlimit="10"/><path d="M167.965 271.552s2.588 6.535 6.822 15.073" fill="none" stroke="#302F71" stroke-width="2.835" stroke-linecap="round" stroke-linejoin="round" stroke-miterlimit="10"/><path d="M205.875 250.126s-7.84-8.402-27.145-10.212m26.9 8.01s-5.92-12.533-22.313-19.384" fill="none" stroke="#302F71" stroke-width="1.392" stroke-linecap="round" stroke-linejoin="round" stroke-miterlimit="10"/><path d="M237.52 85.013s8.723 8.167 27.5 5.642" fill="none" stroke="#302F71" stroke-width="2.835" stroke-linecap="round" stroke-linejoin="round" stroke-miterlimit="10"/><path d="M236.93 83.826s-3.025-5.49 0-10.144c3.025-4.653 3.98-5.544 2.672-6.853" fill="none" stroke="#302F71" stroke-width="1.392" stroke-linecap="round" stroke-linejoin="round" stroke-miterlimit="10"/><path d="M236.746 121.775c1.13-1.325 2.404-2.505 3.794-3.565 1.385-1.062 2.875-2.023 4.492-2.78 1.61-.757 3.332-1.387 5.154-1.69 1.815-.303 3.736-.266 5.537.243.756.213 1.194 1 .982 1.754-.193.683-.854 1.107-1.537 1.024h-.022c-1.525-.18-3.045-.24-4.596-.12-1.55.12-3.126.42-4.664.92-1.534.51-3.055 1.15-4.523 1.93-1.458.79-2.907 1.66-4.25 2.66l-.008.01c-.117.09-.282.07-.37-.05-.075-.1-.068-.24.01-.33zm34.47-14.538c-.486.837-1.053 1.465-1.633 2.047-.578.582-1.207 1.058-1.81 1.548-1.215.986-2.37 1.88-3.4 2.912l-.075.076c-.318.32-.835.32-1.153 0-.18-.18-.26-.427-.235-.663.11-1.028.602-1.915 1.145-2.672.562-.754 1.227-1.384 1.934-1.93.71-.538 1.45-1.018 2.28-1.33.83-.313 1.71-.53 2.703-.458.17.012.295.158.283.327-.003.047-.018.092-.04.13l-.008.013z" fill="#302F71"/><path d="M263.642 113.45s-2.83 3.25 0 6.67c3.414 4.125 8.92 7.808 10.934 10.95 1.106 1.724.84 3.607-.657 4.56-1.84 1.17-2.84 1.76-3.32 2.616" fill="none" stroke="#302F71" stroke-width="1.392" stroke-linecap="round" stroke-linejoin="round" stroke-miterlimit="10"/><path d="M239.554 125.804c.708-.383 1.363-.596 2.088-.757.713-.15 1.473-.204 2.173-.162 1.31.058 2.52.07 3.697-.112 1.17-.18 2.274-.538 3.227-1.115.95-.57 1.75-1.352 2.4-2.272.45-.642 1.33-.798 1.97-.35.64.45.8 1.335.35 1.977l-.06.078-.01.01c-.93 1.15-2.11 2.14-3.44 2.8-1.33.68-2.78 1.02-4.195 1.13-1.407.12-2.81-.01-4.087-.16-.595-.08-1.145-.08-1.713-.003-.55.073-1.152.237-1.605.44l-.055.026c-.427.19-.928 0-1.12-.427-.18-.41-.014-.884.372-1.093z" fill="#302F71"/><path d="M263.694 119.118s1.31-.607 2.733-.607c1.42 0 4.33-.98 4.717-3.45" fill="none" stroke="#302F71" stroke-width="2.835" stroke-linecap="round" stroke-linejoin="round" stroke-miterlimit="10"/><path d="M254.27 149.436s2.617.952 5.397-.135c2.8-1.09 6.107-.29 10.082-1.55 0 0 .81-.74 1.77-1.26.97-.51.84-.74.84-.74" fill="none" stroke="#302F71" stroke-width="1.392" stroke-linecap="round" stroke-linejoin="round" stroke-miterlimit="10"/><path d="M257.896 149.41s5.3 6.084 13.082 2.412c1.192-.562 3.036-1.874 1.033-5.17m-15.12 2.994c2.42-1.186 4.78-2.494 7.32-3.41 2.08-.75 4.32-.448 6.3-1.715 1.052-.67 2.315-.76 2.436.91" fill="none" stroke="#302F71" stroke-width="1.392" stroke-linecap="round" stroke-linejoin="round" stroke-miterlimit="10"/><path d="M252.323 180.777s2.12 32.38 12.973 47.763c2.44 3.457 4.227 7.19 5.483 10.95M422.2 31.263s-6.194-.367-8.522 9.586c-1.522 6.51-7.43 16.19-17.386 19.74" fill="none" stroke="#302F71" stroke-width="2.835" stroke-linecap="round" stroke-linejoin="round" stroke-miterlimit="10"/><path d="M422.205 30.763c1.317.9 4.04 3.778 5.813 4.543 6.592 2.844 11.26 5.802 12.553 11.23 0 0 5.56-4.266 0-13.313-5.56-9.048-11.24-21.07-27.92-23.268-16.67-2.197-20.94 2.068-20.94 2.068s-12.83-2.733-22.27 11.615-10.68 31.08-5.25 41.422c5.43 10.34 16.54 18.575 14.86 24.133" fill="none" stroke="#302F71" stroke-width="2.835" stroke-linecap="round" stroke-linejoin="round" stroke-miterlimit="10"/><path d="M414.854 21.513c2.048 3.86 5.01 8.58 7.352 9.25" fill="none" stroke="#302F71" stroke-width="1.392" stroke-linecap="round" stroke-linejoin="round" stroke-miterlimit="10"/><path d="M396.387 60.557s-5.194 7.05-2.092 13.9c0 0-3.748-.905-6.463-5.817-2.714-4.912-13.146-2.176-13.146-2.176M389.253 79.5s-.098 10.332 8.434 15.245c8.53 4.913 22.99 12.71 32.833 11.602 10.534-1.186 12.558-4.974 11.43-10.905-1.09-5.714 2.528-21.37 1.35-27.316-1.18-5.946-3.503-9.567-3.503-9.567s-1.127-2.3.904-6.73c1.43-3.1-.45-6.416-.45-6.416" fill="none" stroke="#302F71" stroke-width="2.835" stroke-linecap="round" stroke-linejoin="round" stroke-miterlimit="10"/><path d="M374.26 67.508s3.488 9.923 6.85 11.99c3.36 2.07 5.235 2.91 8.143 0" fill="none" stroke="#302F71" stroke-width="1.392" stroke-linecap="round" stroke-linejoin="round" stroke-miterlimit="10"/><path d="M410.273 60.602c.993-.97 2.15-1.82 3.386-2.504.6-.347 1.27-.67 1.91-.933.703-.29 1.38-.492 2.075-.678 1.387-.368 2.772-.572 4.137-.717 1.365-.143 2.72-.192 4.073-.168.788.013 1.414.66 1.4 1.447-.01.69-.515 1.26-1.17 1.37h-.013c-2.686.48-5.386.492-7.933.74-.63.052-1.278.154-1.87.25-.654.13-1.255.262-1.904.43-1.27.33-2.53.72-3.82 1.2-.14.05-.293-.02-.345-.16-.037-.102-.01-.213.066-.285l.005-.003zm30.874-9.826c-.69.636-1.365 1.07-2.02 1.47-.65.4-1.306.696-1.91 1.04-.606.338-1.16.692-1.667 1.076-.52.38-.948.805-1.423 1.36l-.07.084c-.302.352-.83.393-1.182.092-.19-.16-.288-.39-.293-.62-.018-1 .415-1.995 1.02-2.777.616-.78 1.397-1.37 2.212-1.8.82-.43 1.674-.73 2.564-.82.888-.08 1.79-.03 2.7.37.157.07.23.26.16.418-.02.04-.044.076-.074.104l-.017.013z" fill="#302F71"/><path d="M433.583 54.794s-3.23 3.143.182 7.532c4.176 5.37 9.133 12.85 8.672 15.503-.46 2.65-3.233 1.48-4.095 2.54" fill="none" stroke="#302F71" stroke-width="1.38" stroke-linecap="round" stroke-linejoin="round" stroke-miterlimit="10"/><path d="M263.642 139.994s-3.587-.47-3.53-3.564m176.324-56.976c-1.676-.028-3.315.782-4.618 1.77-1.203.914-2.954 1.297-4.232.253-1.528-1.25-1.597-2.945-.4-4.46M423.5 91.395s1.27.868 4.5-.1c.444-.135 3.256-1.242 4.523-1.494 1.66-.33 4.364-.31 4.364-.31s1.064-1.142 2.083-1.73c1.018-.58 2.416-1.35 2.416-1.35" fill="none" stroke="#302F71" stroke-width="1.392" stroke-linecap="round" stroke-linejoin="round" stroke-miterlimit="10"/><path d="M426.87 90.965s.074.124.228.328c.885 1.167 4.357 4.94 11 2.815 3.635-1.163 2.338-6.544 2.338-6.544" fill="none" stroke="#302F71" stroke-width="1.392" stroke-linecap="round" stroke-linejoin="round" stroke-miterlimit="10"/><path d="M426.384 91.155s2.902-3.874 9.882-3.874c0 0 1.92-1.92 4.296-.83" fill="none" stroke="#302F71" stroke-width="1.392" stroke-linecap="round" stroke-linejoin="round" stroke-miterlimit="10"/><path d="M411.722 66.186c5.063-1.297 9.866-7.464 13.658-2.787m14.674-7.07c-3.685-2.29-6.462 3.51-6.462 3.51l.032-.01" fill="none" stroke="#302F71" stroke-width="2.615" stroke-linecap="round" stroke-linejoin="round" stroke-miterlimit="10"/><path d="M404.246 137.54l16.288-20.59s14.536-1.903 19.32 4.948" fill="none" stroke="#302F71" stroke-width="1.392" stroke-linecap="round" stroke-linejoin="round" stroke-miterlimit="10"/><path d="M383.1 86.796s-2.123 7.31.464 17.65c2.587 10.342 20.683 33.093 20.683 33.093m16.158-20.95c-39.136-6-37.122-29.803-37.122-29.803m37.122 29.285s4.766-4.773 6.188-9.6m-43.88-19.214c-3.905 3.2-10.69 8.26-16.21 9.812-8.272 2.325-35.42 19.645-42.4 37.484 0 0-1.184 1.943-1.666 5.385m121.427-67.38c3.834-.52 25.604-3.345 30.315-1.343 5.17 2.196 10.47 13.96 19 22.49 8.53 8.53 15.64 13.054 20.94 18.354 5.3 5.3 2.19 7.626 8.79 14.22 6.59 6.593 8.27 6.463 10.6 12.926 2.32 6.46 4.97 5.524 6.82 8.724 1.84 3.2 4.94 1.358 4.94 9.89V190m-56.07-61.34c.564 3.307 1.16 6.32 1.774 8.867 1.665 6.91 8.883 40.326 11.97 54.657" fill="none" stroke="#302F71" stroke-width="2.835" stroke-linecap="round" stroke-linejoin="round" stroke-miterlimit="10"/><path d="M480.125 76.29s4.847 9.553 5.816 23.534c.69 9.958 1.88 20.848 3.27 29.785" fill="none" stroke="#302F71" stroke-width="1.454" stroke-linecap="round" stroke-linejoin="round" stroke-miterlimit="10"/><path d="M496.404 161.95s9.314 2.863 9.314 6.547c0 3.684 2.035 4.168 4.07 6.205 2.037 2.036 1.553 3.878 1.553 7.756 0 2.174.02 6.726.03 10.306" fill="none" stroke="#302F71" stroke-width="2.835" stroke-linecap="round" stroke-linejoin="round" stroke-miterlimit="10"/><path fill="none" stroke="#302F71" stroke-width="1.392" stroke-linecap="round" stroke-linejoin="round" stroke-miterlimit="10" d="M441.475 89.802l15.64 17.748-6.203 7.884"/><path d="M437.333 110.484s12.978 7.06 25.6 5.597l14.103 78.52" fill="none" stroke="#302F71" stroke-width="1.392" stroke-linecap="round" stroke-linejoin="round" stroke-miterlimit="10"/><path d="M434.27 105.74l34.793 89.322" fill="none" stroke="#302F71" stroke-width="2.835" stroke-linecap="round" stroke-linejoin="round" stroke-miterlimit="10"/><path fill="none" stroke="#302F71" stroke-width="1.392" stroke-linecap="round" stroke-linejoin="round" stroke-miterlimit="10" d="M414.17 125.552l7.398 11.987 4.816 45.11m3.586-65.11v18.18c-3.49 3.49-8.4 1.81-8.4 1.81m29.06 58.74l-20.66-60.55"/><path d="M404.246 137.54s26.373 46.403 32.576 80.012" fill="none" stroke="#302F71" stroke-width="2.835" stroke-linecap="round" stroke-linejoin="round" stroke-miterlimit="10"/><path d="M373.727 93.72s-5.04 17.562 5.832 44.224l12.79 1.363" fill="none" stroke="#302F71" stroke-width="1.392" stroke-linecap="round" stroke-linejoin="round" stroke-miterlimit="10"/><path d="M397.57 128.674s-4.308 12.32-13.488 21.5c0 0 35.22 32.478 52.218 68.447m-98.882-85.08s20.165 6.938 32.963 28.417" fill="none" stroke="#302F71" stroke-width="1.392" stroke-linecap="round" stroke-linejoin="round" stroke-miterlimit="10"/><path d="M372 206.826c2.72 1.046 6.66 1.992 9.364 3.36 2.582 1.31 4.737 2.954 6.627 5.168 1.5 1.754 2.42 3.117 5.07 2.892 4.11-.347 7.1-4.04 11.81-3.74 3.63.23 7.32 1.17 10.94 1.6 10.47 1.247 23.57 2.774 34.01 4.29m-79.502 28.867c1.916.006 3.45.497 5.368.417 1.98-.082 4.055-.034 5.826.952 3.227 1.797 6.804 3.32 10.596 2.563 5.23-1.042 10.5-1.04 15.77-.704 9.82.63 19.745.51 29.585.85 5.788.2 11.63.646 17.42.58" fill="none" stroke="#302F71" stroke-width="2.835" stroke-linecap="round" stroke-linejoin="round" stroke-miterlimit="10"/><path d="M606.613 265.435c.017 2.81-1.82 5.184-4.094 5.32l-140.17 8.223c-2.24.13-4.366-1.994-4.74-4.758l-9.647-71.348c-.427-3.132 1.176-5.807 3.576-5.957l150.166-9.492c2.44-.152 4.44 2.316 4.46 5.5l.435 72.512z" fill="none" stroke="#302F71" stroke-width="2.835" stroke-linecap="round" stroke-linejoin="round" stroke-miterlimit="10"/><path d="M602.14 261.134c.037 2.425-1.68 4.472-3.834 4.587l-131.866 6.95c-2.097.11-4.066-1.715-4.396-4.09l-8.418-60.76c-.372-2.642 1.138-4.903 3.358-5.034l139.95-8.333c2.284-.134 4.178 1.955 4.224 4.658l.982 62.036z" fill="none" stroke="#302F71" stroke-width="1.392" stroke-linecap="round" stroke-linejoin="round" stroke-miterlimit="10"/><path d="M607.325 279.883c.11 1.455-.818 2.69-2.07 2.754l-143.227 8.416c-1.17.06-2.186-1.032-2.27-2.44l-.39-6.538c-.082-1.405.797-2.596 1.966-2.66l143.03-8.795c1.248-.07 2.35 1.052 2.456 2.504l.505 6.76z" fill="none" stroke="#302F71" stroke-width="2.835" stroke-linecap="round" stroke-linejoin="round" stroke-miterlimit="10"/><path d="M421.845 61.625c-.62.163-1.268.252-1.934.303l-.12.012c-.1.007-.19.022-.292.027-.123.032-.247.054-.37.082-.81.43-1.714.74-2.713.9-.005.15-.02.296 0 .45.235 1.71 1.72 2.92 3.31 2.703 1.59-.22 2.69-1.786 2.456-3.498-.05-.363-.174-.687-.33-.99zm16.375-6.415c-.34.163-.695.252-1.06.303l-.07.01c-.056.008-.106.024-.163.028-.068.04-.135.06-.204.09-.442.43-.94.744-1.49.91 0 .15-.01.297.003.45.13 1.71.94 2.92 1.817 2.704.874-.22 1.48-1.785 1.35-3.496-.03-.36-.098-.684-.183-.99z" fill="#302F71"/><path d="M744.01 51.515s-3.773 5.346-4.56 11.635c0 0-.892 5.45-1.94 7.44-1.047 1.993-2.62 5.662-1.887 8.073.735 2.41-.103 6.71-.732 8.805-.62 2.096-2.3 7.65-.62 16.247 1.68 8.595 4.515 19.286 4.515 22.22 0 2.937 2.194 8.702 9.95 9.54 7.758.838 37.475 3.25 46.12-23.95" fill="none" stroke="#302F71" stroke-width="2.835" stroke-linecap="round" stroke-linejoin="round" stroke-miterlimit="10"/><path d="M809.223 90.017c0-3.95 8.686-20.472 10.887-26.447 2.202-5.974.734-10.9-.42-15.303-1.152-4.402-3.773-7.547-3.773-7.547 0-.838.84-1.258.84-1.258-1.938-1.94-5.66-1.677-5.66-1.677-.734-1.677-1.376-3.983-1.376-3.983-3.83-3.833-10.26-2.936-10.26-2.936 0-.523 1.88-1.886 1.88-1.886-2.31-.524-5.91.42-5.91.42.79 0 2.258-1.992 2.258-1.992-2.095 0-10.59-1.992-16.876-3.46-6.29-1.466-10.482 1.678-10.482 1.678.684-.682-.417-1.677-.417-1.677-.63 1.88-7.023 2.72-12.37 5.45s-9.85 5.87-11.005 8.38c-1.153 2.512-2.096 6.81-2.096 6.81 0-1.154-1.153-2.097-1.153-2.097s.21.733-.943 4.926 3.25 7.34 5.765 8.49c2.513 1.153 4.085 6.813 4.085 6.813s2.517 1.52 7.234-.524c4.717-2.044 10.377-3.144 16.98-.157 6.604 2.986 12.5 1.86 16.56-2.2 0 0 6.68-4.238 14.16-3.064" fill="none" stroke="#302F71" stroke-width="2.835" stroke-linecap="round" stroke-linejoin="round" stroke-miterlimit="10"/><path d="M785.82 63.558s1.27 6.51-1.088 8.87c-2.358 2.357-4.56 10.06-1.415 13.206 3.145 3.145 5.347 5.975 4.087 10.062-1.257 4.088-.628 8.647-.628 8.647l3.773-2.044s2.93-6.77 5.97-9.8c2.66-2.66 8.49-6.92 11.95-3.46 3.46 3.45-1.16 8.38-3.36 12.89-2.2 4.5-8.124 12.31-12.16 8.28" fill="none" stroke="#302F71" stroke-width="2.835" stroke-linecap="round" stroke-linejoin="round" stroke-miterlimit="10"/><path d="M796.157 97.48s1.415-.054 2.83-2.098c.88-1.272 1.81-2.49 3.166-3.29 1.174-.69 2.455-1.28 3.798-.58 2.23 1.158-.49 4.705-1.51 5.71" fill="none" stroke="#302F71" stroke-width="1.392" stroke-linecap="round" stroke-linejoin="round" stroke-miterlimit="10"/><path d="M799.23 95.04s3.32.08 3.32 2.02c0 1.938-1.048 3.668-3.668 4.82-2.62 1.154-4.035 2.307-4.035 2.674M729.54 82.612s.263-3.223 1.73-3.223c1.73 0 9.987 5.06 9.987 5.06s3.57 1.43 2.36 5.56c-1.473 5.02-4.303 4.99-6.885 2.534-3.04-2.89-7.585-6.01-7.19-9.94zm21.073 11.075s-.472-4.472 2.988-3.51c3.46.96 14.59 4.99 14.59 6.483 0 1.494.2 6.034-5.39 6.584-5.58.55-12.18-5.592-12.18-9.557zm-6.746-4.437s6.02-1.666 6.725 2.62" fill="none" stroke="#302F71" stroke-width="1.392" stroke-linecap="round" stroke-linejoin="round" stroke-miterlimit="10"/><path fill="none" stroke="#302F71" stroke-width="1.392" stroke-linecap="round" stroke-linejoin="round" stroke-miterlimit="10" d="M767.632 99.798l2.374.798 27.92-9.137m-68.41-10.67l-1.083-.576 8.82-9.127"/><path d="M752.54 87.905c1.577-.49 3.134-.65 4.792-.518.81.077 1.683.27 2.44.587.732.3 1.415.613 2.088.957 1.344.68 2.654 1.39 3.933 2.17 1.285.76 2.55 1.55 3.778 2.42.09.064.12.19.05.278-.05.074-.14.1-.22.075-1.42-.466-2.82-.98-4.205-1.5-1.397-.503-2.77-1.05-4.143-1.56-.686-.246-1.37-.51-2.032-.72-.628-.205-1.22-.31-1.887-.364-1.3-.115-2.73.03-4.03.237l-.07.01c-.58.093-1.123-.302-1.216-.88-.083-.53.238-1.028.734-1.182zm-8.542-2.57c-.005.07-.04-.06-.074-.11-.034-.072-.075-.15-.124-.23-.094-.162-.21-.327-.34-.49-.262-.33-.58-.654-.932-.96-.71-.628-1.512-1.16-2.425-1.716-.953-.6-1.858-1.25-2.69-2.01-.824-.76-1.59-1.59-2.134-2.62-.06-.098-.02-.218.08-.27.07-.04.16-.027.22.02l.02.02c.8.655 1.73 1.188 2.64 1.687.91.49 1.86.94 2.8 1.35 1 .41 2.07.974 3 1.74.463.39.906.835 1.282 1.372.19.267.355.56.497.88.14.354.25.61.29 1.187.04.588-.405 1.09-.99 1.13-.586.04-1.09-.404-1.13-.99z" fill="#302F71"/><path d="M754.39 93.687s1.74.266 2.83 1.354c1.013 1.02 2.232 3.04 6.986 2.54m-26.952-12.31s2.355 4.91 7.805 4.91" fill="none" stroke="#302F71" stroke-width="2.835" stroke-linecap="round" stroke-linejoin="round" stroke-miterlimit="10"/><path d="M746.002 86.52s.973 4.06-2.135 7.167c-3.107 3.108-6.973 7.16-6.973 9.924 0 3.28 2.142 4.3 4.786 4.3 0 0 2.954-.19 4.832.37 2.474.74 5.36 1.1 5.36-3.72m-15.28 6.78c0 1.33 2.774 2.41 3.94 3.58 0 0 3.88.79 5.16 1.678 2.056 1.43 7.362 2.884 10.742 1.758" fill="none" stroke="#302F71" stroke-width="1.392" stroke-linecap="round" stroke-linejoin="round" stroke-miterlimit="10"/><path d="M738.9 113.777s-1.82 4.806 2.282 7.014c4.1 2.21 8.862 1.73 11.603-1.91" fill="none" stroke="#302F71" stroke-width="1.35" stroke-linecap="round" stroke-linejoin="round" stroke-miterlimit="10"/><path d="M733.6 91.87s-28.1 8.806-30.708 9.697c-2.607.89-3.208 1.12-4.613 6.875-1.41 5.755.9 11.94-2.21 15.19s-7.02 7.127-8.23 10.69c-1.208 3.563-.807 5.242-3.61 8.176-2.097 2.186-2.95 5.153-4.3 7.786-.64 1.236-1.05 2.506-1.77 3.707-.78 1.29-1.45 2.35-1.93 3.75-.52 1.48-1.46 3.08-2.46 4.28" fill="none" stroke="#302F71" stroke-width="2.773" stroke-linecap="round" stroke-linejoin="round" stroke-miterlimit="10"/><path d="M840.575 247.278c-5.052 4.88-10.148 9.662-15.234 14.593-8.53 8.28-19.32 13.25-29.18 19.69-4.2 2.75-8.85 6.56-13.72 7.96m79.17-113.935c-.12 1.735-.2 3.09-.2 3.816 0 3.773-4.19 16.456-4.19 25.26 0 .356-.01.734-.03 1.133m-45.66-123s2.68 4.358 9.72 7.61c5.47 2.528 21.896 14.85 30.215 22.58m-34.29 56.768s-4.193 7.55-4.193 14.676c0 7.127-2.3 17.818-2.3 21.173 0 3.35-.952 7.75-.952 12.16v8.17c-8.423 6.184-16.173 12.525-23.875 19.57-3.572 3.264-7.393 6.35-11.673 8.64-1.82.975-3.6 1.22-5.408 1.928-2.05.805-4.297 2.617-6.078 3.94" fill="none" stroke="#302F71" stroke-width="2.835" stroke-linecap="round" stroke-linejoin="round" stroke-miterlimit="10"/><path d="M807.56 97.652c-.568.96-2.4 49.668-5.514 62.875-3.11 13.208-11.916 43.186-11.916 46.12 0 2.936-1.258 36.888-1.258 36.888" fill="none" stroke="#302F71" stroke-width="1.392" stroke-linecap="round" stroke-linejoin="round" stroke-miterlimit="10"/><path d="M753.68 135.858s1.877 59.382-.11 89.348" fill="none" stroke="#302F71" stroke-width="2.835" stroke-linecap="round" stroke-linejoin="round" stroke-miterlimit="10"/><path d="M735.884 111.337l-5.08 16.697 5.655 3.774-8.81 4.05s1.72 16.508 3.596 32.706" fill="none" stroke="#302F71" stroke-width="1.392" stroke-linecap="round" stroke-linejoin="round" stroke-miterlimit="10"/><path d="M800.598 108.442s-10.257 29.235-11.725 33.218c-1.47 3.983-9.224 24.737-8.176 39.83 1.047 15.095 3.562 64.57 3.562 64.57" fill="none" stroke="#302F71" stroke-width="2.835" stroke-linecap="round" stroke-linejoin="round" stroke-miterlimit="10"/><path d="M761.148 135.644l5.083 15.03s-8.17 31.236-8.17 42.137c0 10.91-.992 50.95-.992 50.95m19.123-110.484s9.768 7.28 11.02 13.078" fill="none" stroke="#302F71" stroke-width="1.392" stroke-linecap="round" stroke-linejoin="round" stroke-miterlimit="10"/><path d="M779.137 135.644l-5.567 15.03c-4.82 2.935-7.338 0-7.338 0m7.338 0s4.4 11.11 4.4 21.384c0 10.272 3.322 75.507 3.322 75.507m50.348-75.927s12.074-3.014 21.923-10.203m-1.653-37.22c-5.785 3.213-14.216 10.04-21.11 24.26-11.74 24.212-13.626 22.325-13.626 22.325m34.536-22.163c-8.356 7.394-24.813 21.042-36.157 24.58m-8.43-70.772l38.93 25.783" fill="none" stroke="#302F71" stroke-width="1.392" stroke-linecap="round" stroke-linejoin="round" stroke-miterlimit="10"/><path d="M701.233 103.122s2.633 5.616 2.633 12.825c0 5.134 2.576 27.232 5.214 41.79" fill="none" stroke="#302F71" stroke-width="1.315" stroke-linecap="round" stroke-linejoin="round" stroke-miterlimit="10"/><path d="M809.72 225.935s9.13-3.983 18.565 0c9.433 3.983 15.723 12.997 15.723 12.997m-28.455-28.302s9.168 8.387 15.248 11.322c4.87 2.35 13.66 7.677 14.91 15.082M798.94 57.28c1.868-1.17 3.395-3.06 4.09-5.162 1.23-3.724-.964-7.103-3.04-10.037m-1.677 6.29c.99 4.62-2.534 8.42-5.24 11.64m21.59-10.69c-1 4.537-4.676 8.11-9.54 7.65m-45.28-10.48c2.68 2.004 4.234 5.28 3.913 8.59-.323 3.31-2.183 5.365-4.858 7.135m29.978 15.41c-2.7 3.93-4.727 8.4-1.99 12.79" fill="none" stroke="#302F71" stroke-width="1.392" stroke-linecap="round" stroke-linejoin="round" stroke-miterlimit="10"/><path d="M145.49 350.108s23.29-92.105 84.792-102.863c0 0 28-1.883 46.666 7.59 37.118 18.84 94.018 50.296 104.208 60.466m-99.08-72.11c.097-.88.526-6.05-1.984-10.89-2.757-5.315-18.316-36.676-4.84-64.496 18.987-39.19 58.65-26.703 72.08-21.743 15.457 5.71 24.46 12.57 27.23 28.79.994 5.836-.65 12.067-6.853 18.27-5.49 5.485-10.04 13.78-10.04 24.02 0 0-.08 5.267-3.25 5.267 0 0-3.26-9.6-11.73-5.66-8.47 3.938-8.658 13.78-15.94 21.067-6.94 6.936-12.93 14.586-19.437 13.948m-192.02-136.6c14.623-3.573 28.01-2.132 35.356 9.12 7.55 11.558 17.16 33.443 27.04 56.265" fill="none" stroke="#302F71" stroke-width="2.835" stroke-linecap="round" stroke-linejoin="round" stroke-miterlimit="10"/><path d="M105.828 334.103L58.152 209.136s-19.66-41.438 0-61.097c11.68-11.68 35.738-27.65 57.142-32.88" fill="none" stroke="#302F71" stroke-width="1.417" stroke-linecap="round" stroke-linejoin="round" stroke-miterlimit="10"/><path d="M100.85 331.57L54.315 209.6s-19.66-41.44 0-61.098c11.68-11.68 35.738-27.65 57.142-32.88" fill="none" stroke="#302F71" stroke-width="1.417" stroke-linecap="round" stroke-linejoin="round" stroke-miterlimit="10"/><path d="M113.3 115.677s-54.014 13.41-90.502 49.898c0 0-12.36 7.938-6.384 35.075 3.642 16.53 23.77 71.006 44.738 115.648m564.184 154.927c12.692-5.642 23.067-11.723 23.067-11.723m11.254-161.27s-34.827-1.23-45.852 21.77c-11.024 23-19.237 72-26.88 87-7.645 15-18.145 62.69-2.645 71.846.45.266.93.5 1.433.704m38.567-29.726s-4.5-6.824 2.5-18.824c8.043-13.787 9.17-13.634 25.394-56.345" fill="none" stroke="#302F71" stroke-width="2.835" stroke-linecap="round" stroke-linejoin="round" stroke-miterlimit="10"/><path d="M641.762 401.338s-8.11 41.12 2.433 51.665c10.544 10.543 12.087 11.5 12.087 23.5v40.868m-12.294-316.73s-2.79 11.72-2.79 17.29 3.04 13.79 1.395 19.6-2.644 15.92 2.19 27.2c4.832 11.28 4.165 22.946 12.165 22.946h5.97M777.46 289.8s34.405-1.293 38.363 45.207" fill="none" stroke="#302F71" stroke-width="2.835" stroke-linecap="round" stroke-linejoin="round" stroke-miterlimit="10"/><path d="M617.974 313.564s44.093 10.247 34.2 61.093" fill="none" stroke="#302F71" stroke-width="1.392" stroke-linecap="round" stroke-linejoin="round" stroke-miterlimit="10"/><path d="M682.28 161.95s27.8-15.39 50.668 7.48c22.87 22.87 18.533 96.028 45.91 123.406 0 0-5.998 5.333-14.454 2.667 0 0-13.72 30.665-45.03 34-34.426 3.667-60.76-8-68.093-21 0 0 12.34-7.173 12.34-29.647 0-27.455-17.2-36.185-19.42-69.484-.93-13.993-.28-47.423 38.09-47.423zm-76.12 335.495l-9.76 29.413s-2.873 13.406 0 19.152c2.717 5.433 40.36 68.13 44.453 74.94l.36.6m210.067-475.9s2.075 5.46.864 7.322c0 0-2.375 3.166.98 4.63 0 0-1.248 2.357.81 3.834 0 0 1.89.41 1.576 2.95-.4 3.226.788 8.09 5.73 9.88 4.94 1.79 32.306-3.356 41.76-24.693" fill="none" stroke="#302F71" stroke-width="2.835" stroke-linecap="round" stroke-linejoin="round" stroke-miterlimit="10"/><path d="M853.126 157.603s1.403-.622 4.203-.065c2.8.555 5.35-.373 5.73-.856" fill="none" stroke="#302F71" stroke-width="1.483" stroke-linecap="round" stroke-linejoin="round" stroke-miterlimit="10"/><path d="M854.487 161.432s3.258.097 6.648-3.722" fill="none" stroke="#302F71" stroke-width="1.392" stroke-linecap="round" stroke-linejoin="round" stroke-miterlimit="10"/><path d="M857.063 124.864s7.218 1.117 10.644 4.435" fill="#FFF" stroke="#302F71" stroke-width="2.835" stroke-linecap="round" stroke-linejoin="round" stroke-miterlimit="10"/><path d="M859.357 126.437s-.68 2.4.502 3.58c0 0 3.21-.716 6.58-1.79" fill="none" stroke="#302F71" stroke-width="1.392" stroke-linecap="round" stroke-linejoin="round" stroke-miterlimit="10"/><path d="M856.558 120.148c1.26-.677 2.76-.863 4.127-.743 1.382.132 2.69.522 3.898 1.067 2.427 1.072 4.53 2.627 6.4 4.373.063.06.067.16.008.224-.05.05-.13.06-.19.02-2.192-1.278-4.43-2.46-6.75-3.206-1.16-.348-2.332-.614-3.484-.664-1.156-.06-2.26.07-3.306.473-.44.17-.93-.05-1.1-.49-.158-.406.016-.857.39-1.057l.017-.01z" fill="#302F71"/><path d="M855.44 104.427s-3.817-20.593 6.397-23.886c10.214-3.29 11.933-3.86 19.81-7.16 7.876-3.29 44.68-9.59 59.57 13.04 14.896 22.627 20.05 54.76 25.206 66.906 5.154 12.144 4.44 29.47-3.15 37.06" fill="none" stroke="#302F71" stroke-width="2.835" stroke-linecap="round" stroke-linejoin="round" stroke-miterlimit="10"/><path d="M900.693 120.292c.744.746 8.352 15.763 0 36.194-8.354 20.43-6.825 28.64-5.87 33.892.954 5.25 1.144 16.135-5.538 27.21 0 0-12.223 14.892-21.96 14.892 0 0 5.36 4.096 14.708-.927" fill="none" stroke="#302F71" stroke-width="2.835" stroke-linecap="round" stroke-linejoin="round" stroke-miterlimit="10"/><path d="M875.653 172.395s4.81-2.195 7.852 4.77c3.042 6.964 10.95 21.506 10.95 21.506" fill="none" stroke="#302F71" stroke-width="3.026" stroke-linecap="round" stroke-linejoin="round" stroke-miterlimit="10"/><path d="M884.06 179.054s-12.15 15.237-14.346 19.82c-2.196 4.583-5.348 7.733-5.348 7.733s9.453 6.11 7.258 16.517m0 0c-.312 1.973-2.363 3.615-4.3 5.14-11.138 8.77-25.47 29.555-19.97 64.25" fill="none" stroke="#302F71" stroke-width="2.835" stroke-linecap="round" stroke-linejoin="round" stroke-miterlimit="10"/><path d="M890.412 191.438c-1.833 3.385-3.5 6.78-4.99 10.338-1.693 4.04-6.307 12.89-13.043 21.506" fill="none" stroke="#302F71" stroke-width="1.392" stroke-linecap="round" stroke-linejoin="round" stroke-miterlimit="10"/><path d="M871.683 173.704s-3.114 16.578-9.845 24.98c-6.73 8.4-13.413 25.013-13.413 34.75" fill="none" stroke="#302F71" stroke-width="2.835" stroke-linecap="round" stroke-linejoin="round" stroke-miterlimit="10"/><path d="M867.325 209.195s-17.946 21.235-24.247 34.55c-6.3 13.317-10.595 29.225-6.204 40.998" fill="none" stroke="#302F71" stroke-width="2.85" stroke-linecap="round" stroke-linejoin="round" stroke-miterlimit="10"/><path d="M813.578 270.992c23.49 12.667 41.01 26.305 53.938 41.796" fill="none" stroke="#302F71" stroke-width="2.953" stroke-miterlimit="10"/><path d="M913.863 216.018c12.08-16.218 27.145-52.266 19.338-82.064" fill="none" stroke="#302F71" stroke-width="1.392" stroke-linecap="round" stroke-linejoin="round" stroke-miterlimit="10"/><path d="M961.98 188.84c.255.318.503.674.744 1.095 1.126 1.963 2.175 3.97 3.175 6 1.83 3.722 3.48 7.53 5.1 11.347 16.84 39.707 5.51 111.112 7.423 139.474" fill="none" stroke="#302F71" stroke-width="2.835" stroke-linecap="round" stroke-linejoin="round" stroke-miterlimit="10"/><path d="M913.52 244.413s20.252-42.293 47.558-23.963c27.305 18.33.572 60.91-3.438 66.638-2.666 3.808-13.18 17.49-23.575 29.04" fill="none" stroke="#302F71" stroke-width="2.835" stroke-linecap="round" stroke-linejoin="round" stroke-miterlimit="10"/><path d="M914.036 243.86c-1.562 1.616-2.828 3.36-3.678 5.23-3.98 8.778-7.835 17.77-13.02 25.924-3.502 5.506-9.2 8.966-13.432 13.82-4.06 4.657-8.47 9.907-10.48 15.812-.783 2.294-1.156 4.846-2.188 7.07" fill="#FFF" stroke="#302F71" stroke-width="2.835" stroke-linecap="round" stroke-linejoin="round" stroke-miterlimit="10"/><path d="M950.193 227.516s-23.655 4.778-35.043 15.26m32.704 4.788c-2.935 2.935-19.428 9.738-28.782 9.738-9.355 0-15.173 5.684-15.173 5.684m21.47-18.573s-7.93 2.482-10.5 6.11c-2.58 3.628-7.61 5.36-7.61 5.36" fill="none" stroke="#302F71" stroke-width="1.392" stroke-linecap="round" stroke-linejoin="round" stroke-miterlimit="10"/><path d="M961.372 187.658c-1.516 5.114-4.78 9.73-11.18 11.885-14.316 4.822-26.006 9.264-33.128 14.38" fill="none" stroke="#302F71" stroke-width="2.835" stroke-linecap="round" stroke-linejoin="round" stroke-miterlimit="10"/><path d="M959.682 167.417c.348.348 3.56 11.557.745 21.052" fill="none" stroke="#302F71" stroke-width="1.392" stroke-linecap="round" stroke-linejoin="round" stroke-miterlimit="10"/><path d="M852.863 146.557c-1.79-1.79-4.44-.573-6.588-2.72-2.148-2.148 4.44-11.027 6.444-15.61 2-4.582-.72-8.45-.72-8.45-1.86-1.86 2.29-11.312 4.01-17.184 1.72-5.872 8.16-9.022 8.16-9.022l3.15-1.16" fill="none" stroke="#302F71" stroke-width="2.835" stroke-linecap="round" stroke-linejoin="round" stroke-miterlimit="10"/><path d="M858.16 141.116c2.578 4.582-3.508 7.232-5.297 5.44m14.177-53.304c1.278-4.222 4.153-6.84 4.153-6.84s23.028-19.807 42.53-15.148" fill="none" stroke="#302F71" stroke-width="1.392" stroke-linecap="round" stroke-linejoin="round" stroke-miterlimit="10"/><path d="M903.7 130.66s-6.588 4.01-9.308-1.43c-2.722-5.442-11.313-1.433-17.758-6.302-6.445-4.87-3.866-9.452-8.665-19.333-1.93-3.965-1.79-7.515-.93-10.344M673.32 542.12s36.644-145.3 40.09-155.258c3.448-9.96 12.642-28.73 29.11-35.24 16.472-6.513 106.87-19.536 134.065-26.43 27.195-6.896 65.883-14.173 81.59-3.45 15.703 10.725 15.032 17.27 15.032 17.27s11.78 9.54 7.565 35.97c-4.217 26.43-23.368 108.018-33.71 136.36-10.34 28.348-20.3 36.008-20.3 56.31 0 20.3-3.065 50.944-20.686 55.924s-240.167 55.54-247.06 37.538" fill="none" stroke="#302F71" stroke-width="2.835" stroke-linecap="round" stroke-linejoin="round" stroke-miterlimit="10"/><path d="M681.06 595.44s26.23-47.323 37.722-99.034c11.49-51.71 22.6-114.528 42.518-120.274 19.917-5.746 89.247-11.875 123.72-19.535 34.475-7.66 84.013-23.934 89.25-15.704" fill="none" stroke="#302F71" stroke-width="1.392" stroke-linecap="round" stroke-linejoin="round" stroke-miterlimit="10"/><path d="M674.4 615.543s37.023-56.497 48.422-114.945c10.14-51.992 22.6-114.528 42.518-120.274 19.917-5.746 89.247-11.875 123.72-19.535 34.475-7.67 84.013-23.94 89.25-15.71" fill="none" stroke="#302F71" stroke-width="1.392" stroke-linecap="round" stroke-linejoin="round" stroke-miterlimit="10"/><path d="M669.498 630.597s6.72-21.016 9.356-27.962c4.348-11.455 6.986-31.41.986-45.58-6-14.173-51.838-81.333-51.838-81.333s-4.214-8.62-10.15-8.62h-22.6s-6.894.384-8.81 12.833c-1.915 12.45-11.3 42.326-11.3 42.326s-5.554 14.75 1.916 32.37c7.47 17.62 51.264 97.49 51.264 97.49s2.62 7.567 12.45 10.248l13.276-.013s8.235.875 10.726-11.382c2.49-12.256 4.724-20.364 4.724-20.364z" fill="none" stroke="#302F71" stroke-width="2.835" stroke-linecap="round" stroke-linejoin="round" stroke-miterlimit="10"/><path d="M588.47 473s5.44-5.45 9.654 1.7c4.214 7.15 54.52 87.59 54.52 87.59s7.21 9.224 1.79 31.154c-4.962 20.086-15.32 55.668-15.32 55.668s-3.83 11.498-8.438 6.892" fill="none" stroke="#302F71" stroke-width="1.392" stroke-linecap="round" stroke-linejoin="round" stroke-miterlimit="10"/><path d="M641.13 621.875c-2.31 8.797-4.128 15.49-4.128 15.49s-3.063 12.832-9.96.957c-6.894-11.873-42.898-81.204-42.898-81.204s-8.235-16.28-3.64-32.94c4.597-16.663 11.108-37.922 11.108-37.922s2.107-8.044 6.894-1.15c1.057 1.522 3.886 6.113 7.653 12.344" fill="none" stroke="#302F71" stroke-width="1.392" stroke-linecap="round" stroke-linejoin="round" stroke-miterlimit="10"/><path d="M606.16 497.45c13.305 22.003 38.312 64.456 38.312 64.456s7.853 9.768 5.938 21.45c-1.153 7.037-5.46 23.96-8.957 37.286" fill="none" stroke="#302F71" stroke-width="2.835" stroke-linecap="round" stroke-linejoin="round" stroke-miterlimit="10"/><path d="M862.146 126.365c-1.035-.155-2.053-.406-3.086-.553.113 1.038.187 2.1.064 3.11-.022.174-.065.34-.102.507.335.36.746.58 1.197.58 1.1 0 2-1.3 2-2.9 0-.26-.03-.51-.08-.75zM592.2 50.94c1.347.37-.576-.075-.895-.1-.49-.036-.98-.065-1.47-.09-.384-.02-.764-.047-1.145-.077-.26.445-.42.96-.42 1.515 0 1.646 1.314 2.98 2.937 2.98 1.622 0 2.938-1.334 2.938-2.98 0-.358-.072-.696-.187-1.014-.582-.01-1.172-.074-1.757-.235zm24.042 2.49c1.346.372-.577-.073-.896-.097-.49-.037-.98-.066-1.47-.092-.384-.02-.764-.04-1.145-.07-.26.45-.42.96-.42 1.52 0 1.646 1.32 2.98 2.94 2.98 1.62 0 2.94-1.334 2.94-2.98 0-.358-.07-.696-.18-1.014-.583-.01-1.173-.074-1.758-.235z" fill="#302F71"/><path d="M424.472 756.275c.127-4.608-4.872-8.025-4.872-8.025l-80.968-53.768" fill="none" stroke="#302F71" stroke-width="2.835" stroke-miterlimit="10"/><path d="M313.02 720.66l-.69-15.602 82.6 53.735s16.156 11.297 25.342 4.217c2.365-1.823 3.554-3.623 3.995-5.306m-120.33-35.538l-.626-15.653" fill="none" stroke="#302F71" stroke-width="1.417" stroke-miterlimit="10"/><path d="M217.577 838.912c-5.136-1.408-7.606-8.718-5.52-16.328.382-1.396.892-2.705 1.5-3.904" fill="none" stroke="#302F71" stroke-width="1.317" stroke-miterlimit="10"/><path d="M224.578 811.228c.185.034.37.076.552.126 5.136 1.408 7.607 8.717 5.52 16.328-1.932 7.05-7.098 11.883-11.93 11.438" fill="none" stroke="#302F71" stroke-width="2.624" stroke-miterlimit="10"/><path d="M865.258 792.09s5.34 3.912 5.34 12.01c0 8.1-5.222 13.324-7.445 13.324h-20.525" fill="none" stroke="#302F71" stroke-width="2.634" stroke-miterlimit="10"/><path d="M845.008 817.218c5.136-1.408 7.606-8.718 5.52-16.328-.382-1.396-.892-2.705-1.5-3.904" fill="none" stroke="#302F71" stroke-width="1.317" stroke-miterlimit="10"/><path d="M838.007 789.534c-.185.034-.37.076-.552.126-5.136 1.408-7.607 8.717-5.52 16.328 1.932 7.05 7.098 11.883 11.93 11.438" fill="none" stroke="#302F71" stroke-width="2.624" stroke-miterlimit="10"/><path d="M418.06 800.567c-4.318-.833-7.662-6.6-7.662-13.588 0-2.98.608-5.74 1.64-7.99" fill="none" stroke="#302F71" stroke-width="1.353" stroke-miterlimit="10"/><path d="M659.383 793.992c1.75 1.378 5.356 5.29 5.356 14.128 0 10.51-8.75 13.916-8.75 13.916h-13.52s-11.25-.186-11.25-14.333c0-9.146 4.34-10.803 4.34-10.803" fill="none" stroke="#302F71" stroke-width="2.835" stroke-miterlimit="10"/><path d="M638.95 821.85c4.317-.834 7.66-6.6 7.66-13.59 0-2.978-.606-5.734-1.638-7.98" fill="none" stroke="#302F71" stroke-width="1.353" stroke-miterlimit="10"/><path d="M263.186 140.013c1.193.052 2.148.008 2.998-.96.307-.35.55-.763.857-1.116.69-.785 1.5-.91 2.52-1.05" fill="none" stroke="#302F71" stroke-width="1.392" stroke-linecap="round" stroke-linejoin="round" stroke-miterlimit="10"/><path d="M266.665 119.294c1.1.657 3.39.9 3.418-1.016" fill="none" stroke="#302F71" stroke-width="1.028" stroke-linecap="round" stroke-linejoin="round" stroke-miterlimit="10"/><path d="M191.19 142.88c-.06 2.72-.184 5.446-.35 8.19-.438 7.21-1.6 14.763 1.05 21.693 3.492 9.145 13.198 15.745 12.796 26.417m13.85-17.522c-1.117 6.25-.254 13.106 2.34 18.814 2.893 6.37 8.09 11.402 10.645 17.99 2.25 5.8 4.19 12.886 3.89 19.17-.16 3.44-.42 7.006-.36 10.54m29.14-158.16c3.55-.943 6.358-.285 8.5 2.835" fill="none" stroke="#302F71" stroke-width="1.392" stroke-linecap="round" stroke-linejoin="round" stroke-miterlimit="10"/><path d="M246.556 125.85c.514.924 1.41 1.622 2.532 1.813 1.963.334 3.824-.985 4.16-2.948.08-.474.06-.94-.038-1.38-2.044 1.065-4.342 2.028-6.654 2.516z" fill="#302F71"/><path d="M253.364 125.93c-.82.895-1.786 1.678-2.99 1.966-1.41.337-2.537-.118-3.885-.34m24.98-9.48c-.82.894-1.786 1.677-2.99 1.965-1.41.34-2.537-.11-3.885-.34m122.32-58.02c1.67-1.15 3.215-1.71 5.227-1.84 1.58-.1 3.92.55 5.272-.32m18.1-36.997c-3.097-5.323-7.76-7.043-13.52-7.693-5.55-.628-11.114-4.03-16.817-2.64m26.88 53.953c-.126.02-.25.04-.376.063m-26.374 15.81c-.863 2.034-2.1 3.865-3.875 5.25m111.59 20.914c4.107 10.03-1.702 19.685-1.667 29.667m23 4.333c2.79 6.097-1.976 13.405-4.415 18.766-2.262 4.97-3.89 6.077-2.252 11.234m25.666-28.333c-.044 8.252-3.213 13.844-9.42 19.537-4.2 3.85-12.49 9.39-12.913 15.796M378.81 65.388c.087 3.933.448 7.135 3.25 10.125m3.876 1.375c-1.18-.74-1.746-3.152-.472-4.044.535-.374 1.353-.125 1.856-.61.803-.773.492-3.093-.385-3.72" fill="none" stroke="#302F71" stroke-width="1.392" stroke-linecap="round" stroke-linejoin="round" stroke-miterlimit="10"/><path d="M596.744 67.493c-.246 1.69 1.715 1.892 2.608 2.785 1.015 1.014 2.12 2.084 3.818 1.142.554-.308 2.808-.833 3.42-1.082.786-.32 1.22-1.185 1.22-1.84" fill="none" stroke="#302F71" stroke-width="1.272" stroke-linecap="round" stroke-linejoin="round" stroke-miterlimit="10"/><path d="M580.685 42.08c-6.862 20.41-7.213 42.964-5.41 64.69 2.333 28.107 9.714 49.048 10.946 81.935m40.47-136.192c.96 15.88 1.14 31.12.67 46.996-.49 16.88-2.95 82.33-2.95 99.23m228.53-45.23c.63 0 1.63.52 2.56.77 2.19.59 5.31 3.422 7.31 2.61m-477.87 71.62c3.81-1.87 7.137-4.9 9.97-8.09 1.868-2.1 4.43-4.71 7.28-5.29m267.25-103.87c2.38 6.994.523 14.934-2.75 21.25" fill="none" stroke="#302F71" stroke-width="1.392" stroke-linecap="round" stroke-linejoin="round" stroke-miterlimit="10"/><path d="M979.286 420.02c1.107 19.664-.852 36.98-18.81 46.236" fill="none" stroke="#302F71" stroke-width="2.756" stroke-linecap="round" stroke-linejoin="round" stroke-miterlimit="10"/><path d="M681.354 162.513c3.084.106 6.143-.218 9.223.068 10.375.97 16.924 6.3 24.444 13.27m35 90.67c2.82 8.99 5.61 28.947 18.34 29.668m-100.88-68.42c1.488 4.555 2.905 9.133 4.3 13.64 7.29 23.54 4.85 55.884-20.084 68.115" fill="none" stroke="#302F71" stroke-width="1.392" stroke-linecap="round" stroke-linejoin="round" stroke-miterlimit="10"/><path d="M596.4 526.858s20.528 51.3 47.807 78.578m-20.2-167.54c2.43-1.28 8.312-4.256 13.796-6.05M381.156 315.3c4.977 3.163 10.99 10.804 10.99 29.27 0 31.5-2.5 67 1 79s4 26.5-3 43-6 24-6 26.5" fill="none" stroke="#302F71" stroke-width="2.835" stroke-linecap="round" stroke-linejoin="round" stroke-miterlimit="10"/><path d="M312.29 382.167c2.587-12.862 9.504-29.083 18.355-48.098 13.5-29 44-21 44-21s2.997 0 6.51 2.23" fill="none" stroke="#302F71" stroke-width="1.392" stroke-linecap="round" stroke-linejoin="round" stroke-miterlimit="10"/><path d="M392.146 410.07l11.5-13.5c35.5 0 41.5 28 41.5 28s-5.01 17.227-41.5 66c-40.212 53.747-60.73 36.5-60.73 36.5-16.727-8.5-18.77-51.5-18.77-62.5s-9-14.5-9-27 1-24-3-38c-1.377-4.82-1.213-10.65.146-17.403m135.983 157.06c9.89-4.07 18.547-5.2 23.38-.53M305.7 641.604c22.128-3.458 40.584-18.01 56.846-32.683 11.097-10.01 20.705-20.71 30.716-31.31 4.634-4.91 17.178-15.65 31.126-25.04m34.298-44.553c12.97 5.016 15.185 20.496 15.792 32.484" fill="none" stroke="#302F71" stroke-width="2.835" stroke-linecap="round" stroke-linejoin="round" stroke-miterlimit="10"/><path d="M323.732 471.2c1.725 25.127-21.272 38.5-19.5 64.496" fill="none" stroke="#302F71" stroke-width="1.392" stroke-linecap="round" stroke-linejoin="round" stroke-miterlimit="10"/><path d="M328.192 507.798c-18.74 12.457-23.72 27.758-32.917 45.883" fill="none" stroke="#302F71" stroke-width="1.683" stroke-linecap="round" stroke-linejoin="round" stroke-miterlimit="10"/><path d="M341.892 217.37c-6.098 3.96-1.89 11.527-.476 16.884.464 1.76.893 4.52 2.27 5.917 1.75 1.78 4.29.65 6.338.04" fill="none" stroke="#302F71" stroke-width="3.074" stroke-linecap="round" stroke-linejoin="round" stroke-miterlimit="10"/><path d="M884.937 309.763c-7.596-.713-16.245 3.5-23.015 6.532-7.548 3.38-15.933 3.128-24.04 2.85-4.082-.138-8.172-.297-12.248.04-2.864.238-8.557.334-10.947 2.08m67.346-89.712c-3.16 3.592-7.183 5.727-12.096 7.38 0 0 17.416 5.997 29.25-7.384 7.05-7.98 9.757-12.99 21.096-19.57" fill="none" stroke="#302F71" stroke-width="2.835" stroke-linecap="round" stroke-linejoin="round" stroke-miterlimit="10"/><path d="M880.437 109.888c1.415 3.49 2.91 7.763 5.76 10.346 2.774 2.516 6.093 4.786 8.24 7.904m11.25 44.375c-2.888 6.496-5.613 12.726-7.504 19.627-.944 3.45-1.657 6.972-2.732 10.385-.76 2.414-2.09 4.73-2.51 7.238" fill="none" stroke="#302F71" stroke-width="1.392" stroke-linecap="round" stroke-linejoin="round" stroke-miterlimit="10"/><path d="M883.823 240.943c-2.183 7.296-7.443 13.89-12.396 19.417-3.88 4.328-8.054 7.88-11.727 12.45-4.732 5.89-9.505 12.798-11.264 20.204" fill="#FFF" stroke="#302F71" stroke-width="2.835" stroke-linecap="round" stroke-linejoin="round" stroke-miterlimit="10"/><path d="M751.42 671.656c8.97 3.987 14.774 10.35 14.774 17.518 0 12.074-16.47 21.862-36.787 21.862s-36.786-9.788-36.786-21.862c0-7.064 5.64-13.345 14.39-17.342" fill="none" stroke="#302F71" stroke-width="2.941" stroke-linecap="round" stroke-linejoin="round" stroke-miterlimit="10"/><path d="M751.077 684.17c-.137 6.837-9.786 12.354-21.67 12.354-11.97 0-21.67-5.596-21.67-12.51" fill="none" stroke="#302F71" stroke-width="2.835" stroke-linecap="round" stroke-linejoin="round" stroke-miterlimit="10"/><path fill="none" stroke="#302F71" stroke-width="1.392" stroke-linecap="round" stroke-linejoin="round" stroke-miterlimit="10" d="M741.635 709.796v15.82"/><path d="M726.437 726.422s8.27 1.658 15.198 0" fill="none" stroke="#302F71" stroke-width="2.941" stroke-linecap="round" stroke-linejoin="round" stroke-miterlimit="10"/><path fill="none" stroke="#302F71" stroke-width="1.392" stroke-linecap="round" stroke-linejoin="round" stroke-miterlimit="10" d="M726.437 711.035v15.387M691.77 691.17v16.653"/><path fill="none" stroke="#302F71" stroke-width="2.835" stroke-miterlimit="10" d="M766.194 687.013l1.388 15.026"/><path d="M707.737 684.025V663.18" fill="none" stroke="#302F71" stroke-width="2.835" stroke-linecap="round" stroke-linejoin="round" stroke-miterlimit="10"/><path d="M751.078 656.946v27.147" fill="none" stroke="#302F71" stroke-width="2.766" stroke-linecap="round" stroke-linejoin="round" stroke-miterlimit="10"/></svg>