<svg baseProfile="tiny" xmlns="http://www.w3.org/2000/svg" viewBox="-0.499 -0.501 142.73 49.19"><path d="M6.818 32.72c-.522.224-.618.266-.725.32-.113.058-.156.108-.133.23.005.03.026.092.047.14.017.038.02.062-.006.07-.022.012-.04-.01-.06-.06-.08-.183-.162-.402-.206-.507-.035-.082-.138-.295-.19-.418-.022-.052-.025-.08-.002-.09.024-.01.04.008.056.043.016.037.027.057.053.095.058.086.128.088.25.043.114-.04.21-.08.732-.305l.48-.205c.5-.215.667-.404.73-.63.062-.21.008-.374-.043-.49-.064-.152-.192-.316-.39-.396-.27-.11-.584.013-.938.165l-.43.184c-.522.224-.62.265-.727.318-.114.058-.157.107-.132.23.005.03.025.09.042.13.016.036.018.06-.006.07-.025.01-.042-.01-.063-.06C5.083 31.425 5 31.204 5 31.2c-.018-.04-.12-.253-.178-.386-.02-.048-.024-.075 0-.085.024-.013.04.006.057.047.016.038.028.058.053.096.057.085.127.088.25.043.112-.04.21-.082.73-.306l.368-.157c.383-.164.804-.3 1.176-.117.314.154.458.387.554.608.078.183.21.517.09.865-.082.24-.28.48-.78.694l-.502.217zm-.142-3.82c.283-.07.368-.14.378-.218.008-.066-.004-.138-.017-.195-.01-.04-.007-.063.017-.068.028-.007.043.024.055.075.05.237.072.386.087.455.007.033.056.202.098.393.01.048.015.08-.02.09-.02.004-.033-.018-.04-.054-.01-.05-.03-.112-.055-.16-.05-.09-.16-.08-.48-.016l-2.168.442c-.073.016-.127.016-.135-.02-.01-.04.03-.084.083-.16.038-.055.51-.74.924-1.39.194-.304.612-.912.657-.987l-.003-.02-1.633.397c-.222.053-.283.102-.3.196-.01.06.008.146.02.198.01.045.002.062-.02.065-.03.008-.043-.032-.055-.088-.042-.186-.07-.363-.086-.44-.01-.04-.05-.178-.09-.356-.01-.047-.016-.084.015-.09.02-.005.037.015.046.06.008.035.015.064.035.105.052.097.136.108.34.067l2.314-.467c.08-.018.115-.01.124.022.01.04-.02.094-.054.143-.168.277-.544.852-.837 1.312-.308.484-.675.99-.73 1.07l.003.012 1.526-.375zM4.87 25.555c-.565.035-.67.042-.79.058-.126.016-.188.057-.2.14-.01.042-.01.09-.007.136.002.036-.004.06-.034.062-.022.002-.032-.027-.036-.087-.01-.142-.014-.378-.02-.486-.007-.094-.032-.313-.04-.456-.004-.048.002-.08.024-.08.03-.003.04.02.04.058.003.037.01.066.02.11.024.1.09.127.22.124.12 0 .226-.006.793-.042l.658-.042c.362-.02.657-.04.816-.065.1-.02.166-.048.173-.16.004-.054.006-.136.003-.192-.002-.042.007-.06.026-.062.025 0 .04.028.042.07.016.245.02.48.025.582.005.086.03.32.04.47.004.048-.005.075-.032.076-.018.003-.03-.013-.032-.058-.003-.056-.015-.1-.023-.133-.02-.075-.084-.094-.193-.098-.157-.01-.452.01-.814.032l-.657.042zm-.8-1.68c-.21.074-.255.135-.3.268-.02.055-.023.114-.025.145-.002.033-.014.043-.037.042-.03-.002-.03-.043-.026-.1.013-.197.038-.41.045-.54.006-.093.006-.273.02-.46.002-.045.012-.085.038-.084.026.002.032.024.03.06-.003.06-.003.115.017.146.018.026.042.04.076.042.05.003.155-.024.293-.067l1.737-.535v-.015c-.4-.188-1.57-.75-1.81-.854-.048-.02-.103-.04-.137-.042-.03-.002-.06.012-.074.044-.018.045-.024.1-.027.148-.004.034-.01.063-.035.062-.03-.002-.035-.036-.03-.106.01-.188.032-.343.035-.39.004-.064.004-.24.01-.354.004-.048.014-.078.04-.076.026 0 .032.024.03.062-.005.037-.01.115.03.186.03.05.09.11.323.227.342.168.537.28.983.513.53.274.926.476 1.106.57.21.11.27.136.266.187-.003.048-.058.067-.236.127l-2.34.793zm1.058-3.31c-.556-.12-.657-.142-.776-.16-.126-.018-.19 0-.242.114-.014.026-.03.09-.042.14-.01.04-.02.062-.046.055-.026-.006-.027-.032-.017-.087.02-.1.047-.204.067-.295l.057-.23c.024-.116.182-.845.192-.915.007-.07.013-.13.012-.162 0-.02-.006-.043-.002-.062.004-.018.02-.02.038-.015.025.004.065.032.23.08.037.01.195.053.237.07.02.007.038.02.032.044-.006.024-.025.028-.06.02-.023-.004-.086-.014-.134-.004-.07.01-.122.04-.185.216-.02.062-.11.443-.125.518-.004.02.005.027.03.032l.926.2c.026.004.042.004.046-.018.018-.08.108-.5.12-.587.01-.088.01-.145-.02-.187-.022-.032-.037-.05-.033-.068.003-.016.013-.024.034-.02.022.004.078.03.262.086.07.02.215.063.24.068.03.007.07.016.063.05-.005.025-.02.03-.04.025-.037-.005-.084-.015-.135-.014-.077 0-.144.04-.188.173-.02.068-.104.43-.123.518-.004.02.01.025.032.03l.288.063c.125.027.46.104.567.122.254.047.32 0 .4-.373.022-.095.055-.25.03-.353-.02-.105-.09-.166-.234-.225-.036-.015-.05-.025-.043-.05.008-.03.036-.024.072-.016.083.017.326.1.395.134.09.046.083.08.052.218-.06.274-.11.474-.146.63-.04.156-.067.27-.092.378-.01.04-.026.12-.04.21-.02.083-.032.18-.048.253-.01.05-.026.07-.052.065-.02-.004-.026-.02-.018-.065.013-.055.015-.1.015-.135 0-.076-.075-.112-.18-.148-.148-.052-.437-.113-.773-.187l-.644-.136zm.694-2.69c-.53-.206-.628-.244-.743-.28-.122-.038-.19-.03-.258.073-.018.024-.044.082-.063.13-.016.04-.03.06-.055.05-.023-.01-.02-.038-.002-.09.072-.186.167-.4.195-.475.046-.118.138-.388.18-.496.085-.22.196-.447.398-.585.104-.072.336-.143.57-.052.258.1.453.3.603.763.51-.16.914-.28 1.21-.4.277-.118.356-.252.388-.3.02-.036.038-.066.048-.095.01-.027.026-.037.044-.03.028.012.025.038.01.08l-.128.332c-.075.195-.126.276-.21.35-.14.117-.354.187-.698.278-.246.065-.545.135-.615.16-.028.008-.04.028-.05.052l-.124.302c-.007.018-.004.03.017.04l.05.018c.324.125.6.232.753.27.104.028.19.037.244-.062.027-.05.064-.124.08-.166.012-.028.027-.038.044-.03.024.01.025.037.01.082-.08.202-.19.457-.21.51-.025.065-.1.29-.154.43-.02.043-.04.064-.063.054-.018-.007-.02-.023-.006-.065.022-.054.03-.098.036-.132.013-.074-.057-.123-.153-.176-.14-.074-.415-.18-.735-.305l-.616-.237zm.435-.306c.038.015.056.013.075-.007.053-.063.104-.164.138-.25.054-.142.058-.19.036-.272-.035-.133-.157-.297-.443-.407-.495-.19-.766.08-.846.287-.033.087-.055.15-.058.19-.003.027.008.04.036.05l1.06.41zm2.202-1.556c-.054.038-.075.04-.147 0-.18-.104-.367-.228-.417-.26-.047-.03-.077-.06-.062-.087.018-.028.048-.016.074 0 .042.023.118.05.183.063.282.064.48-.077.595-.278.166-.293.05-.55-.123-.646-.162-.09-.34-.126-.704.024l-.202.083c-.483.2-.78.193-1.044.044-.357-.204-.445-.647-.188-1.1.12-.213.23-.33.302-.402.022-.024.042-.036.064-.022.042.023.13.09.383.233.072.04.093.065.078.09-.012.024-.037.022-.076 0-.028-.016-.14-.057-.263-.037-.088.014-.24.053-.36.264-.137.24-.08.466.115.576.15.085.307.074.664-.08l.12-.05c.52-.228.822-.24 1.132-.063.188.107.372.306.393.627.012.222-.062.42-.16.593-.11.19-.215.322-.356.427zm-.087-3.09c-.46-.334-.544-.395-.645-.46-.107-.068-.182-.076-.244-.022-.034.026-.065.063-.09.1-.023.03-.043.044-.067.026-.018-.013-.006-.042.03-.09.083-.115.23-.3.295-.387.055-.074.176-.26.26-.374.03-.04.052-.06.07-.046.023.02.017.04-.005.07-.022.03-.037.058-.058.098-.045.094-.012.154.09.237.093.077.178.14.637.474l.532.388c.292.214.53.388.67.47.088.05.157.07.235-.012.037-.038.093-.1.125-.146.024-.033.044-.042.06-.03.022.016.013.046-.012.08-.146.198-.294.383-.354.465-.05.068-.18.267-.27.387-.028.04-.053.054-.073.04-.015-.012-.016-.03.012-.067.033-.045.053-.086.067-.118.03-.068-.008-.125-.088-.197-.116-.108-.354-.282-.648-.496l-.53-.39zm.922-2.518l-.372.415c-.144.164-.19.242-.17.34.016.064.035.11.052.135.017.026.02.044.004.062-.02.02-.038.012-.067-.018-.044-.042-.242-.327-.26-.354-.027-.042-.035-.065-.02-.08.02-.023.073-.024.144-.087.083-.072.186-.17.27-.26l1.02-1.076c.082-.087.13-.154.163-.2.03-.05.045-.076.056-.086.018-.02.037-.006.078.032.057.054.237.238.308.306.024.028.036.05.02.065-.02.022-.038.015-.082-.02l-.032-.024c-.076-.062-.22-.06-.456.177l-.332.335 1.115 1.053c.25.237.465.44.595.537.083.062.16.104.247.032.042-.034.104-.088.142-.13.027-.03.05-.035.06-.022.02.02.008.047-.02.077-.17.18-.34.343-.41.42-.06.06-.214.24-.315.35-.033.035-.06.047-.08.028-.013-.013-.01-.03.02-.063.04-.04.064-.078.082-.108.04-.065-.004-.138-.074-.22-.103-.122-.316-.324-.566-.562l-1.122-1.054zm2.84-.46c-.016.013-.017.022-.01.045l.177.545c.03.096.07.178.1.213.04.053.098.07.187-.003l.043-.035c.035-.027.05-.028.062-.012.02.023.006.043-.026.07-.095.073-.228.165-.317.236-.032.026-.187.163-.338.284-.038.03-.06.04-.08.016-.014-.02-.006-.033.018-.052.026-.02.065-.057.086-.078.12-.125.096-.27.038-.46l-.73-2.422c-.032-.112-.04-.16-.012-.182.026-.02.065-.01.147.035.2.104 1.618.924 2.16 1.22.32.174.437.148.51.113.052-.026.098-.06.133-.086.023-.02.04-.027.057-.008.02.023-.003.05-.11.138-.105.084-.32.254-.558.435-.055.04-.09.067-.105.047-.014-.018-.007-.032.02-.06.017-.02.016-.064-.026-.087l-.73-.434c-.016-.01-.03-.01-.044.003l-.656.52zm.48-.62c.013-.013.01-.023 0-.03l-.84-.513c-.012-.01-.027-.02-.036-.015-.01.007-.004.025.002.04l.305.935c.008.014.018.02.028.01l.54-.428zm1.942-.025c-.064.01-.084 0-.126-.07-.103-.18-.205-.38-.232-.433-.025-.05-.037-.09-.01-.105.027-.018.048.01.062.036.024.042.078.102.126.146.212.196.453.17.652.052.29-.172.315-.45.214-.623-.093-.156-.23-.276-.62-.327l-.217-.028c-.518-.067-.773-.22-.928-.48-.21-.354-.064-.782.383-1.048.21-.124.363-.172.46-.2.033-.01.055-.01.068.014.024.042.066.143.216.394.042.07.047.104.02.118-.02.013-.042 0-.064-.04-.018-.028-.093-.118-.21-.162-.083-.032-.234-.074-.443.05-.238.142-.3.365-.187.56.088.146.23.216.614.26l.13.014c.562.062.833.202 1.015.508.108.187.17.45.027.738-.1.198-.263.333-.433.436-.184.107-.343.17-.517.19zM34.09 6.585l-.49-.27c-.19-.104-.278-.133-.368-.09-.062.028-.1.06-.12.08-.023.022-.04.03-.06.02-.022-.014-.02-.034 0-.07.03-.05.265-.31.286-.332.034-.036.056-.05.075-.038.026.016.04.066.116.12.087.064.206.144.31.205l1.28.75c.103.06.18.092.23.114.055.02.085.027.098.035.022.013.015.034-.014.082-.04.067-.18.285-.23.37-.02.03-.04.045-.06.034-.024-.016-.02-.035.004-.086l.018-.036c.042-.09.008-.23-.274-.404l-.4-.25-.777 1.323c-.174.297-.323.552-.39.7-.043.096-.064.178.024.247.04.033.107.08.155.11.036.02.047.04.037.055-.013.022-.044.018-.08-.004-.212-.12-.41-.25-.5-.303-.073-.043-.282-.153-.412-.23-.042-.022-.06-.047-.046-.068.01-.018.028-.02.067.003.05.03.092.045.125.055.072.025.133-.034.197-.122.096-.126.245-.38.42-.678l.777-1.324zm1.684 2.127c.37-.43.438-.51.51-.604.078-.102.094-.166.018-.267-.018-.025-.062-.07-.104-.105-.03-.027-.043-.047-.026-.067.018-.02.042-.01.084.028.15.13.322.29.407.364.068.058.254.204.356.29.04.038.057.06.04.08-.02.02-.04.01-.068-.014-.03-.026-.05-.04-.09-.062-.09-.053-.153-.022-.244.07-.084.088-.152.167-.52.6l-.34.395c-.354.41-.42.654-.38.888.04.214.16.338.256.42.125.107.312.2.523.184.29-.02.518-.27.77-.562l.305-.354c.37-.432.438-.51.51-.605.078-.102.094-.166.018-.267-.018-.024-.062-.068-.095-.097-.032-.026-.044-.047-.027-.066.017-.02.042-.01.08.025.146.124.316.286.32.29.033.027.22.173.33.268.04.034.055.058.038.077-.017.02-.04.01-.073-.018-.03-.027-.05-.04-.09-.062-.088-.052-.152-.022-.243.07-.083.087-.15.167-.52.598l-.263.303c-.27.316-.59.624-1.002.624-.35 0-.58-.144-.766-.302-.15-.13-.417-.372-.463-.737-.033-.254.04-.557.393-.97l.354-.414zm2.836 2.67c.443-.354.523-.42.613-.502.094-.085.122-.146.064-.26-.013-.027-.05-.08-.083-.12-.025-.032-.034-.054-.014-.07.02-.017.043 0 .078.042.125.154.263.346.312.406.08.1.268.313.34.404.147.184.287.393.307.637.01.126-.045.362-.24.52-.216.174-.486.243-.962.142-.117.52-.215.93-.257 1.248-.038.3.038.436.063.485.022.037.04.064.06.09.018.02.02.04.004.053-.023.02-.045.003-.074-.032l-.223-.275c-.132-.164-.176-.25-.195-.357-.034-.18.014-.4.106-.744.066-.247.156-.54.17-.612.007-.03-.006-.05-.02-.07l-.2-.257c-.01-.015-.022-.02-.04-.004l-.042.032c-.27.22-.5.403-.61.517-.078.077-.128.146-.07.243.03.048.076.117.104.15.02.024.02.043.006.056-.02.016-.046.003-.076-.035-.137-.17-.3-.394-.336-.438-.044-.055-.2-.23-.294-.348-.03-.038-.038-.065-.02-.082.017-.012.034-.007.063.028.034.043.068.073.096.096.058.05.134.012.228-.044.135-.084.364-.27.633-.485l.51-.416zm.046.53c-.032.026-.04.04-.03.07.028.077.09.17.148.244.094.116.136.145.216.167.134.036.336.014.575-.18.414-.333.312-.703.174-.875-.06-.072-.105-.123-.137-.145-.022-.017-.038-.012-.062.006l-.884.714zm1.935 2.203c.49-.29.58-.342.68-.41.105-.07.143-.135.117-.215-.012-.04-.033-.084-.056-.123-.02-.032-.022-.056.002-.07.02-.012.04.01.072.06.072.124.182.332.237.425.048.08.17.265.242.387.024.042.033.072.015.083-.025.016-.043 0-.062-.033-.02-.032-.038-.056-.065-.09-.067-.08-.14-.07-.254-.012-.107.054-.197.108-.688.396l-.566.335c-.312.185-.567.335-.698.43-.08.06-.126.118-.082.222.02.05.056.123.084.172.02.034.02.057.004.065-.022.014-.047-.007-.068-.042-.125-.212-.234-.42-.287-.508-.043-.074-.173-.27-.25-.4-.023-.042-.026-.07-.005-.083.017-.01.033-.002.057.036.028.05.058.083.082.11.05.056.115.042.215-.003.145-.063.398-.214.712-.397l.564-.335zm-.276 2.38c.157-.46.507-.71.842-.85.235-.098.672-.193 1.114.013.33.154.604.425.817.94.09.214.128.348.174.515.037.14.053.263.085.37.012.04 0 .06-.02.07-.03.01-.074.018-.198.06-.116.042-.306.124-.378.145-.054.02-.085.022-.098-.008-.01-.028.014-.046.062-.065.105-.048.208-.144.263-.267.073-.164.056-.472-.076-.79-.124-.3-.28-.466-.482-.56-.335-.157-.69-.087-1.025.052-.822.34-.972 1.134-.78 1.597.127.31.24.48.455.554.09.03.21.034.275.022.06-.012.076-.01.09.017.01.023-.013.042-.04.053-.04.017-.36.1-.49.114-.067.007-.09 0-.138-.05-.113-.114-.246-.367-.338-.59-.195-.473-.256-.914-.113-1.34zm2.46 2.802c.556-.125.658-.146.772-.18.123-.036.175-.078.174-.205 0-.03-.01-.094-.02-.145-.01-.04-.008-.064.018-.07.026-.005.04.02.052.074l.062.295c.02.096.033.18.044.23.026.117.19.844.208.912.023.068.043.125.058.152.008.017.023.036.027.055s-.01.025-.028.03c-.025.004-.073-.004-.244.022-.038.005-.2.033-.245.036-.02 0-.042-.002-.048-.026-.006-.025.01-.037.043-.044.025-.005.087-.023.126-.052.06-.04.096-.086.077-.272-.005-.063-.084-.448-.102-.52-.004-.02-.017-.023-.042-.018l-.923.208c-.026.006-.04.013-.035.034.02.08.112.5.14.583.026.086.05.138.094.163.035.02.056.028.06.047.004.015 0 .026-.02.032-.023.005-.084.003-.274.03-.074.014-.223.035-.248.04-.028.007-.068.018-.077-.017-.006-.025.008-.036.025-.04.036-.012.083-.022.128-.044.07-.035.112-.1.096-.236-.008-.07-.086-.434-.104-.52-.004-.02-.02-.02-.042-.016l-.288.065c-.124.027-.46.1-.566.126-.25.062-.292.134-.208.507.02.095.057.248.12.333.066.085.153.112.31.104.04 0 .057.002.062.027.006.03-.022.036-.06.044-.084.02-.338.046-.416.044-.102-.004-.108-.037-.14-.176-.062-.272-.1-.476-.13-.634-.028-.158-.05-.272-.075-.382-.01-.04-.026-.12-.05-.207-.02-.084-.047-.177-.063-.25-.012-.047-.006-.075.02-.08.02-.005.033.007.042.05.012.056.03.098.044.13.03.068.115.07.226.06.156-.016.445-.08.78-.155l.64-.145zm-.687 3.192c-.292.018-.387.07-.41.146-.02.064-.02.137-.02.195 0 .04-.005.064-.027.064-.03 0-.04-.032-.04-.084-.01-.243-.004-.394-.006-.465 0-.033-.02-.21-.024-.402-.002-.047 0-.082.033-.082.022 0 .03.02.032.06.002.048.008.115.024.166.033.097.142.107.467.1l2.214-.043c.076-.002.13.008.13.045 0 .04-.046.075-.11.143-.048.046-.637.636-1.16 1.2-.244.264-.766.788-.822.853v.02l1.677-.097c.23-.012.298-.048.332-.14.02-.056.018-.145.016-.198 0-.045.01-.06.03-.06.03-.002.036.04.038.094.008.193.003.374.006.452 0 .04.02.183.024.366 0 .05 0 .086-.03.087-.022 0-.035-.02-.037-.066 0-.04-.002-.067-.015-.112-.034-.104-.113-.132-.323-.127l-2.36.043c-.08.003-.115-.01-.117-.044 0-.042.038-.09.078-.13.216-.244.688-.74 1.06-1.143.39-.42.842-.853.91-.923v-.01l-1.57.093zm-.502 3.45c.035-.056.056-.063.137-.053.203.03.424.076.48.09.056.012.095.027.09.058-.003.034-.037.032-.066.028-.05-.008-.128-.003-.194.006-.286.042-.417.246-.45.476-.048.333.154.528.352.558.182.025.36-.006.645-.277l.157-.15c.377-.36.656-.466.956-.423.407.06.65.44.577.956-.035.24-.095.392-.135.483-.012.03-.025.048-.052.044-.048-.007-.152-.037-.44-.078-.083-.012-.11-.027-.106-.057.004-.027.027-.035.072-.028.032.004.148.002.257-.062.078-.046.205-.137.24-.378.04-.272-.098-.463-.32-.495-.17-.023-.31.042-.588.316l-.094.093c-.4.398-.68.52-1.03.472-.216-.03-.46-.148-.595-.44-.09-.202-.096-.414-.066-.61.028-.22.078-.38.17-.53zm1.12 3.175c.547.154.648.183.766.208.126.027.196.01.236-.065.022-.036.04-.082.05-.125.012-.036.024-.056.054-.048.02.007.02.037.004.095-.04.138-.113.36-.144.466-.024.09-.073.305-.112.44-.014.047-.028.074-.05.068-.03-.008-.03-.03-.02-.067s.014-.064.02-.11c.01-.103-.045-.147-.17-.19-.11-.04-.212-.068-.76-.223l-.632-.18c-.35-.1-.633-.18-.792-.21-.1-.016-.172-.01-.217.096-.02.05-.05.126-.066.18-.01.04-.025.055-.044.05-.025-.007-.028-.04-.017-.08.065-.235.14-.46.168-.558.022-.082.077-.312.118-.456.013-.047.03-.068.056-.062.018.005.025.022.013.066-.016.053-.02.1-.02.133-.007.075.048.114.148.154.146.06.43.14.78.24l.632.178zm-2.203 1.32c.048-.047.07-.05.146-.017.188.08.39.186.44.21.052.027.084.055.073.08-.012.032-.045.022-.072.01-.044-.02-.123-.035-.188-.044-.287-.032-.467.13-.56.343-.134.31.01.55.192.63.168.07.348.09.694-.102l.19-.103c.46-.25.756-.277 1.034-.156.377.164.512.597.306 1.073-.097.224-.192.353-.256.432-.02.028-.038.04-.062.03-.044-.02-.14-.076-.406-.192-.075-.032-.1-.055-.086-.082.01-.02.035-.023.077-.006.03.013.145.042.265.01.088-.023.233-.08.33-.303.11-.253.03-.472-.177-.56-.157-.07-.31-.042-.65.148l-.113.064c-.492.28-.792.325-1.12.185-.198-.086-.402-.264-.457-.58-.036-.22.017-.425.095-.606.087-.196.178-.34.307-.46zm-26.71 11.34c-.025 0-.057 0-.115-.02-.053-.014-.07-.057-.09-.185l-.19-1.25c-.008-.048-.033-.077-.063-.08-.03.002-.052.025-.07.06l-.547 1.113-.546-1.098c-.025-.057-.05-.074-.08-.074-.028 0-.05.03-.056.066l-.207 1.32c-.01.068-.032.142-.07.143-.033.004-.047.004-.063.004-.025 0-.05.013-.05.038 0 .032.033.04.055.04.067 0 .167-.008.207-.008.037 0 .132.008.22.008.03 0 .066-.005.068-.04-.003-.027-.026-.036-.05-.037-.018 0-.035 0-.07-.008-.035-.01-.05-.017-.05-.044 0-.03 0-.058.006-.093l.095-.746c.07.144.175.358.19.394.024.06.19.367.24.46.035.062.055.106.1.112.04-.004.05-.03.1-.124l.43-.866.11.832.003.043c0 .024-.003.023-.002.025-.015.006-.033.015-.035.037.004.03.03.04.08.04.083.006.38.016.435.016.03 0 .066-.003.07-.04-.006-.027-.033-.035-.054-.035zm1.708-1.25c-.234-.238-.593-.236-.854-.236-.126 0-.277.004-.34.004-.06 0-.194-.004-.304-.004-.028 0-.062.002-.064.035 0 .03.03.04.053.04.03 0 .067.002.08.006.063.02.07.028.078.095.003.064.003.12.003.43v.355c0 .188 0 .346-.01.43-.008.06-.018.086-.05.094-.017.003-.04.005-.068.005-.03 0-.05.02-.05.04 0 .027.03.037.058.037.043 0 .096-.002.146-.005.05 0 .097-.003.12-.003.05 0 .126.006.21.013.082.005.174.012.25.012.39 0 .616-.146.715-.244.122-.12.234-.315.234-.576 0-.248-.097-.42-.204-.53zm-.132.583c0 .207-.042.382-.172.488-.123.103-.258.135-.446.135-.162 0-.24-.044-.26-.073-.01-.012-.02-.086-.02-.134-.004-.04-.007-.194-.007-.408v-.255c0-.16 0-.326.003-.396.003-.02 0-.017.016-.023.01-.007.082-.015.123-.014.163 0 .386.02.574.188.088.08.188.243.188.495zm1.983.33c-.027-.002-.04.024-.04.054-.007.032-.035.09-.07.126-.077.087-.172.102-.357.102-.272 0-.635-.222-.636-.69 0-.197.038-.387.188-.515.09-.077.203-.11.384-.11.188 0 .326.05.392.114.05.05.074.116.076.177 0 .023.004.058.04.06.035-.003.042-.038.044-.065.002-.042.002-.154.007-.22.003-.07.01-.095.01-.113 0-.02-.02-.04-.048-.04-.06-.008-.13-.022-.208-.034-.096-.012-.176-.02-.308-.02-.313 0-.52.082-.675.22-.204.183-.25.425-.25.565 0 .198.056.435.268.61.195.164.442.224.73.224.137 0 .296-.012.385-.047.037-.013.057-.033.065-.07.02-.07.045-.244.045-.272-.002-.028-.01-.056-.042-.06zm1.68 0c-.03-.002-.042.024-.044.054-.005.032-.034.09-.067.126-.08.087-.174.102-.36.102-.272 0-.635-.222-.636-.69 0-.197.038-.387.188-.515.092-.077.203-.11.384-.11.19 0 .327.05.394.114.05.05.072.116.075.177 0 .023.006.058.04.06.036-.003.042-.038.044-.065 0-.042 0-.154.007-.22.004-.07.01-.095.01-.113 0-.02-.02-.04-.047-.04-.062-.008-.13-.022-.208-.034-.097-.012-.177-.02-.308-.02-.314 0-.52.082-.676.22-.205.183-.25.425-.25.565 0 .198.055.435.268.61.194.164.44.224.73.224.136 0 .296-.012.384-.047.037-.013.058-.033.064-.07.02-.07.045-.244.046-.272 0-.028-.01-.056-.04-.06zm1.677 0c-.027-.002-.04.024-.043.054-.006.032-.034.09-.066.126-.08.087-.174.102-.36.102-.27 0-.634-.222-.634-.69 0-.197.037-.387.187-.515.093-.077.204-.11.386-.11.19 0 .327.05.394.114.05.05.074.116.076.177 0 .023.005.058.04.06.036-.003.042-.038.044-.065.002-.042.002-.154.007-.22.005-.07.01-.095.01-.113 0-.02-.02-.04-.047-.04-.06-.008-.13-.022-.21-.034-.094-.012-.174-.02-.306-.02-.314 0-.52.082-.677.22-.205.183-.25.425-.25.565 0 .198.056.435.268.61.194.164.44.224.73.224.137 0 .296-.012.385-.047.036-.013.057-.033.064-.07.022-.07.045-.244.046-.272-.003-.028-.012-.056-.043-.06zm8.096.338c-.02 0-.05-.002-.076-.01-.043-.016-.072-.033-.106-.076-.048-.06-.378-.58-.458-.703l.34-.465c.064-.09.104-.142.142-.15.027-.006.053-.01.07-.01.026 0 .05-.014.052-.04-.002-.03-.032-.035-.056-.035-.08 0-.166.005-.205.005-.04 0-.138-.005-.22-.005-.03 0-.06.005-.062.036 0 .03.025.04.043.04.017 0 .044 0 .062.006.02.004.024.015.024.018 0 .013-.006.04-.022.064-.032.053-.195.293-.268.4-.08-.133-.16-.267-.248-.42-.01-.02-.02-.046-.02-.05 0-.003 0-.01.016-.014s.036-.006.046-.006c.02 0 .05-.01.05-.04-.002-.03-.033-.035-.06-.035-.08 0-.208.005-.236.005-.1 0-.27-.005-.32-.005-.023 0-.054 0-.06.034 0 .02.017.04.04.04.018 0 .05.005.082.015.068.022.106.062.16.142l.36.564-.4.544c-.072.1-.102.125-.158.142-.028.007-.06.01-.072.01-.024 0-.045.017-.045.04s.024.036.048.036h.036c.035 0 .138-.008.177-.008.052 0 .19.008.203.008h.038c.027 0 .058-.004.06-.036-.002-.025-.02-.04-.043-.04l-.045-.003c-.013 0-.022-.01-.022-.017v-.003c0-.015.01-.042.028-.07l.293-.453.315.52c.004.007.005.012.005.014 0 .006-.002.006-.002.006-.02.005-.04.02-.04.043.005.035.037.033.09.037.17.005.338.005.39.005h.06c.025 0 .056-.008.06-.038-.002-.026-.024-.04-.045-.04zm1.778 0c-.017 0-.05-.002-.075-.01-.043-.016-.07-.033-.105-.076-.05-.06-.38-.58-.46-.703l.34-.465c.065-.09.105-.142.142-.15.028-.006.054-.01.072-.01.025 0 .05-.014.05-.04 0-.03-.03-.035-.055-.035-.08 0-.166.005-.206.005s-.138-.005-.22-.005c-.028 0-.06.005-.06.036 0 .03.025.04.042.04.018 0 .044 0 .062.006.02.004.024.015.023.018 0 .013-.005.04-.02.064-.032.053-.195.293-.27.4-.077-.134-.16-.267-.246-.42-.012-.02-.02-.046-.02-.05 0-.003 0-.01.016-.014s.036-.006.047-.006c.02 0 .05-.01.05-.04-.002-.03-.033-.035-.06-.035-.08 0-.21.005-.235.005-.1 0-.27-.005-.32-.005-.024 0-.054 0-.06.034 0 .02.018.04.038.04s.053.005.083.015c.07.022.107.062.16.142l.362.564-.402.544c-.07.1-.1.125-.157.142-.03.007-.06.01-.07.01-.026 0-.046.017-.047.04 0 .023.022.036.047.036h.036c.035 0 .137-.008.176-.008.05 0 .188.008.202.008h.038c.026 0 .058-.004.06-.036-.002-.025-.02-.04-.043-.04l-.045-.003c-.013 0-.022-.007-.023-.017v-.003c0-.015.01-.042.027-.07l.292-.453c.09.15.2.332.316.52.004.007.005.012.005.014v.006c-.022.005-.042.02-.042.043.006.035.038.033.09.037.17.005.338.005.39.005h.06c.025 0 .056-.008.06-.038-.004-.026-.025-.04-.047-.04zm1.78 0c-.02 0-.05-.002-.077-.01-.043-.016-.072-.033-.106-.076-.05-.06-.38-.58-.46-.703l.342-.465c.062-.09.103-.142.14-.15.028-.006.053-.01.072-.01.024 0 .05-.014.05-.04-.002-.03-.032-.035-.055-.035-.08 0-.166.005-.205.005-.04 0-.14-.005-.22-.005-.028 0-.06.005-.062.036 0 .03.025.04.043.04.016 0 .044 0 .06.006.02.004.026.015.025.018 0 .013-.006.04-.02.064-.033.053-.196.293-.27.4-.08-.133-.16-.267-.248-.42-.01-.02-.02-.046-.02-.05 0-.003.002-.01.016-.014.015-.004.036-.006.046-.006.02 0 .05-.01.05-.04-.002-.03-.032-.035-.06-.035-.08 0-.208.005-.236.005-.1 0-.268-.005-.317-.005-.027 0-.058 0-.062.034 0 .02.018.04.038.04s.052.005.083.015c.068.022.106.062.158.142l.363.564-.4.544c-.073.1-.102.125-.158.142-.03.007-.06.01-.072.01-.023 0-.045.017-.045.04s.024.036.047.036h.036c.035 0 .138-.008.177-.008.052 0 .188.008.2.008h.04c.026 0 .058-.004.06-.036-.002-.025-.02-.04-.043-.04-.017 0-.032-.003-.045-.003-.014 0-.023-.007-.024-.017v-.003c0-.015.01-.042.028-.07l.294-.453.315.52.005.014c0 .005-.003.006-.003.006-.02.005-.04.02-.04.043.006.035.037.032.09.037.172.005.34.005.39.005h.06c.026 0 .057-.008.06-.038 0-.026-.022-.04-.043-.04zm1.093 0c-.03 0-.078-.002-.104-.007-.058-.012-.062-.026-.07-.08-.01-.084-.01-.246-.01-.44v-.356c0-.31 0-.364.005-.43.007-.068.015-.082.063-.093.024-.005.04-.007.06-.007s.05-.012.05-.04c-.004-.034-.034-.034-.06-.035-.08 0-.218.005-.27.005-.06 0-.202-.005-.28-.005-.032 0-.063 0-.067.034 0 .028.03.04.052.04.025 0 .05.002.07.01.04.014.054.024.06.09.003.064.003.12.003.43v.356c0 .194 0 .356-.01.438-.01.06-.015.073-.05.083-.017.004-.04.006-.07.006-.03 0-.05.02-.05.04 0 .028.03.037.058.037.084 0 .228-.008.273-.008.056 0 .2.008.338.008.025 0 .055-.008.058-.038.002-.02-.02-.04-.05-.04zm1.27 0c-.03 0-.077-.002-.103-.007-.056-.012-.06-.026-.07-.08-.01-.084-.01-.246-.01-.44v-.356c0-.31 0-.364.006-.43.008-.068.015-.082.064-.093.023-.005.04-.007.06-.007.02 0 .05-.012.05-.04-.006-.034-.034-.034-.06-.035-.083 0-.22.005-.27.005-.06 0-.203-.005-.282-.005-.032 0-.062 0-.067.034 0 .028.03.04.05.04.026 0 .052.002.072.01.04.014.052.024.06.09.003.064.003.12.003.43v.356c0 .194 0 .356-.01.438-.01.06-.016.073-.05.083-.018.004-.04.006-.07.006-.03 0-.05.02-.05.04 0 .028.03.037.058.037.084 0 .227-.008.273-.008.057 0 .2.008.338.008.025 0 .056-.008.06-.038 0-.02-.02-.04-.05-.04zm1.272 0c-.03 0-.077-.002-.104-.007-.056-.012-.06-.026-.068-.08-.01-.084-.01-.246-.01-.44v-.356c0-.31 0-.364.005-.43.007-.068.014-.082.063-.093.024-.005.04-.007.06-.007s.05-.012.05-.04c-.005-.034-.035-.034-.06-.035-.08 0-.218.005-.27.005-.06 0-.202-.005-.28-.005-.032 0-.063 0-.067.034 0 .028.028.04.05.04.025 0 .05.002.07.01.042.014.054.024.06.09.003.064.003.12.003.43v.356c0 .194 0 .356-.01.438-.008.06-.014.073-.048.083-.02.004-.04.006-.07.006-.03 0-.05.02-.05.04 0 .028.03.037.058.037.084 0 .228-.008.274-.008.056 0 .2.008.338.008.024 0 .055-.008.057-.038 0-.022-.02-.04-.05-.04zm-12.59-9.8v-1.187c0-.222-.18-.402-.4-.402-.223 0-.403.182-.403.402v1.188h.804zm2.178 0v-1.187c0-.222-.18-.402-.4-.402-.225 0-.404.182-.404.402v1.188h.803zm-1.49-23.897c-.233 0-.423.19-.423.422 0 .233.19.422.422.422.233 0 .423-.188.423-.422 0-.233-.19-.422-.423-.422zm-.214 11.777h.425v-.915h-.426v.915zM19.84 42.94c-.232 0-.422.19-.422.423s.19.422.422.422c.233 0 .423-.188.423-.422s-.19-.422-.423-.422zm-.256-23.07v-1.346c-.003-.315-.158-.533-.39-.635-.23.1-.386.318-.39.635v1.344h.78zm0-4.322v-.868c-.003-.315-.158-.534-.39-.637-.23.104-.386.32-.39.637v.867h.78zm-.182 8.99v-1.126c0-.116-.093-.21-.21-.21s-.208.094-.208.21v1.127h.418zm0 3.393v-1.125c0-.116-.093-.21-.21-.21s-.208.094-.208.21v1.126h.418zm.123 3.79v-1c0-.187-.15-.338-.338-.338-.188 0-.338.15-.338.34v1h.675zm-.33-28.31c-.234 0-.423.188-.423.42 0 .234.188.423.422.423.232 0 .422-.188.422-.422 0-.232-.19-.42-.422-.42zm10.18 16.46v-1.346c-.002-.315-.158-.533-.39-.635-.23.1-.386.318-.388.635v1.344h.778zm0-4.322v-.868c-.002-.315-.158-.534-.39-.637-.23.104-.386.32-.388.637v.867h.778zm-.18 8.99v-1.126c0-.116-.095-.21-.21-.21s-.21.094-.21.21v1.127h.42zm0 3.393v-1.125c0-.116-.095-.21-.21-.21s-.21.094-.21.21v1.126h.42zm.122 3.79v-1c0-.187-.15-.338-.338-.338-.19 0-.34.15-.34.34v1h.677zm-.332-28.31c-.233 0-.422.188-.422.42 0 .234.188.423.422.423.232 0 .422-.188.422-.422 0-.232-.188-.42-.422-.42zM60.11 21.36c-3.84 0-4.704-2.09-4.704-4.415V8.998h2.342V16.8c0 1.533.505 2.614 2.523 2.614 1.803 0 2.56-.757 2.56-2.83V9h2.325v7.442c0 3.334-1.84 4.92-5.046 4.92zm13.045-.198v-5.73c0-.937-.253-1.495-1.1-1.495-1.172 0-2.09 1.334-2.09 2.9v4.326h-2.308v-8.956h2.18c0 .415-.034 1.117-.125 1.586l.02.02c.54-1.064 1.585-1.804 3.045-1.804 2.018 0 2.666 1.297 2.666 2.864v6.29l-2.288-.002zm5.947-10.11c-.793 0-1.424-.63-1.424-1.405 0-.757.63-1.39 1.424-1.39s1.44.614 1.44 1.39c0 .775-.647 1.405-1.44 1.405zm-1.154 10.11v-8.956h2.307v8.956h-2.307zm9.263 0H84.87l-3.314-8.956h2.52l1.425 4.036c.215.613.433 1.334.595 1.982h.035c.145-.612.324-1.298.54-1.91l1.44-4.108h2.452l-3.35 8.956zm11.587-4.108h-5.55c-.02 1.676.81 2.485 2.468 2.485.884 0 1.84-.2 2.613-.56l.216 1.784c-.955.378-2.09.576-3.207.576-2.848 0-4.433-1.423-4.433-4.576 0-2.74 1.514-4.758 4.198-4.758 2.61 0 3.767 1.784 3.767 4 0 .308-.02.67-.073 1.048zm-3.767-3.352c-.955 0-1.622.703-1.748 1.784h3.298c.036-1.118-.576-1.784-1.55-1.784zm10.56.576c-1.657-.343-2.485.74-2.485 3.226v3.658h-2.308v-8.956h2.18c0 .45-.054 1.17-.16 1.802h.035c.433-1.135 1.298-2.126 2.848-2l-.11 2.27zm3.153 7.064c-.647 0-1.298-.07-1.874-.16l.054-1.894c.56.145 1.242.27 1.93.27.882 0 1.458-.36 1.458-.955 0-1.585-3.62-.686-3.62-3.73 0-1.567 1.277-2.865 3.8-2.865.523 0 1.1.072 1.64.162l-.07 1.82c-.504-.146-1.1-.234-1.657-.234-.9 0-1.333.36-1.333.92 0 1.46 3.676.81 3.676 3.712-.004 1.765-1.554 2.954-4.005 2.954zm7.118-10.29c-.792 0-1.423-.63-1.423-1.405 0-.757.63-1.39 1.424-1.39s1.44.614 1.44 1.39c.002.775-.646 1.405-1.44 1.405zm-1.152 10.11v-8.956h2.308v8.956h-2.308zm8.143.18c-1.98 0-2.612-.72-2.612-2.81V13.99h-1.53v-1.784h1.53V9.45l2.307-.614v3.37h2.182v1.784h-2.182v3.928c0 1.153.27 1.48 1.063 1.48.378 0 .793-.056 1.117-.146v1.856c-.578.144-1.244.234-1.874.234zm8.88-.18c0-.52.02-1.045.092-1.514l-.02-.02c-.433 1.01-1.53 1.713-2.864 1.713-1.62 0-2.56-.918-2.56-2.36 0-2.144 2.126-3.278 5.172-3.278v-.487c0-.937-.45-1.423-1.747-1.423-.812 0-1.894.27-2.65.703l-.197-1.928c.9-.324 2.056-.56 3.208-.56 2.884 0 3.694 1.172 3.694 3.118v3.73c0 .72.018 1.567.054 2.307h-2.18zm-3.17-10.433c-.686 0-1.242-.56-1.242-1.245 0-.703.558-1.244 1.243-1.244.686 0 1.244.542 1.244 1.245 0 .684-.56 1.244-1.243 1.244zm2.992 6.468c-2.433 0-2.974.703-2.974 1.423 0 .578.396.956 1.063.956 1.136 0 1.91-1.08 1.91-2.162l.002-.216zm.648-6.47c-.685 0-1.243-.56-1.243-1.243 0-.703.56-1.244 1.243-1.244s1.244.542 1.244 1.245c0 .684-.56 1.244-1.244 1.244zm7.35 10.614c-1.98 0-2.612-.72-2.612-2.81V13.99h-1.53v-1.784h1.53V9.45l2.307-.614v3.37h2.18v1.784h-2.18v3.928c0 1.153.27 1.48 1.063 1.48.38 0 .793-.056 1.116-.146v1.856c-.577.144-1.243.234-1.874.234zm-84.595 18.86V38.4l4.38-7.137c.25-.414.503-.774.792-1.153-.433.02-1.01.036-2.217.036H55.1v-2.108h7.855v1.874l-4.63 7.316c-.18.288-.343.56-.56.848.307-.036 1.136-.036 2.632-.036h2.63v2.162h-8.072zm15.53 0c0-.414.017-1.117.106-1.586l-.017-.018c-.54 1.062-1.567 1.802-3.045 1.802-2.02 0-2.667-1.298-2.667-2.865v-6.29h2.29v5.73c0 .938.252 1.497 1.117 1.497 1.17 0 2.07-1.334 2.07-2.9v-4.326h2.31v8.956h-2.163zm-3.66-10.433c-.684 0-1.242-.56-1.242-1.245 0-.702.56-1.243 1.243-1.243.685 0 1.244.54 1.244 1.243 0 .685-.56 1.244-1.244 1.244zm3.64 0c-.684 0-1.242-.56-1.242-1.245 0-.702.56-1.243 1.243-1.243.686 0 1.243.54 1.243 1.243 0 .685-.56 1.244-1.244 1.244zm9.46 3.548c-1.655-.343-2.484.74-2.484 3.226v3.658h-2.307v-8.956h2.182c0 .45-.055 1.17-.162 1.802h.036c.43-1.135 1.296-2.126 2.846-2l-.11 2.27zm2.93-3.225c-.794 0-1.425-.63-1.425-1.405 0-.756.63-1.388 1.424-1.388s1.44.612 1.44 1.388c0 .774-.648 1.405-1.44 1.405zM81.7 40.203v-8.957h2.307v8.956H81.7zm8.03.16c-2.487 0-4.037-1.296-4.037-4.342 0-2.792 1.46-4.937 4.632-4.937.612 0 1.26.09 1.838.252l-.233 2c-.486-.18-1.046-.324-1.622-.324-1.46 0-2.198 1.082-2.198 2.776 0 1.53.595 2.577 2.126 2.577.612 0 1.28-.127 1.767-.38l.18 1.966c-.616.235-1.5.414-2.454.414zm9.748-.16v-5.73c0-.938-.252-1.496-1.1-1.496-1.172 0-2.09 1.334-2.09 2.9v4.325H93.98V27.047h2.307v3.84c0 .54-.036 1.297-.162 1.82l.036.018c.523-1.01 1.55-1.677 2.94-1.677 2.017 0 2.666 1.3 2.666 2.865v6.29h-2.288zm5.856-8.487c-1.46 0-1.813-.788-1.813-1.706v-2.972h1.062v2.91c0 .537.17.877.822.877.6 0 .83-.252.83-.938v-2.85h1.047v2.788c0 1.293-.728 1.89-1.946 1.89zm2.83-.088v-.83l1.476-2.468c.073-.122.155-.238.243-.354-.12.007-.277.014-.72.014h-.952v-.952h2.973v.863l-1.558 2.503c-.055.09-.107.164-.177.26.09-.015.347-.015.89-.015h.87v.98h-3.045zm6.758 0v-1.91h-1.68v1.91h-1.06v-4.59h1.06V28.8h1.68v-1.762h1.062v4.59h-1.062zM0 24.09C0 10.787 10.786 0 24.09 0c13.307 0 24.093 10.786 24.093 24.09 0 13.307-10.786 24.093-24.092 24.093C10.787 48.183 0 37.396 0 24.09zM7.477 7.478C3.225 11.73.595 17.602.595 24.09c0 6.49 2.63 12.362 6.882 16.615 4.253 4.252 10.125 6.88 16.613 6.88 6.49 0 12.36-2.628 16.614-6.88 4.252-4.253 6.882-10.125 6.882-16.614 0-6.487-2.63-12.36-6.882-16.612C36.452 3.224 30.58.594 24.09.594c-6.488 0-12.36 2.63-16.613 6.883zm16.98 31.755h.193v-.34h-.462v.753h.27l-.002-.413zM24.09 1.568c-12.435 0-22.515 10.08-22.515 22.516 0 12.437 10.08 22.518 22.516 22.518 12.437 0 22.517-10.08 22.518-22.518C46.606 11.65 36.526 1.568 24.09 1.568zM21.6 43.19h-1.02v.34h1.02v2.53c-5.112-.573-9.696-2.89-13.146-6.338-.495-.495-.967-1.015-1.414-1.555.09-.55.565-.967 1.14-.967.64 0 1.156.518 1.156 1.156v1.11h1.468V38.354c0-.64.52-1.156 1.156-1.156.64 0 1.157.517 1.157 1.155v1.11h1.468v-1.111c0-.64.52-1.156 1.156-1.156s1.156.518 1.156 1.156v1.11h1.468v-1.111c0-.64.518-1.156 1.157-1.156.64 0 1.156.518 1.156 1.156v1.11h.922v3.727zm4.196 2.945c-.562.044-1.13.065-1.703.065-.57 0-1.14-.02-1.7-.063l-.417-2.606h.48c-.12-.285-.328-.785-.408-.988-.13-.326-.032-.542.185-.626.21-.082.45.034.523.312l.21.792h.31v.613h-.73v.34h1.067v-.44h1.294v-.51h.31l.212-.793c.075-.278.315-.396.528-.312.218.084.315.3.186.626-.035.09-.093.235-.154.396l-.288.695h-.778v.34h1.005l.184-.44h.103l-.42 2.6zm-2.403-7.45h1.4c.056.128.19.453.272.642.057.13.13.27.04.416-.105.17-.244.146-.34.14-.007-.002-.013 0-.02-.002-.097.27-.35.46-.652.46-.3 0-.555-.19-.652-.46-.005.002-.013 0-.018.002-.098.01-.235.032-.342-.14-.09-.144-.016-.284.04-.415.086-.19.22-.515.273-.643zm-.21-1.455l.447.64.458-.868.458.87.448-.642-.177 1.11h-1.456l-.177-1.11zm.535 3.146c.105.293.385.504.715.504.356 0 .654-.247.736-.58.222.012.442.075.66.26.212.178.294.48.324.633h-4.116c.03-.15.112-.455.323-.632.45-.38.91-.255 1.358-.184zm1.7 1.156c-.156.586-.69 1.02-1.323 1.02-.634 0-1.167-.434-1.32-1.02h2.642zm14.314-1.81c-3.45 3.45-8.034 5.765-13.146 6.338v-2.53h.935c1.73 0 2.982-.146 2.982-.146s-1.29-.194-2.983-.194h-.936v-3.72H27.7v-1.112c0-.64.52-1.156 1.158-1.156s1.157.52 1.157 1.156v1.11h1.467V38.358c0-.64.518-1.156 1.156-1.156.638 0 1.155.52 1.155 1.157v1.11h1.47v-1.111c0-.64.517-1.156 1.155-1.156.64 0 1.156.52 1.156 1.156v1.11h1.468V38.354c0-.64.52-1.156 1.157-1.156.505 0 .936.325 1.09.78-.487.61-1.01 1.19-1.56 1.743zm1.81-2.05c-.256-.54-.807-.915-1.444-.915-.885 0-1.602.718-1.602 1.603v.517h-.58v-.517c0-.885-.716-1.603-1.6-1.603s-1.602.718-1.602 1.603v.517h-.58v-.517c0-.885-.717-1.603-1.6-1.603s-1.602.718-1.602 1.603v.517h-.58v-.517c0-.885-.718-1.603-1.602-1.603s-1.6.718-1.6 1.603v.517h-.6c-.18-1.198-1.212-2.118-2.46-2.118s-2.28.92-2.463 2.117h-.614v-.517c0-.885-.717-1.603-1.6-1.603s-1.602.718-1.602 1.603v.517h-.58v-.517c0-.885-.716-1.603-1.602-1.603-.884 0-1.6.718-1.6 1.603v.517h-.58v-.517c0-.885-.718-1.603-1.602-1.603-.885 0-1.602.718-1.602 1.603v.517h-.57v-.517c0-.885-.717-1.603-1.6-1.603-.635 0-1.182.37-1.44.903-.39-.5-.76-1.02-1.105-1.554h37.13c-.35.54-.722 1.062-1.116 1.567zm1.487-2.157H5.155c-.11-.183-.217-.366-.322-.553H43.35c-.107.186-.213.37-.323.553zM20.275 7.09v.186c-.005.037-.015.092-.034.144-.03.085-.11.22-.216.386-.04.064-.11.174-.188.33-.1-.154-.186-.256-.246-.32-.066-.07-.154-.16-.228-.245-.157-.186-.166-.297-.166-.297s-.005.11-.163.297c-.073.085-.16.175-.228.246-.062.063-.147.167-.25.325-.08-.16-.15-.27-.192-.34-.105-.165-.185-.3-.217-.385-.03-.08-.04-.174-.042-.184v-.14h2.17zm-2.166-.34c.016-.278.09-.806.36-1.165.205-.278.408-.443.558-.54.068-.045.123-.072.162-.09.04.02.095.045.164.09.147.097.352.262.557.54.272.36.346.887.363 1.164H18.11zm2.244 1.238c.062.085.125.21.194.36.096.232.12.46.124.63v2.49h-.642V8.98c.002-.17.033-.41.124-.632.08-.176.142-.276.2-.358zm-.672 1.006v2.476h-.975V8.992c.007-.162.02-.386.137-.617.122-.242.354-.386.354-.386s.22.143.343.385c.124.243.135.453.142.62zm-1.437-.65c.09.223.106.464.11.635l.002 2.49h-.634V8.975c.003-.168.02-.396.116-.63.07-.15.137-.274.194-.36.072.106.14.208.21.358zm2.92 3.533v.807h-3.942v-.807h3.94zm0 1.145v3.14h-.955V14.75c0-.47-.173-.866-.46-1.138-.152-.147-.337-.258-.54-.328-.014-.004-.013-.005-.013-.005l-.015.004c-.204.07-.39.18-.543.328-.287.27-.46.67-.46 1.138v1.414h-.957v-3.14l3.94-.002zM19.87 14.75v1.414h-1.35V14.75c.005-.546.272-.925.675-1.103.4.177.67.556.675 1.103zm1.294 1.753v3.995h-.876v-1.995c0-.468-.176-.875-.47-1.155-.157-.15-.344-.263-.55-.333-.01-.005-.074-.024-.074-.024l-.067.023c-.207.07-.396.185-.555.335-.294.28-.47.688-.47 1.154v1.995h-.88v-3.995h3.942zm-1.216 2.003v1.992H18.44v-1.995c0-.384.142-.694.365-.91.11-.104.24-.184.39-.24.147.058.276.136.387.24.226.215.364.525.365.91v.003zm1.216 2.332v4.755h-3.94v-4.755h3.94zm0 5.095v3.103h-3.94v-3.103h3.94zm0 3.442v5.247h-3.94v-5.247h3.94zm3.47-12.837v1.416l-.542-.542-.54.54V16.54h1.082zm-1.068-.408l.396-1.694.163-2.835.098 2.834.396 1.696h-1.054zm.526 1.858l2.51 2.51h-5.02l2.51-2.51zm2.51 2.85v1.92h-5.036v-1.92h5.037zm0 2.516v2.238H25.03v-.56c0-.517-.42-.94-.938-.94-.517 0-.937.422-.937.94v.56h-1.59v-2.238h5.04zm-3.447 2.58v1.997h1.873v-1.997h1.575v3.103h-5.037v-3.103h1.59zm3.448 3.44v5.248h-5.037v-5.247h5.037zM30.067 7.09v.186c-.005.038-.017.093-.035.145-.032.085-.11.22-.217.385-.04.064-.11.174-.188.33-.1-.153-.186-.256-.246-.318-.064-.07-.153-.16-.227-.246-.158-.186-.166-.297-.166-.297s-.005.11-.163.297c-.073.085-.16.175-.228.246-.062.063-.147.167-.25.325-.08-.16-.15-.27-.192-.34-.105-.165-.185-.3-.217-.385-.03-.082-.04-.177-.042-.185v-.14h2.172zM27.9 6.75c.018-.278.093-.806.363-1.165.204-.278.407-.443.557-.54.068-.045.122-.072.162-.09.04.02.095.045.163.09.147.097.352.262.557.54.27.36.345.887.362 1.164H27.9zm2.246 1.238c.06.085.125.21.193.36.095.232.12.46.123.63v2.49h-.642V8.98c.004-.17.034-.41.126-.632.08-.176.142-.276.2-.358zm-.673 1.006v2.476H28.5V8.992c.007-.162.02-.386.137-.617.122-.242.354-.386.354-.386h.002s.22.143.342.385c.12.243.132.453.14.62zm-1.437-.65c.09.223.106.464.11.635l.002 2.49h-.635V8.975c.004-.168.02-.396.116-.63.07-.15.137-.274.193-.36.075.106.143.208.213.358zm2.92 3.533v.807h-3.94v-.807h3.94zm0 1.145v3.14h-.954V14.75c0-.47-.173-.866-.46-1.138-.152-.147-.338-.258-.542-.328-.013-.004-.012-.005-.012-.005l-.015.004c-.204.07-.39.18-.543.328-.286.27-.46.67-.46 1.138v1.414h-.957v-3.14l3.943-.002zm-1.294 1.728v1.414h-1.35V14.75c.004-.546.27-.925.674-1.103.402.177.67.556.676 1.103zm1.294 1.753v3.995h-.876v-1.995c0-.468-.176-.875-.47-1.155-.157-.15-.344-.263-.55-.333-.01-.005-.074-.024-.074-.024l-.068.023c-.207.07-.396.185-.555.335-.294.28-.47.688-.47 1.154v1.995h-.88v-3.995h3.943zm-1.216 2.003v1.992h-1.506v-1.995c0-.384.14-.694.364-.91.11-.104.24-.184.388-.24.148.058.278.136.39.24.224.215.363.525.364.91v.003zm1.216 2.332v4.755h-3.94v-4.755h3.94zm0 5.095v3.103h-3.94v-3.103h3.94zm0 3.442v5.247h-3.94v-5.247h3.94zm.606 5.247V11.47h-.497V8.916c-.005-.317-.05-.52-.19-.844-.037-.082-.088-.172-.146-.262v-.92s-.002-.726-.3-1.27c-.326-.596-.957-.92-1.265-1.05-.07-.033-.117-.048-.126-.05l-.052-.02-.063.02c-.03.01-.53.167-1.004.812-.43.593-.443 1.354-.447 1.563v.907c-.057.085-.137.212-.225.4-.132.323-.14.623-.146.803v2.465h-.5v8.452l-1.368-1.367v-2.413l-.464-1.558-.68-5.34-.5 5.116-.467 1.782v2.234L21.77 19.73v-8.264h-.498v-2.55c-.005-.316-.05-.518-.192-.843-.035-.082-.087-.172-.144-.262v-.92s0-.726-.3-1.27c-.326-.596-.957-.92-1.264-1.05-.07-.033-.117-.048-.126-.05l-.05-.02-.064.02c-.03.01-.53.167-1.005.812-.43.593-.444 1.354-.448 1.563v.907c-.06.085-.14.212-.227.4-.13.323-.14.623-.145.803v2.465h-.5v23.15H4.646C2.944 31.49 1.974 27.9 1.974 24.084c0-6.106 2.475-11.635 6.477-15.64 4.004-4 9.532-6.478 15.64-6.478 6.108 0 11.637 2.476 15.64 6.48 4.002 4.002 6.478 9.53 6.478 15.638 0 3.817-.97 7.405-2.672 10.538l-11.974.002z"/></svg>