<?xml version="1.0" encoding="iso-8859-1"?>
<!-- Generator: Adobe Illustrator 19.1.0, SVG Export Plug-In . SVG Version: 6.00 Build 0)  -->
<svg version="1.1" xmlns="http://www.w3.org/2000/svg" xmlns:xlink="http://www.w3.org/1999/xlink" x="0px" y="0px"
	 viewBox="0 0 1184.222 840.46" style="enable-background:new 0 0 1184.222 840.46;" xml:space="preserve">
<g id="Layer_3">
	<path style="fill:none;stroke:#302F71;stroke-width:1.4173;stroke-linecap:round;stroke-linejoin:round;stroke-miterlimit:10;" d="
		M303.736,140.107c-4.106-21.446-8.183-43.845-8.549-50.046c-0.704-11.895-1.113-24.737,22.509-32.287"/>
	<path style="fill:none;stroke:#302F71;stroke-width:1.3916;stroke-linecap:round;stroke-linejoin:round;stroke-miterlimit:10;" d="
		M357.646,417.069c0,0-33.82,27.117-33.82,44.059"/>
	<path style="fill:none;stroke:#302F71;stroke-width:1.3916;stroke-linecap:round;stroke-linejoin:round;stroke-miterlimit:10;" d="
		M361.646,379.069c0,0-44.269,38.78-44.269,68.39"/>
	<path style="fill:none;stroke:#302F71;stroke-width:2.8347;stroke-linecap:round;stroke-linejoin:round;stroke-miterlimit:10;" d="
		M443.642,420.167l6.254-12.348c0,0-4.75-16-36.75-19.25l-5.99,8.097"/>
	<path style="fill:none;stroke:#302F71;stroke-width:2.8347;stroke-linecap:round;stroke-linejoin:round;stroke-miterlimit:10;" d="
		M445.146,400.903c0,0,2.75-12.084,10-19.334s4.75-21,3.25-28.75s-3.292-11.056-13.626-15.139"/>
	<path style="fill:none;stroke:#302F71;stroke-width:2.8347;stroke-linecap:round;stroke-linejoin:round;stroke-miterlimit:10;" d="
		M414.646,388.569c0,0,0-11.166,0-18.583c0-7.417,0.62-14.754,6.25-18.417c10.458-6.806,7-20.25,12.5-20.25s9.5,5.75,5.75,15.25
		s-5.25,11.5-5.25,14.5"/>
	<path style="fill:none;stroke:#302F71;stroke-width:2.8347;stroke-linecap:round;stroke-linejoin:round;stroke-miterlimit:10;" d="
		M438.891,333.975l23.505-21.918c0,0,3.5-1.739,5,3.261l-26.784,25.5"/>
	<path style="fill:none;stroke:#302F71;stroke-width:2.8347;stroke-linecap:round;stroke-linejoin:round;stroke-miterlimit:10;" d="
		M428.525,339.069c0,0-17.134,4.565-11.382,16.783"/>
	<path style="fill:none;stroke:#302F71;stroke-width:2.8347;stroke-linecap:round;stroke-linejoin:round;stroke-miterlimit:10;" d="
		M415.963,350.319c0,0-8.067,8.25-1.317,15"/>
	<path style="fill:none;stroke:#302F71;stroke-width:2.9037;stroke-linecap:round;stroke-linejoin:round;stroke-miterlimit:10;" d="
		M596.91,593.683c-18.51,2.228-37.78,3.404-57.573,3.404c-22.09,0-43.529-1.465-63.986-4.222"/>
	<path style="fill:none;stroke:#302F71;stroke-width:1.3541;stroke-linecap:round;stroke-linejoin:round;stroke-miterlimit:10;" d="
		M594.634,588.359c-17.526,2.227-35.773,3.404-54.516,3.404c-20.916,0-41.217-1.465-60.587-4.222"/>
</g>
<g id="Layer_1">
	<g>
		
			<path style="fill:none;stroke:#302F71;stroke-width:2.8347;stroke-linecap:round;stroke-linejoin:round;stroke-miterlimit:10;" d="
			M980.403,280.362c0,0,30.245-48.496,37.953-68.197c7.709-19.7,21.657-83.108,50.716-86.672
			c22.697-2.783,48.908,14.693,63.201,22.862c20.984,11.991,52.89,28.906,50.394,60.096c0,0-4.999,61.528-58.959,151.463
			l-42.101,66.225"/>
		
			<path style="fill:none;stroke:#302F71;stroke-width:1.3916;stroke-linecap:round;stroke-linejoin:round;stroke-miterlimit:10;" d="
			M1055.806,131.745c0,0,5.377-4.589,20.794,2.264c15.417,6.852,55.212,32.194,62.312,50.748c6.639,17.344-2.322,34.72-8.993,57.172
			c-19.915,67.023-74.303,121.839-95.716,159.098"/>
		
			<path style="fill:none;stroke:#302F71;stroke-width:1.3963;stroke-linecap:round;stroke-linejoin:round;stroke-miterlimit:10;" d="
			M1060.564,130.17c0,0,5.354-4.639,20.709,2.288c15.354,6.926,54.987,32.543,62.058,51.299c6.611,17.532-2.312,35.097-8.957,57.791
			c-19.834,67.75-73.999,123.161-95.325,160.824"/>
		
			<path style="fill:none;stroke:#302F71;stroke-width:1.3916;stroke-linecap:round;stroke-linejoin:round;stroke-miterlimit:10;" d="
			M1113.209,137.448c0,0,49.313,29.19,57.607,46.024c7.28,14.775,5.354,32.119-1.07,52.248
			c-6.425,20.128-10.208,42.869-45.325,104.637c-28.513,50.149-46.949,77.027-46.949,77.027"/>
		
			<path style="fill:none;stroke:#302F71;stroke-width:2.8347;stroke-linecap:round;stroke-linejoin:round;stroke-miterlimit:10;" d="
			M978.178,396.104c32.47,3.18,65.732,7.064,65.732,7.064s47.964,3.998,35.688,35.689c-11.319,29.224-31.118,71.375-31.118,71.375
			s-10.562,22.269-35.118,20.842c-10.881-0.632-41.327-3.171-71.863-5.802"/>
		
			<path style="fill:none;stroke:#302F71;stroke-width:1.3916;stroke-linecap:round;stroke-linejoin:round;stroke-miterlimit:10;" d="
			M1056.962,431.379c2.653,2.932,3.979,7.705,1.059,15.471c-8.51,22.633-26.957,58.529-26.957,58.529s-6.855,11.991-24.554,11.991
			c-7.509,0-33.107-2.312-60.095-4.976"/>
		
			<path style="fill:none;stroke:#302F71;stroke-width:2.8347;stroke-linecap:round;stroke-linejoin:round;stroke-miterlimit:10;" d="
			M971.911,419.032c34.092,3.237,73.999,7.69,73.999,7.69s7.042,0.226,11.052,4.657"/>
		
			<path style="fill:none;stroke:#302F71;stroke-width:2.8347;stroke-linecap:round;stroke-linejoin:round;stroke-miterlimit:10;" d="
			M1056.562,431.847l-30.353,66.68c0,0-5.428,13.418-24.555,11.705c-7.48-0.67-28.849-2.912-52.099-5.394"/>
		
			<path style="fill:none;stroke:#302F71;stroke-width:1.3916;stroke-linecap:round;stroke-linejoin:round;stroke-miterlimit:10;" d="
			M1023.482,424.282c0,0-17.545,34.988-17.545,66.251c0,0-18.284-6.247-49.49-10.107"/>
		
			<path style="fill:none;stroke:#302F71;stroke-width:1.4116;stroke-linecap:round;stroke-linejoin:round;stroke-miterlimit:10;" d="
			M1027.521,426.139c0,0-17.94,36.783-17.94,69.183c0,0-20.117-7.175-54.141-11.086"/>
		
			<line style="fill:none;stroke:#302F71;stroke-width:1.3535;stroke-linecap:round;stroke-linejoin:round;stroke-miterlimit:10;" x1="1005.56" y1="490.553" x2="977.192" y2="446.534"/>
		
			<path style="fill:none;stroke:#302F71;stroke-width:2.8347;stroke-linecap:round;stroke-linejoin:round;stroke-miterlimit:10;" d="
			M636.943,44.018c21.395,0.681,39.639,1.634,39.639,1.634s23.813-0.497,23.813,32.341c0,8.076-0.145,17.459-0.361,27.02"/>
		
			<path style="fill:none;stroke:#302F71;stroke-width:2.8347;stroke-linecap:round;stroke-linejoin:round;stroke-miterlimit:10;" d="
			M546.379,130.963c1.281-23.476,3.262-53.414,5.634-67.956c0,0,0.549-11.69,14.666-16.56"/>
		
			<path style="fill:none;stroke:#302F71;stroke-width:2.8347;stroke-linecap:round;stroke-linejoin:round;stroke-miterlimit:10;" d="
			M817.813,69.082c3.631-0.806,7.862-1.279,12.794-1.279c13.448,0,31.139,2.545,47.508,5.594"/>
		
			<path style="fill:none;stroke:#302F71;stroke-width:2.8347;stroke-linecap:round;stroke-linejoin:round;stroke-miterlimit:10;" d="
			M293.126,146.857c-1.854-10.619-4.324-23.021-5.448-30.198c-3.413-21.802-8.517-41.412,5.579-49.848
			c11.819-7.074,36.953-15.644,67.376-18.524"/>
		
			<path style="fill:none;stroke:#302F71;stroke-width:2.8347;stroke-linecap:round;stroke-linejoin:round;stroke-miterlimit:10;" d="
			M577.64,55.413c0,0,0.045,14.015,2.047,20.101c0.412,1.253,1.868,4.696,4.152,7.662c3.51,4.557,7.728,8.751,12.18,9.386
			c7.35,1.05,11.75,2.296,16.933-2.888c5.186-5.184,11.159-12.471,12.34-18.903c1.181-6.432,0.918-14.834,0.918-14.834"/>
		
			<path style="fill:none;stroke:#302F71;stroke-width:2.8347;stroke-linecap:round;stroke-linejoin:round;stroke-miterlimit:10;" d="
			M577.591,56.594c2.444-23.104,9.38-21.424,15.579-26.455c5.908-4.795,13.349-10.432,13.349-10.432s13.815,1.965,17.359,10.432
			c3.543,8.467,2.355,27.944,2.355,27.944"/>
		
			<path style="fill:none;stroke:#302F71;stroke-width:2.8347;stroke-linecap:round;stroke-linejoin:round;stroke-miterlimit:10;" d="
			M592.089,187.107c-2.691-24.4-7.711-75.574-5.6-100.891"/>
		
			<path style="fill:none;stroke:#302F71;stroke-width:2.8347;stroke-linecap:round;stroke-linejoin:round;stroke-miterlimit:10;" d="
			M620.667,80.627c2.399,22.655-2.729,118.265-2.729,118.265c7.09,3.938,26.256,0,26.256,0c-2.102-7.352-1.312-25.467-1.312-55.397
			c0-29.93-4.913-66.523-6.301-95.959c-1.061-22.522-0.801-29.262-11.727-40.189c-7.701-7.701-19.779-4.706-19.779-4.706
			s-18.853-7.294-29.53,13.73c-8.673,17.077-19.978,96.927-4.154,171.599"/>
		
			<path style="fill:none;stroke:#302F71;stroke-width:2.8347;stroke-linecap:round;stroke-linejoin:round;stroke-miterlimit:10;" d="
			M639.507,79.6c0,0,7.508,3.182,14.991,4.364c7.482,1.181,41.94,2.363,37.609,27.96l1.575,5.711c0,0-9.452,15.358-16.935,17.918
			c-7.481,2.56-6.106,8.258-6.106,8.258"/>
		
			<path style="fill:none;stroke:#302F71;stroke-width:2.8347;stroke-linecap:round;stroke-linejoin:round;stroke-miterlimit:10;" d="
			M691.282,121.244c0,0,0.518,1.365,1.401,3.769"/>
		
			<path style="fill:none;stroke:#302F71;stroke-width:2.8347;stroke-linecap:round;stroke-linejoin:round;stroke-miterlimit:10;" d="
			M670.01,141.287c0,0,2.552,10.36,5.513,20.882"/>
		
			<path style="fill:none;stroke:#302F71;stroke-width:2.8347;stroke-linecap:round;stroke-linejoin:round;stroke-miterlimit:10;" d="
			M562.918,111.909c-4.224,4.363-16.659,17.618-17.964,23.71c-1.576,7.352,3.674,17.066,3.674,17.066v4.726
			c0,0,13.876,3.388,18.227,2.087"/>
		
			<path style="fill:none;stroke:#302F71;stroke-width:2.8347;stroke-linecap:round;stroke-linejoin:round;stroke-miterlimit:10;" d="
			M551.187,157.989c0,0,1.155,14.387,1.155,26.989c0,1.737,0.01,3.597,0.031,5.525"/>
		
			<path style="fill:none;stroke:#302F71;stroke-width:2.8347;stroke-linecap:round;stroke-linejoin:round;stroke-miterlimit:10;" d="
			M586.925,128.27c0,0,26.365,21.593,32.628,36.393"/>
		
			<path style="fill:none;stroke:#302F71;stroke-width:2.8347;stroke-linecap:round;stroke-linejoin:round;stroke-miterlimit:10;" d="
			M663.621,116.979c0,0,4.108,10.765,2.976,15.49c-1.137,4.727,3.074,9.863,3.074,9.863"/>
		
			<path style="fill:none;stroke:#302F71;stroke-width:1.3916;stroke-linecap:round;stroke-linejoin:round;stroke-miterlimit:10;" d="
			M692.501,108.577c-1.657,6.149-4.781,11.141-9.274,15.804c-4.417,4.584-12.517,8.268-13.37,15.308"/>
		
			<path style="fill:none;stroke:#302F71;stroke-width:1.3916;stroke-linecap:round;stroke-linejoin:round;stroke-miterlimit:10;" d="
			M548.759,152.094c4.906,1.209,11.76,3.383,16.737,1.772"/>
		
			<path style="fill:none;stroke:#302F71;stroke-width:1.3802;stroke-linecap:round;stroke-linejoin:round;stroke-miterlimit:10;" d="
			M604.483,2.445c1.727,5.315,3.12,11.515,2.953,17.13"/>
		<g>
			<path style="fill:#302F71;" d="M597.354,47.549c-0.866-0.685-1.688-1.304-2.598-1.839c-0.904-0.523-1.855-0.981-2.891-1.275
				c-2.065-0.612-4.393-0.579-6.784-0.197c-0.146,0.024-0.284-0.074-0.308-0.22c-0.019-0.109,0.034-0.215,0.122-0.271
				c2.104-1.312,4.712-2.092,7.417-1.833c1.342,0.125,2.693,0.481,3.907,1.111c1.207,0.623,2.323,1.482,3.142,2.524
				c0.487,0.62,0.379,1.517-0.24,2.004C598.593,47.968,597.86,47.949,597.354,47.549z"/>
		</g>
		<g>
			<path style="fill:#302F71;" d="M609.979,46.027c0.983-0.886,2.23-1.542,3.526-1.949c1.305-0.414,2.697-0.533,4.04-0.426
				c2.709,0.208,5.146,1.423,6.994,3.076c0.109,0.099,0.119,0.267,0.021,0.378c-0.073,0.083-0.188,0.108-0.288,0.074
				c-2.291-0.786-4.579-1.217-6.718-0.967c-1.069,0.113-2.086,0.402-3.066,0.762c-0.987,0.371-1.902,0.841-2.874,1.367
				c-0.692,0.377-1.559,0.12-1.935-0.573C609.358,47.178,609.5,46.458,609.979,46.027z"/>
		</g>
		
			<path style="fill:none;stroke:#302F71;stroke-width:2.8347;stroke-linecap:round;stroke-linejoin:round;stroke-miterlimit:10;" d="
			M609.309,55.413c0,0,2.067-1.97,5.315-1.97c2.946,0,6.942,0.81,8.325,0.961"/>
		
			<path style="fill:none;stroke:#302F71;stroke-width:2.8347;stroke-linecap:round;stroke-linejoin:round;stroke-miterlimit:10;" d="
			M596.804,54.428c0,0,0.198-2.659-3.839-3.348c-4.036-0.689-7.976-0.591-7.976-0.591"/>
		
			<path style="fill:none;stroke:#302F71;stroke-width:1.3802;stroke-linecap:round;stroke-linejoin:round;stroke-miterlimit:10;" d="
			M612.458,56.79c0,0,6.793,2.265,9.157-2.362"/>
		
			<path style="fill:none;stroke:#302F71;stroke-width:1.2572;stroke-linecap:round;stroke-linejoin:round;stroke-miterlimit:10;" d="
			M593.827,54.803c-0.275-0.264-7.605,0.781-7.605-4.394"/>
		
			<path style="fill:none;stroke:#302F71;stroke-width:1.3802;stroke-linecap:round;stroke-linejoin:round;stroke-miterlimit:10;" d="
			M600.349,49.21c0,0,3.067,4.866,0,13.241"/>
		
			<path style="fill:none;stroke:#302F71;stroke-width:1.3802;stroke-linecap:round;stroke-linejoin:round;stroke-miterlimit:10;" d="
			M589.707,75.907c0.922,1.081,4.59,1.639,5.454,1.819c3.243,0.677,5.48,1.792,5.48,1.792s3.411-0.828,5.704-1.158
			c2.466-0.355,5.355,0.352,6.01,0.012"/>
		
			<path style="fill:none;stroke:#302F71;stroke-width:1.3802;stroke-linecap:round;stroke-linejoin:round;stroke-miterlimit:10;" d="
			M592.912,78.809c0,0,1.966,4.725,7.875,4.725c5.908,0,7.583-3.576,7.583-3.576"/>
		
			<path style="fill:none;stroke:#302F71;stroke-width:1.3802;stroke-linecap:round;stroke-linejoin:round;stroke-miterlimit:10;" d="
			M592.231,76.907c0,0,3.857-2.18,8.618-0.211c0,0,3.985-1.204,8.87,1.64"/>
		
			<path style="fill:none;stroke:#302F71;stroke-width:2.8347;stroke-linecap:round;stroke-linejoin:round;stroke-miterlimit:10;" d="
			M578.318,509.467c-16.118,1.335-32.667,2.029-49.537,2.029c-46.536,0-90.617-5.282-129.998-14.717"/>
		
			<path style="fill:none;stroke:#302F71;stroke-width:2.8347;stroke-linecap:round;stroke-linejoin:round;stroke-miterlimit:10;" d="
			M610.42,505.894c-2.278,0.32-4.568,0.627-6.868,0.921"/>
		
			<path style="fill:none;stroke:#302F71;stroke-width:2.8347;stroke-linecap:round;stroke-linejoin:round;stroke-miterlimit:10;" d="
			M655.958,497.445c-3.627,0.846-7.294,1.657-10.998,2.432"/>
		
			<path style="fill:none;stroke:#302F71;stroke-width:1.3916;stroke-linecap:round;stroke-linejoin:round;stroke-miterlimit:10;" d="
			M581.369,497.031c-17.079,1.444-34.651,2.198-52.588,2.198c-43.475,0-84.806-4.424-122.165-12.391"/>
		
			<path style="fill:none;stroke:#302F71;stroke-width:1.3916;stroke-linecap:round;stroke-linejoin:round;stroke-miterlimit:10;" d="
			M654.972,485.963c-5.631,1.249-11.357,2.417-17.169,3.501"/>
		
			<path style="fill:none;stroke:#302F71;stroke-width:2.8347;stroke-linecap:round;stroke-linejoin:round;stroke-miterlimit:10;" d="
			M606.701,212.405c11.742,1.506,23.204,3.344,34.339,5.492"/>
		
			<path style="fill:none;stroke:#302F71;stroke-width:2.8347;stroke-linecap:round;stroke-linejoin:round;stroke-miterlimit:10;" d="
			M372.45,186.923c0,0,0.753,9.485,0,14.506c-0.753,5.021-2.672,8.565-1.343,12.553c1.329,3.987,3.14,12.995,0.61,19.935
			c-2.53,6.941,1.309,15.062-5.632,18.164c-6.94,3.102-15.358,1.329-18.606,7.236c-2.364,4.297-7.151,11.331-9.584,14.844"/>
		
			<path style="fill:none;stroke:#302F71;stroke-width:2.8347;stroke-linecap:round;stroke-linejoin:round;stroke-miterlimit:10;" d="
			M373.606,225.094c0,0,6.892-0.846,5.866-4.024c-1.119-3.469-4.642-7.782-8.28-11.421"/>
		
			<path style="fill:none;stroke:#302F71;stroke-width:2.8347;stroke-linecap:round;stroke-linejoin:round;stroke-miterlimit:10;" d="
			M252.338,248.057l16.111-9.222c0,0,39.499,11.666,58.499,25.666s25.936,32.238,33.33,36.441"/>
		
			<path style="fill:none;stroke:#302F71;stroke-width:2.8347;stroke-linecap:round;stroke-linejoin:round;stroke-miterlimit:10;" d="
			M330.083,700.466c0,0-21.759,10.796-49.591,0.675c-27.832-10.121-120.607-61.569-132.838-68.316
			c-12.229-6.747-29.603-33.025-37.109-52.291c-10.25-26.31-33.878-66.395-38.797-74.221
			c-9.277-14.759-92.775-136.211-64.521-172.056c0,0,0-12.229,16.025-19.82c16.025-7.591,24.459-5.482,45.544,5.06
			c21.085,10.542,57.773,18.977,82.232,33.736c24.46,14.76,32.05,32.472,42.171,55.665c10.121,23.194,43.436,85.606,61.569,109.222
			c18.133,23.615,30.784,53.978,30.784,53.978"/>
		
			<path style="fill:none;stroke:#302F71;stroke-width:1.4173;stroke-linecap:round;stroke-linejoin:round;stroke-miterlimit:10;" d="
			M8.772,333.554c0,0,31.21,26.707,64.384,35.423c33.172,8.715,54.538,14.057,61.285,29.239
			c6.747,15.182,32.612,69.722,45.264,89.964c12.651,20.242,80.436,119.726,80.436,119.726"/>
		
			<path style="fill:none;stroke:#302F71;stroke-width:1.3916;stroke-linecap:round;stroke-linejoin:round;stroke-miterlimit:10;" d="
			M5.792,337.916c0,0,30.717,26.16,63.366,34.697c32.647,8.537,53.675,13.769,60.315,28.639
			c6.641,14.871,32.097,68.293,44.548,88.12c12.451,19.827,87.498,129.141,87.498,129.141"/>
		
			<path style="fill:none;stroke:#302F71;stroke-width:2.8347;stroke-linecap:round;stroke-linejoin:round;stroke-miterlimit:10;" d="
			M353.749,530.285c-22.859,13.385-47.533,28.741-47.533,28.741s-32.404,20.862-38.64,28.598
			c-3.928,4.872-16.111,15.718,3.076,47.45c25.237,41.737,16.587,77.875,60.022,65.224c0,0,17.29-11.386,35.845-23.615
			c18.556-12.23,76.329-51.87,76.329-51.87s39.218-21.507,23.615-52.292c-15.603-30.785-23.194-40.484-23.194-40.484
			s-6.324-15.182-25.724-19.398c0,0-12.228-8.855-31.627,0c-0.711,0.324-1.477,0.688-2.292,1.085"/>
		
			<path style="fill:none;stroke:#302F71;stroke-width:1.4173;stroke-linecap:round;stroke-linejoin:round;stroke-miterlimit:10;" d="
			M426.072,515.314c0,0-6.707-4.309-20.399,4.079c-13.692,8.39-110.368,64.711-110.368,64.711s-28.727,12.595-13.917,45.395
			c0,0,14.708,28.49,18.645,41.421c3.938,12.931,6.794,32.866,26.169,30.489"/>
		
			<path style="fill:none;stroke:#302F71;stroke-width:2.8347;stroke-linecap:round;stroke-linejoin:round;stroke-miterlimit:10;" d="
			M316.1,671.762c-1.942-4.265-2.818-8.398-4.019-12.342c-3.009-9.879-14.243-31.644-14.243-31.644
			c-11.316-25.057,10.632-34.68,10.632-34.68s86.503-49.376,96.598-56.345"/>
		
			<path style="fill:none;stroke:#302F71;stroke-width:1.4173;stroke-linecap:round;stroke-linejoin:round;stroke-miterlimit:10;" d="
			M406.582,535.832c8.855-6.115,15.587-3.115,15.587-3.115s5.785,3.537,13.093,17.313l15.178,24.458c0,0,10.088,15.5,1.127,24.46
			c-10.121,10.119-119.494,81.81-119.494,81.81c-8.188,3.041-12.667-1.709-15.592-8.129"/>
		
			<path style="fill:none;stroke:#302F71;stroke-width:2.8347;stroke-linecap:round;stroke-linejoin:round;stroke-miterlimit:10;" d="
			M405.067,536.75c0,0,7.208-4.88,16.416,9.343c7.888,12.183,19.115,30.083,19.115,30.083s10.121,11.808,0,19.398
			c-10.121,7.591-111.33,76.188-111.33,76.188s-9.895,7.126-13.169,0"/>
		<path style="fill:none;stroke:#302F71;stroke-width:1.4173;stroke-miterlimit:10;" d="M460.926,636.709
			c4.217,4.217-8.434,8.856-8.434,8.856s-52.78,18.53-84.169,29.55"/>
		<path style="fill:none;stroke:#302F71;stroke-width:2.8347;stroke-miterlimit:10;" d="M409.128,648.141
			c18.845-5.737,34.086-10.377,34.086-10.377s13.495-5.271,17.712-1.054"/>
		<path style="fill:none;stroke:#302F71;stroke-width:2.8347;stroke-miterlimit:10;" d="M346.392,699.636l111.372-38.468
			c0,0,7.379-3.584,7.379-10.542c0-8.677-6.683-17.873-3.357-12.44"/>
		<path style="fill:none;stroke:#302F71;stroke-width:1.4173;stroke-miterlimit:10;" d="M146.756,692.796
			c-2.811,8.153,10.965,6.748,10.965,6.748l114.703-1.476"/>
		<path style="fill:none;stroke:#302F71;stroke-width:2.8347;stroke-miterlimit:10;" d="M240.999,682.678
			c-32.529,0.981-76.532,2.246-76.532,2.246s-17.995-1.035-17.995,9.277"/>
		<path style="fill:none;stroke:#302F71;stroke-width:2.8347;stroke-miterlimit:10;" d="M146.472,694.201v14.058
			c0,0,0.28,6.186,7.312,6.186c7.029,0,115.787,0,115.787,0"/>
		<path style="fill:none;stroke:#302F71;stroke-width:1.4173;stroke-miterlimit:10;" d="M195.602,798.773
			c0.111,2.021,0.991,4.015,3.445,5.353c6.959,3.795,15.393,0.633,22.14-8.012c6.747-8.645,81.334-90.643,81.334-90.643"/>
		<path style="fill:none;stroke:#302F71;stroke-width:2.8347;stroke-miterlimit:10;" d="M282.032,701.109l-84.251,90.155
			c0,0-2.385,3.799-2.18,7.509"/>
		<path style="fill:none;stroke:#302F71;stroke-width:2.8347;stroke-miterlimit:10;" d="M195.588,798.356v13.994
			c0,0,2.336,7.801,11.05,7.801c8.714,0,17.147-8.716,17.147-8.716l80.151-89.269c0,0,3.201,0.471,8.393-1.507l85.131,51.84
			c0,0,12.229,8.223,20.03,5.482c7.802-2.741,6.959-10.331,6.959-10.331l0.023-11.374"/>
		<path style="fill:none;stroke:#302F71;stroke-width:2.8347;stroke-miterlimit:10;" d="M397.626,772.709
			c-1.75,1.378-5.357,5.29-5.357,14.128c0,10.511,8.75,13.916,8.75,13.916h13.52c0,0,11.244-0.186,11.244-14.333
			c0-9.146-4.34-10.803-4.34-10.803"/>
		<path style="fill:none;stroke:#302F71;stroke-width:2.634;stroke-miterlimit:10;" d="M197.327,813.786c0,0-5.34,3.911-5.34,12.01
			c0,8.099,5.222,13.323,7.445,13.323h20.525"/>
		<path style="fill:none;stroke:#302F71;stroke-width:2.697;stroke-miterlimit:10;" d="M159.888,714.445
			c0,0-1.676,15.819,5.727,15.443h14.316c0,0,11.26-1.791,11.26-15.443"/>
		<path style="fill:none;stroke:#302F71;stroke-width:1.4173;stroke-miterlimit:10;" d="M460.321,685.898
			c-12.384,1.865-19.874-12.874-10.827-21.92"/>
		<path style="fill:none;stroke:#302F71;stroke-width:2.8347;stroke-miterlimit:10;" d="M460.129,659.644
			c0,0,8.534,0.612,10.643,8.203c2.108,7.59-0.607,16.155-11.993,17.842"/>
		<path style="fill:none;stroke:#302F71;stroke-width:2.8347;stroke-miterlimit:10;" d="M460.021,685.568
			c-6.75,1.654-22.208,0.987-20.697-17.442"/>
		<path style="fill:none;stroke:#302F71;stroke-width:1.4173;stroke-miterlimit:10;" d="M568.774,714.219
			c11.444,1.724,18.709-10.733,12.605-19.773"/>
		<path style="fill:none;stroke:#302F71;stroke-width:2.8347;stroke-miterlimit:10;" d="M568.967,687.964
			c0,0-8.534,0.612-10.643,8.203c-2.108,7.59,0.606,16.155,11.993,17.842"/>
		<path style="fill:none;stroke:#302F71;stroke-width:2.8347;stroke-miterlimit:10;" d="M569.075,713.888
			c6.75,1.654,22.208,0.987,20.697-17.442"/>
		<path style="fill:none;stroke:#302F71;stroke-width:1.3528;stroke-miterlimit:10;" d="M570.376,671.5
			c-3.219,5.02,10.131,6.85,10.131,6.85l112.452,13.825"/>
		<path style="fill:none;stroke:#302F71;stroke-width:2.8347;stroke-miterlimit:10;" d="M698.812,677.506l-110.907-8.76
			c0,0-14.31-2.267-17.528,2.754"/>
		<path style="fill:none;stroke:#302F71;stroke-width:2.8347;stroke-miterlimit:10;" d="M570.576,671.222
			c0,0-3.098,6.625-1.347,14.774c1.462,6.803,9.461,8.723,9.461,8.723l112.746,13.105c0,0,0.917,1.338,2.667,1.973"/>
		<path style="fill:none;stroke:#302F71;stroke-width:2.8347;stroke-miterlimit:10;" d="M758.989,676.178l111.302-20.914
			c0,0,14.497-3.457,18.983,3.906c4.487,7.364-9.27,8.935-9.27,8.935l-112.371,23.064"/>
		<path style="fill:none;stroke:#302F71;stroke-width:2.8347;stroke-miterlimit:10;" d="M890.166,661.918l2.69,12.298
			c0,0,1.047,6.103-5.822,7.604c-6.866,1.502-112.964,24.705-112.964,24.705"/>
		
			<path style="fill:none;stroke:#302F71;stroke-width:1.3916;stroke-linecap:round;stroke-linejoin:round;stroke-miterlimit:10;" d="
			M864.129,772.757c0.441,2.104,0.093,4.397-2.153,6.345c-5.986,5.194-14.901,3.907-23.34-3.097
			c-8.438-7.003-97.001-65.552-97.001-65.552"/>
		<path style="fill:none;stroke:#302F71;stroke-width:2.8347;stroke-miterlimit:10;" d="M762.054,698.217l98.411,68.05
			c0,0,2.928,2.984,3.664,6.49"/>
		
			<path style="fill:none;stroke:#302F71;stroke-width:2.8347;stroke-linecap:round;stroke-linejoin:round;stroke-miterlimit:10;" d="
			M864.122,772.726l2.99,13.671c0,0-0.615,8.12-9.128,9.981c-8.513,1.862-18.614-4.851-18.614-4.851s-82.985-55.965-97.19-65.545"/>
		<path style="fill:none;stroke:#302F71;stroke-width:1.3528;stroke-miterlimit:10;" d="M632.242,780.252
			c0.486,2.111,2.014,4.217,5.489,5.803c10.551,4.816,23.2-9.39,23.2-9.39l65.036-65.808"/>
		<path style="fill:none;stroke:#302F71;stroke-width:2.8347;stroke-miterlimit:10;" d="M700.982,703.058
			c-9.085,9.383-66.404,68.578-66.404,68.578s-3.326,4.318-2.336,8.616"/>
		<path style="fill:none;stroke:#302F71;stroke-width:2.8347;stroke-miterlimit:10;" d="M632.058,779.008l1.928,12.615
			c0,0,0.798,7.595,9.005,8.606c8.206,1.012,18.398-9.634,18.398-9.634s53.616-52.895,65.252-64.374"/>
		<path style="fill:none;stroke:#302F71;stroke-width:2.8347;stroke-miterlimit:10;" d="M880.923,683.157
			c0,0,4.725,11.735-2.881,16.438l-15.449,3.379c0,0-13.239,1.373-15.451-12.429"/>
		
			<path style="fill:none;stroke:#302F71;stroke-width:1.3916;stroke-linecap:round;stroke-linejoin:round;stroke-miterlimit:10;" d="
			M1041.167,554.319c-0.263,5.038-10.453,4.942-10.453,4.942s-79.627,6.329-103.35,8.215"/>
		<path style="fill:none;stroke:#302F71;stroke-width:2.7253;stroke-miterlimit:10;" d="M930.069,551.633
			c29.339-1.822,92.893-5.771,92.893-5.771s14.24-1.587,17.65,5.968c0.427,0.944,0.592,1.769,0.555,2.489"/>
		<path style="fill:none;stroke:#302F71;stroke-width:2.7253;stroke-miterlimit:10;" d="M1041.139,554.557l1.115,12.052
			c0,0,0.278,5.946-6.453,6.568c-6.104,0.565-94.413,8.729-110.728,10.238"/>
		
			<path style="fill:none;stroke:#302F71;stroke-width:1.3916;stroke-linecap:round;stroke-linejoin:round;stroke-miterlimit:10;" d="
			M1003.21,657.24c0.172,2.06-0.432,4.206-2.804,5.799c-6.325,4.249-14.679,1.968-21.904-5.711
			c-4.393-4.671-34.825-31.04-57.991-50.982"/>
		<path style="fill:none;stroke:#302F71;stroke-width:2.7253;stroke-miterlimit:10;" d="M925.746,583.988
			c4.017,3.581,8.034,7.161,12.051,10.742c6.306,5.622,12.612,11.244,18.918,16.866c6.856,6.111,13.711,12.223,20.566,18.334
			c5.258,4.688,10.517,9.375,15.774,14.062c2.391,2.132,4.782,4.264,7.174,6.396c0.083,0.075,0.167,0.149,0.251,0.224
			c0,0,2.442,3.194,2.729,6.627"/>
		<path style="fill:none;stroke:#302F71;stroke-width:2.7253;stroke-miterlimit:10;" d="M1003.206,657.209l1.24,13.396
			c0,0-1.547,7.675-9.888,8.446c-8.343,0.772-17.188-6.827-17.188-6.827s-37.321-32.5-63.017-54.875"/>
		
			<path style="fill:none;stroke:#302F71;stroke-width:1.3916;stroke-linecap:round;stroke-linejoin:round;stroke-miterlimit:10;" d="
			M987.706,699.326c0,0,8.332-10.862-1.429-21.758"/>
		<path style="fill:none;stroke:#302F71;stroke-width:2.7253;stroke-miterlimit:10;" d="M1004.081,671.8
			c0,0,5.874,3.52,6.646,11.865c0.771,8.344-4.11,14.223-6.402,14.435l-16.618,1.599"/>
		<path style="fill:none;stroke:#302F71;stroke-width:2.7253;stroke-miterlimit:10;" d="M988.153,699.636
			c0,0-12.933,2.428-15.679-12.733c-2.538-14.015,4.093-15.377,4.093-15.377"/>
		<path style="fill:none;stroke:#302F71;stroke-width:2.7253;stroke-miterlimit:10;" d="M1029.812,573.731
			c0,0,3.123,11.754-4.69,15.343l-15.14,1.4c0,0-12.712,0-13.274-13.683"/>
		
			<path style="fill:none;stroke:#302F71;stroke-width:1.4173;stroke-linecap:round;stroke-linejoin:round;stroke-miterlimit:10;" d="
			M316.1,668.248c0,0,29.032-53.257,123.224-94.101"/>
		
			<path style="fill:none;stroke:#302F71;stroke-width:2.8347;stroke-linecap:round;stroke-linejoin:round;stroke-miterlimit:10;" d="
			M480.592,546.164c-0.63-2.52-5.452-3.978-9.031-7.558"/>
		
			<path style="fill:none;stroke:#302F71;stroke-width:1.4173;stroke-linecap:round;stroke-linejoin:round;stroke-miterlimit:10;" d="
			M461.818,563.52c0,0,20.882-8.922,18.773-17.355"/>
		
			<path style="fill:none;stroke:#302F71;stroke-width:2.8347;stroke-linecap:round;stroke-linejoin:round;stroke-miterlimit:10;" d="
			M480.592,546.164l4.428,23.615c0,0,5.021,14.338-14.885,26.778"/>
		
			<path style="fill:none;stroke:#302F71;stroke-width:2.8347;stroke-linecap:round;stroke-linejoin:round;stroke-miterlimit:10;" d="
			M265.222,90.321c0.56,1.203,1.059,2.467,1.361,3.656c1.939,7.626,4.782,11.375,4.782,15.124c0,3.748-0.773,7.109,0.519,8.402
			c0,0,4.8,4.756,4.024,12.254c-0.775,7.497-2.185,12.564-2.185,16.733c0,4.169,1.648,16.093-4.071,18.227
			c-5.281,1.969-25.131,5.036-34.775-7.204"/>
		
			<path style="fill:none;stroke:#302F71;stroke-width:2.8347;stroke-linecap:round;stroke-linejoin:round;stroke-miterlimit:10;" d="
			M242.756,246.22c1.169-12.371,8.874-28.439,5.083-41.077c-4.653-15.512-12.409-21.199-10.761-33.608
			c1.648-12.409-11.73-32.574-9.921-45.983c0.709-5.249,0-14.253,0-21.492c0-7.238,5.301-10.729,8.144-14.607
			c1.187-1.618,1.63-3.415,1.745-4.961"/>
		
			<path style="fill:none;stroke:#302F71;stroke-width:2.8347;stroke-linecap:round;stroke-linejoin:round;stroke-miterlimit:10;" d="
			M222.142,249.064c-1.494-2.126-3.104-4.271-4.808-6.435c-12.409-15.77-10.342-25.078-12.668-42.657
			c-2.327-17.58-23.784-22.492-25.594-42.398c-1.811-19.907,4.137-29.989,4.137-51.964s12.926-33.092,25.594-38.521
			c12.668-5.429,31.799,0,31.799,0s17.294-2.413,27.145,13.572c7.825,12.699,5.172,27.533,10.342,39.942
			c5.17,12.409,5.428,24.561,2.584,33.867c-0.013,0.04-0.474,4.833-0.485,4.873"/>
		
			<path style="fill:none;stroke:#302F71;stroke-width:2.8347;stroke-linecap:round;stroke-linejoin:round;stroke-miterlimit:10;" d="
			M255.435,166.529c0,0-3.519,18.478-6.557,25.688c-3.037,7.21-1.921,10.202-1.921,10.202"/>
		<path style="fill:none;stroke:#302F71;stroke-width:2.901;stroke-linecap:round;stroke-linejoin:round;stroke-miterlimit:10;" d="
			M186.961,174.72c0,0-13.354,10.836-20.21,15.348c-6.857,4.513-15.032,12.209-16.353,18.58c-1.319,6.37-5.011,26.277-8.967,34.771
			c-3.956,8.494-7.386,23.623-7.386,30.79c0,7.167-6.065,27.338-6.065,35.301c0,7.963-5.539,29.063-5.539,29.063"/>
		
			<path style="fill:none;stroke:#302F71;stroke-width:1.3916;stroke-linecap:round;stroke-linejoin:round;stroke-miterlimit:10;" d="
			M154.701,239.947c1.634,3.646,3.862,7.13,6.88,10.148"/>
		
			<path style="fill:none;stroke:#302F71;stroke-width:2.8347;stroke-linecap:round;stroke-linejoin:round;stroke-miterlimit:10;" d="
			M150.608,207.824c0,0-3.121,17.409,3.486,32.155"/>
		<path style="fill:none;stroke:#302F71;stroke-width:1.246;stroke-linecap:round;stroke-linejoin:round;stroke-miterlimit:10;" d="
			M169.077,202.316c0,0,30.943,12.134,35.621,40.364"/>
		
			<path style="fill:none;stroke:#302F71;stroke-width:2.8347;stroke-linecap:round;stroke-linejoin:round;stroke-miterlimit:10;" d="
			M187.435,271.496c-11.941,1.518-23.164-0.429-23.164-0.429s-0.581-6.205-4.266-12.409c-3.684-6.204-5.538-17.784-5.538-17.784"/>
		
			<path style="fill:none;stroke:#302F71;stroke-width:2.8347;stroke-linecap:round;stroke-linejoin:round;stroke-miterlimit:10;" d="
			M206.23,236.992c0,0-1.473,10.613,0,14.491c0.409,1.079,0.796,2.413,1.139,3.776"/>
		
			<path style="fill:none;stroke:#302F71;stroke-width:1.3916;stroke-linecap:round;stroke-linejoin:round;stroke-miterlimit:10;" d="
			M159.466,257.678c0,0,21.958,5.031,47.701-3.199"/>
		
			<path style="fill:none;stroke:#302F71;stroke-width:2.8347;stroke-linecap:round;stroke-linejoin:round;stroke-miterlimit:10;" d="
			M167.965,271.552c0,0,2.588,6.535,6.822,15.073"/>
		
			<path style="fill:none;stroke:#302F71;stroke-width:1.3916;stroke-linecap:round;stroke-linejoin:round;stroke-miterlimit:10;" d="
			M205.875,250.126c0,0-7.841-8.402-27.145-10.212"/>
		
			<path style="fill:none;stroke:#302F71;stroke-width:1.3916;stroke-linecap:round;stroke-linejoin:round;stroke-miterlimit:10;" d="
			M205.631,247.925c0,0-5.92-12.534-22.314-19.385"/>
		
			<path style="fill:none;stroke:#302F71;stroke-width:2.8347;stroke-linecap:round;stroke-linejoin:round;stroke-miterlimit:10;" d="
			M237.52,85.013c0,0,8.723,8.167,27.5,5.642"/>
		
			<path style="fill:none;stroke:#302F71;stroke-width:1.3916;stroke-linecap:round;stroke-linejoin:round;stroke-miterlimit:10;" d="
			M236.93,83.826c0,0-3.025-5.49,0-10.144c3.025-4.653,3.98-5.544,2.672-6.853"/>
		<g>
			<path style="fill:#302F71;" d="M236.746,121.775c1.131-1.325,2.404-2.505,3.794-3.565c1.385-1.062,2.875-2.023,4.492-2.779
				c1.611-0.758,3.332-1.388,5.154-1.691c1.815-0.303,3.736-0.266,5.537,0.243c0.756,0.213,1.194,0.999,0.982,1.754
				c-0.193,0.683-0.854,1.107-1.537,1.024l-0.022-0.003c-1.525-0.184-3.045-0.243-4.596-0.12c-1.549,0.118-3.126,0.413-4.664,0.92
				c-1.534,0.509-3.055,1.152-4.523,1.929c-1.458,0.787-2.907,1.66-4.249,2.663l-0.009,0.007c-0.117,0.087-0.282,0.063-0.369-0.053
				C236.66,122.003,236.667,121.866,236.746,121.775z"/>
		</g>
		<g>
			<path style="fill:#302F71;" d="M271.217,107.237c-0.487,0.837-1.054,1.465-1.634,2.047c-0.578,0.582-1.207,1.058-1.811,1.548
				c-1.214,0.986-2.368,1.88-3.398,2.912l-0.076,0.076c-0.318,0.319-0.835,0.319-1.153,0.001c-0.181-0.18-0.259-0.428-0.235-0.664
				c0.109-1.028,0.602-1.915,1.145-2.672c0.562-0.754,1.227-1.384,1.934-1.929c0.711-0.539,1.455-1.019,2.287-1.332
				c0.832-0.312,1.709-0.528,2.706-0.457c0.168,0.012,0.295,0.158,0.283,0.327c-0.003,0.047-0.018,0.092-0.04,0.131L271.217,107.237
				z"/>
		</g>
		
			<path style="fill:none;stroke:#302F71;stroke-width:1.3916;stroke-linecap:round;stroke-linejoin:round;stroke-miterlimit:10;" d="
			M263.642,113.451c0,0-2.83,3.25,0,6.669c3.414,4.125,8.92,7.808,10.934,10.949c1.106,1.725,0.839,3.608-0.657,4.562
			c-1.832,1.168-2.838,1.759-3.318,2.615"/>
		<g>
			<path style="fill:#302F71;" d="M239.554,125.804c0.708-0.383,1.363-0.596,2.088-0.757c0.713-0.151,1.473-0.204,2.173-0.162
				c1.311,0.058,2.519,0.071,3.697-0.112c1.17-0.179,2.274-0.538,3.227-1.115c0.956-0.571,1.759-1.352,2.403-2.272
				c0.449-0.642,1.333-0.798,1.975-0.349c0.643,0.449,0.798,1.334,0.349,1.976c-0.018,0.027-0.038,0.053-0.059,0.078l-0.009,0.01
				c-0.93,1.146-2.108,2.134-3.442,2.799c-1.331,0.675-2.781,1.016-4.192,1.125c-1.407,0.115-2.811-0.014-4.087-0.163
				c-0.595-0.079-1.145-0.078-1.713-0.004c-0.551,0.073-1.154,0.237-1.607,0.441l-0.055,0.025c-0.427,0.191-0.928,0-1.119-0.427
				C239.001,126.489,239.168,126.013,239.554,125.804z"/>
		</g>
		
			<path style="fill:none;stroke:#302F71;stroke-width:2.8347;stroke-linecap:round;stroke-linejoin:round;stroke-miterlimit:10;" d="
			M263.694,119.118c0,0,1.311-0.607,2.733-0.607c1.42,0,4.329-0.983,4.717-3.451"/>
		
			<path style="fill:none;stroke:#302F71;stroke-width:1.3916;stroke-linecap:round;stroke-linejoin:round;stroke-miterlimit:10;" d="
			M254.27,149.436c0,0,2.617,0.952,5.397-0.135c2.799-1.095,6.107-0.291,10.082-1.551c0,0,0.81-0.744,1.778-1.261
			c0.97-0.516,0.841-0.743,0.841-0.743"/>
		
			<path style="fill:none;stroke:#302F71;stroke-width:1.3916;stroke-linecap:round;stroke-linejoin:round;stroke-miterlimit:10;" d="
			M257.896,149.41c0,0,5.3,6.084,13.082,2.412c1.192-0.562,3.036-1.874,1.033-5.17"/>
		
			<path style="fill:none;stroke:#302F71;stroke-width:1.3916;stroke-linecap:round;stroke-linejoin:round;stroke-miterlimit:10;" d="
			M256.887,149.646c2.417-1.186,4.778-2.494,7.317-3.409c2.079-0.75,4.32-0.449,6.297-1.716c1.051-0.674,2.314-0.763,2.435,0.909"/>
		
			<path style="fill:none;stroke:#302F71;stroke-width:2.8347;stroke-linecap:round;stroke-linejoin:round;stroke-miterlimit:10;" d="
			M252.323,180.777c0,0,2.12,32.38,12.973,47.763c2.439,3.457,4.227,7.189,5.483,10.949"/>
		
			<path style="fill:none;stroke:#302F71;stroke-width:2.8347;stroke-linecap:round;stroke-linejoin:round;stroke-miterlimit:10;" d="
			M422.205,31.263c0,0-6.194-0.367-8.522,9.586c-1.523,6.519-7.429,16.199-17.387,19.742"/>
		
			<path style="fill:none;stroke:#302F71;stroke-width:2.8347;stroke-linecap:round;stroke-linejoin:round;stroke-miterlimit:10;" d="
			M422.205,30.763c1.317,0.901,4.04,3.778,5.813,4.543c6.592,2.844,11.261,5.802,12.553,11.231c0,0,5.56-4.267,0-13.314
			c-5.56-9.048-11.245-21.07-27.921-23.268c-16.675-2.197-20.94,2.068-20.94,2.068s-12.838-2.733-22.273,11.615
			c-9.435,14.348-10.679,31.081-5.249,41.422c5.429,10.341,16.534,18.575,14.854,24.133"/>
		
			<path style="fill:none;stroke:#302F71;stroke-width:1.3916;stroke-linecap:round;stroke-linejoin:round;stroke-miterlimit:10;" d="
			M414.854,21.513c2.048,3.859,5.011,8.579,7.352,9.25"/>
		
			<path style="fill:none;stroke:#302F71;stroke-width:2.8347;stroke-linecap:round;stroke-linejoin:round;stroke-miterlimit:10;" d="
			M396.387,60.557c0,0-5.194,7.05-2.092,13.9c0,0-3.748-0.905-6.463-5.817c-2.714-4.912-13.146-2.176-13.146-2.176"/>
		
			<path style="fill:none;stroke:#302F71;stroke-width:2.8347;stroke-linecap:round;stroke-linejoin:round;stroke-miterlimit:10;" d="
			M389.253,79.499c0,0-0.098,10.333,8.434,15.246c8.531,4.913,22.991,12.709,32.833,11.602c10.534-1.186,12.558-4.974,11.429-10.905
			c-1.088-5.714,2.529-21.37,1.351-27.316c-1.179-5.946-3.503-9.567-3.503-9.567s-1.127-2.293,0.904-6.722
			c1.423-3.102-0.459-6.414-0.459-6.414"/>
		
			<path style="fill:none;stroke:#302F71;stroke-width:1.3916;stroke-linecap:round;stroke-linejoin:round;stroke-miterlimit:10;" d="
			M374.26,67.508c0,0,3.488,9.923,6.85,11.991c3.361,2.068,5.235,2.908,8.143,0"/>
		<g>
			<path style="fill:#302F71;" d="M410.273,60.602c0.993-0.97,2.151-1.82,3.386-2.504c0.603-0.347,1.277-0.669,1.918-0.933
				c0.705-0.291,1.379-0.492,2.077-0.678c1.387-0.368,2.772-0.572,4.137-0.717c1.365-0.143,2.72-0.192,4.073-0.168
				c0.786,0.013,1.412,0.661,1.398,1.447c-0.012,0.692-0.516,1.261-1.172,1.377l-0.012,0.001c-2.686,0.479-5.386,0.494-7.933,0.739
				c-0.632,0.055-1.278,0.157-1.87,0.251c-0.654,0.127-1.255,0.264-1.904,0.43c-1.271,0.332-2.53,0.723-3.821,1.201
				c-0.14,0.051-0.293-0.019-0.345-0.158c-0.038-0.102-0.01-0.213,0.065-0.285L410.273,60.602z"/>
		</g>
		<g>
			<path style="fill:#302F71;" d="M441.147,50.776c-0.691,0.636-1.365,1.07-2.021,1.469c-0.65,0.401-1.305,0.697-1.908,1.042
				c-0.607,0.337-1.162,0.691-1.668,1.075c-0.52,0.38-0.948,0.805-1.423,1.36l-0.071,0.084c-0.301,0.352-0.83,0.393-1.181,0.092
				c-0.189-0.161-0.288-0.391-0.293-0.62c-0.018-1.001,0.415-1.995,1.02-2.777c0.616-0.783,1.397-1.376,2.212-1.804
				c0.819-0.429,1.674-0.733,2.564-0.822c0.888-0.084,1.791-0.032,2.7,0.372c0.157,0.07,0.229,0.255,0.159,0.413
				c-0.019,0.04-0.043,0.075-0.073,0.103L441.147,50.776z"/>
		</g>
		
			<path style="fill:none;stroke:#302F71;stroke-width:1.3802;stroke-linecap:round;stroke-linejoin:round;stroke-miterlimit:10;" d="
			M433.583,54.794c0,0-3.23,3.143,0.182,7.532c4.176,5.371,9.133,12.851,8.672,15.503c-0.461,2.655-3.233,1.486-4.095,2.546"/>
		
			<path style="fill:none;stroke:#302F71;stroke-width:1.3916;stroke-linecap:round;stroke-linejoin:round;stroke-miterlimit:10;" d="
			M263.642,139.994c0,0-3.587-0.47-3.531-3.564"/>
		
			<path style="fill:none;stroke:#302F71;stroke-width:1.3916;stroke-linecap:round;stroke-linejoin:round;stroke-miterlimit:10;" d="
			M436.436,79.454c-1.676-0.028-3.315,0.782-4.618,1.771c-1.203,0.913-2.954,1.296-4.232,0.252
			c-1.528-1.249-1.597-2.945-0.399-4.461"/>
		
			<path style="fill:none;stroke:#302F71;stroke-width:1.3916;stroke-linecap:round;stroke-linejoin:round;stroke-miterlimit:10;" d="
			M423.499,91.395c0,0,1.271,0.868,4.5-0.101c0.445-0.134,3.257-1.241,4.524-1.493c1.661-0.33,4.364-0.315,4.364-0.315
			s1.064-1.147,2.083-1.729c1.018-0.582,2.416-1.351,2.416-1.351"/>
		
			<path style="fill:none;stroke:#302F71;stroke-width:1.3916;stroke-linecap:round;stroke-linejoin:round;stroke-miterlimit:10;" d="
			M426.869,90.965c0,0,0.075,0.124,0.229,0.328c0.885,1.167,4.357,4.941,10.999,2.815c3.636-1.163,2.339-6.544,2.339-6.544"/>
		
			<path style="fill:none;stroke:#302F71;stroke-width:1.3916;stroke-linecap:round;stroke-linejoin:round;stroke-miterlimit:10;" d="
			M426.384,91.155c0,0,2.902-3.874,9.882-3.874c0,0,1.921-1.923,4.296-0.832"/>
		
			<path style="fill:none;stroke:#302F71;stroke-width:2.6154;stroke-linecap:round;stroke-linejoin:round;stroke-miterlimit:10;" d="
			M411.722,66.186c5.063-1.297,9.866-7.464,13.658-2.787"/>
		
			<path style="fill:none;stroke:#302F71;stroke-width:2.6154;stroke-linecap:round;stroke-linejoin:round;stroke-miterlimit:10;" d="
			M440.054,56.332c-3.685-2.288-6.462,3.513-6.462,3.513s0.011-0.004,0.032-0.011"/>
		
			<path style="fill:none;stroke:#302F71;stroke-width:1.3916;stroke-linecap:round;stroke-linejoin:round;stroke-miterlimit:10;" d="
			M404.246,137.539l16.288-20.588c0,0,14.536-1.904,19.319,4.947"/>
		
			<path style="fill:none;stroke:#302F71;stroke-width:2.8347;stroke-linecap:round;stroke-linejoin:round;stroke-miterlimit:10;" d="
			M383.099,86.796c0,0-2.122,7.311,0.465,17.651c2.587,10.341,20.683,33.092,20.683,33.092"/>
		
			<path style="fill:none;stroke:#302F71;stroke-width:2.8347;stroke-linecap:round;stroke-linejoin:round;stroke-miterlimit:10;" d="
			M420.405,116.598c-39.136-6.001-37.122-29.803-37.122-29.803"/>
		
			<path style="fill:none;stroke:#302F71;stroke-width:2.8347;stroke-linecap:round;stroke-linejoin:round;stroke-miterlimit:10;" d="
			M420.405,116.081c0,0,4.766-4.773,6.188-9.599"/>
		
			<path style="fill:none;stroke:#302F71;stroke-width:2.8347;stroke-linecap:round;stroke-linejoin:round;stroke-miterlimit:10;" d="
			M382.712,87.267c-3.904,3.198-10.689,8.26-16.208,9.812c-8.273,2.327-35.419,19.647-42.399,37.486c0,0-1.186,1.944-1.668,5.386"/>
		
			<path style="fill:none;stroke:#302F71;stroke-width:2.8347;stroke-linecap:round;stroke-linejoin:round;stroke-miterlimit:10;" d="
			M443.864,72.57c3.834-0.519,25.604-3.345,30.315-1.343c5.172,2.197,10.471,13.96,19.002,22.492
			c8.531,8.532,15.64,13.055,20.94,18.355c5.301,5.299,2.195,7.625,8.789,14.219c6.594,6.593,8.273,6.463,10.601,12.926
			c2.327,6.463,4.976,5.526,6.818,8.726c1.842,3.199,4.944,1.357,4.944,9.889c0,6.975,0,25.611,0,32.181"/>
		
			<path style="fill:none;stroke:#302F71;stroke-width:2.8347;stroke-linecap:round;stroke-linejoin:round;stroke-miterlimit:10;" d="
			M489.208,128.674c0.564,3.305,1.161,6.318,1.774,8.865c1.665,6.911,8.883,40.326,11.97,54.657"/>
		
			<path style="fill:none;stroke:#302F71;stroke-width:1.4545;stroke-linecap:round;stroke-linejoin:round;stroke-miterlimit:10;" d="
			M480.125,76.29c0,0,4.847,9.553,5.816,23.534c0.69,9.958,1.873,20.848,3.267,29.785"/>
		
			<path style="fill:none;stroke:#302F71;stroke-width:2.8347;stroke-linecap:round;stroke-linejoin:round;stroke-miterlimit:10;" d="
			M496.404,161.949c0,0,9.314,2.864,9.314,6.548c0,3.684,2.035,4.168,4.071,6.205c2.036,2.036,1.552,3.878,1.552,7.756
			c0,2.174,0.016,6.726,0.029,10.306"/>
		
			<polyline style="fill:none;stroke:#302F71;stroke-width:1.3916;stroke-linecap:round;stroke-linejoin:round;stroke-miterlimit:10;" points="
			441.475,89.802 457.116,107.55 450.912,115.434 		"/>
		
			<path style="fill:none;stroke:#302F71;stroke-width:1.3916;stroke-linecap:round;stroke-linejoin:round;stroke-miterlimit:10;" d="
			M437.333,110.484c0,0,12.978,7.06,25.601,5.597c0,0,10.549,58.729,14.102,78.511"/>
		
			<path style="fill:none;stroke:#302F71;stroke-width:2.8347;stroke-linecap:round;stroke-linejoin:round;stroke-miterlimit:10;" d="
			M434.27,105.74c0,0,25.94,66.594,34.793,89.322"/>
		
			<polyline style="fill:none;stroke:#302F71;stroke-width:1.3916;stroke-linecap:round;stroke-linejoin:round;stroke-miterlimit:10;" points="
			414.17,125.552 421.568,137.539 426.384,182.651 		"/>
		
			<path style="fill:none;stroke:#302F71;stroke-width:1.3916;stroke-linecap:round;stroke-linejoin:round;stroke-miterlimit:10;" d="
			M429.971,117.544v18.184c-3.49,3.49-8.402,1.81-8.402,1.81"/>
		
			<path style="fill:none;stroke:#302F71;stroke-width:1.3916;stroke-linecap:round;stroke-linejoin:round;stroke-miterlimit:10;" d="
			M450.63,196.277c-5.984-17.54-20.659-60.548-20.659-60.548"/>
		
			<path style="fill:none;stroke:#302F71;stroke-width:2.8347;stroke-linecap:round;stroke-linejoin:round;stroke-miterlimit:10;" d="
			M404.246,137.539c0,0,26.373,46.404,32.576,80.013"/>
		
			<path style="fill:none;stroke:#302F71;stroke-width:1.3916;stroke-linecap:round;stroke-linejoin:round;stroke-miterlimit:10;" d="
			M373.727,93.719c0,0-5.04,17.563,5.832,44.225l12.797,1.363"/>
		
			<path style="fill:none;stroke:#302F71;stroke-width:1.3916;stroke-linecap:round;stroke-linejoin:round;stroke-miterlimit:10;" d="
			M397.569,128.674c0,0-4.307,12.319-13.487,21.5c0,0,35.219,32.478,52.218,68.447"/>
		
			<path style="fill:none;stroke:#302F71;stroke-width:1.3916;stroke-linecap:round;stroke-linejoin:round;stroke-miterlimit:10;" d="
			M337.418,133.532c0,0,20.165,6.938,32.963,28.417"/>
		
			<path style="fill:none;stroke:#302F71;stroke-width:2.8347;stroke-linecap:round;stroke-linejoin:round;stroke-miterlimit:10;" d="
			M371.999,206.826c2.722,1.046,6.66,1.992,9.365,3.361c2.582,1.308,4.737,2.953,6.627,5.167c1.496,1.754,2.415,3.117,5.069,2.892
			c4.103-0.347,7.099-4.039,11.809-3.74c3.624,0.23,7.317,1.169,10.936,1.6c10.47,1.247,23.572,2.774,34.007,4.291"/>
		
			<path style="fill:none;stroke:#302F71;stroke-width:2.8347;stroke-linecap:round;stroke-linejoin:round;stroke-miterlimit:10;" d="
			M370.311,249.263c1.914,0.006,3.447,0.497,5.366,0.417c1.979-0.082,4.054-0.034,5.825,0.952c3.227,1.797,6.804,3.319,10.596,2.563
			c5.232-1.042,10.5-1.041,15.77-0.704c9.821,0.628,19.745,0.503,29.585,0.843c5.788,0.2,11.629,0.643,17.421,0.576"/>
		
			<path style="fill:none;stroke:#302F71;stroke-width:2.8347;stroke-linecap:round;stroke-linejoin:round;stroke-miterlimit:10;" d="
			M606.613,265.435c0.017,2.811-1.819,5.184-4.094,5.32l-140.163,8.223c-2.242,0.13-4.363-1.994-4.736-4.758l-9.647-71.348
			c-0.426-3.132,1.177-5.807,3.577-5.957l150.167-9.492c2.441-0.152,4.439,2.316,4.459,5.501L606.613,265.435z"/>
		
			<path style="fill:none;stroke:#302F71;stroke-width:1.3916;stroke-linecap:round;stroke-linejoin:round;stroke-miterlimit:10;" d="
			M602.14,261.134c0.037,2.425-1.68,4.472-3.834,4.587l-131.866,6.942c-2.097,0.11-4.066-1.718-4.396-4.091l-8.418-60.758
			c-0.372-2.646,1.138-4.907,3.358-5.038l139.949-8.333c2.285-0.135,4.179,1.954,4.225,4.657L602.14,261.134z"/>
		
			<path style="fill:none;stroke:#302F71;stroke-width:2.8347;stroke-linecap:round;stroke-linejoin:round;stroke-miterlimit:10;" d="
			M607.325,279.883c0.109,1.455-0.818,2.689-2.069,2.754l-143.228,8.416c-1.17,0.061-2.186-1.032-2.27-2.439l-0.39-6.539
			c-0.082-1.405,0.797-2.596,1.966-2.661l143.029-8.794c1.249-0.069,2.351,1.052,2.457,2.504L607.325,279.883z"/>
		<path style="fill:#302F71;" d="M421.845,61.625c-0.621,0.163-1.268,0.252-1.934,0.303c-0.042,0.005-0.084,0.008-0.127,0.012
			c-0.1,0.007-0.193,0.022-0.295,0.027c-0.123,0.032-0.247,0.054-0.371,0.082c-0.808,0.432-1.713,0.742-2.712,0.909
			c-0.005,0.149-0.02,0.297,0.002,0.452c0.234,1.712,1.718,2.921,3.31,2.703c1.591-0.22,2.691-1.785,2.455-3.497
			C422.123,62.254,421.999,61.93,421.845,61.625z"/>
		<path style="fill:#302F71;" d="M438.22,55.21c-0.341,0.163-0.695,0.252-1.061,0.303c-0.023,0.004-0.046,0.007-0.07,0.011
			c-0.055,0.007-0.105,0.023-0.162,0.027c-0.068,0.032-0.135,0.055-0.204,0.081c-0.442,0.432-0.941,0.743-1.489,0.909
			c-0.002,0.149-0.011,0.297,0.002,0.451c0.129,1.712,0.941,2.921,1.817,2.703c0.874-0.22,1.479-1.785,1.349-3.496
			C438.373,55.84,438.305,55.515,438.22,55.21z"/>
		
			<path style="fill:none;stroke:#302F71;stroke-width:2.8347;stroke-linecap:round;stroke-linejoin:round;stroke-miterlimit:10;" d="
			M744.011,51.515c0,0-3.774,5.346-4.56,11.635c0,0-0.893,5.45-1.94,7.441c-1.048,1.992-2.621,5.661-1.888,8.072
			c0.735,2.411-0.103,6.709-0.732,8.805c-0.629,2.096-2.305,7.651-0.629,16.247c1.678,8.595,4.514,19.286,4.514,22.221
			c0,2.936,2.194,8.701,9.951,9.539c7.757,0.838,37.474,3.249,46.121-23.951"/>
		
			<path style="fill:none;stroke:#302F71;stroke-width:2.8347;stroke-linecap:round;stroke-linejoin:round;stroke-miterlimit:10;" d="
			M809.223,90.017c0-3.95,8.686-20.472,10.887-26.447c2.202-5.974,0.734-10.9-0.419-15.303c-1.153-4.402-3.774-7.547-3.774-7.547
			c0-0.838,0.84-1.258,0.84-1.258c-1.938-1.939-5.66-1.677-5.66-1.677c-0.734-1.677-1.376-3.983-1.376-3.983
			c-3.833-3.833-10.26-2.936-10.26-2.936c0-0.523,1.879-1.886,1.879-1.886c-2.312-0.524-5.915,0.419-5.915,0.419
			c0.785,0,2.254-1.991,2.254-1.991c-2.095,0-10.588-1.992-16.876-3.459c-6.29-1.467-10.482,1.677-10.482,1.677
			c0.682-0.682-0.419-1.677-0.419-1.677c-0.629,1.887-7.023,2.725-12.369,5.45s-9.852,5.871-11.006,8.386
			c-1.153,2.516-2.096,6.813-2.096,6.813c0-1.153-1.153-2.096-1.153-2.096s0.209,0.733-0.942,4.926
			c-1.152,4.193,3.249,7.338,5.765,8.49c2.515,1.153,4.087,6.813,4.087,6.813s2.516,1.52,7.233-0.524
			c4.717-2.044,10.377-3.144,16.981-0.157c6.604,2.987,12.499,1.86,16.561-2.201c0,0,6.679-4.236,14.161-3.062"/>
		
			<path style="fill:none;stroke:#302F71;stroke-width:2.8347;stroke-linecap:round;stroke-linejoin:round;stroke-miterlimit:10;" d="
			M785.82,63.558c0,0,1.269,6.511-1.088,8.869c-2.358,2.358-4.561,10.062-1.415,13.207c3.145,3.145,5.347,5.975,4.087,10.062
			c-1.257,4.088-0.628,8.647-0.628,8.647l3.773-2.044c0,0,2.938-6.763,5.975-9.8c2.658-2.658,8.49-6.918,11.95-3.459
			c3.458,3.458-1.154,8.385-3.356,12.893c-2.201,4.507-8.123,12.316-12.158,8.281"/>
		
			<path style="fill:none;stroke:#302F71;stroke-width:1.3916;stroke-linecap:round;stroke-linejoin:round;stroke-miterlimit:10;" d="
			M796.157,97.479c0,0,1.415-0.053,2.83-2.097c0.881-1.272,1.81-2.49,3.166-3.289c1.174-0.692,2.455-1.28,3.798-0.581
			c2.223,1.158-0.495,4.705-1.515,5.709"/>
		
			<path style="fill:none;stroke:#302F71;stroke-width:1.3916;stroke-linecap:round;stroke-linejoin:round;stroke-miterlimit:10;" d="
			M799.231,95.04c0,0,3.32,0.08,3.32,2.019c0,1.939-1.049,3.669-3.669,4.822c-2.621,1.153-4.035,2.306-4.035,2.673"/>
		
			<path style="fill:none;stroke:#302F71;stroke-width:1.3916;stroke-linecap:round;stroke-linejoin:round;stroke-miterlimit:10;" d="
			M729.541,82.612c0,0,0.262-3.223,1.729-3.223c1.729,0,9.987,5.066,9.987,5.066s3.57,1.429,2.359,5.562
			c-1.472,5.023-4.302,4.988-6.884,2.536C733.692,89.662,729.147,86.542,729.541,82.612z"/>
		
			<path style="fill:none;stroke:#302F71;stroke-width:1.3916;stroke-linecap:round;stroke-linejoin:round;stroke-miterlimit:10;" d="
			M750.613,93.687c0,0-0.472-4.472,2.988-3.511c3.458,0.962,14.586,4.991,14.586,6.484c0,1.494,0.193,6.034-5.389,6.584
			C757.217,103.794,750.613,97.652,750.613,93.687z"/>
		
			<path style="fill:none;stroke:#302F71;stroke-width:1.3916;stroke-linecap:round;stroke-linejoin:round;stroke-miterlimit:10;" d="
			M743.867,89.25c0,0,6.021-1.666,6.725,2.621"/>
		
			<polyline style="fill:none;stroke:#302F71;stroke-width:1.3916;stroke-linecap:round;stroke-linejoin:round;stroke-miterlimit:10;" points="
			767.632,99.798 770.006,100.596 797.925,91.459 		"/>
		
			<polyline style="fill:none;stroke:#302F71;stroke-width:1.3916;stroke-linecap:round;stroke-linejoin:round;stroke-miterlimit:10;" points="
			729.517,80.798 728.433,80.222 737.254,71.095 		"/>
		<g>
			<path style="fill:#302F71;" d="M752.54,87.905c1.577-0.491,3.134-0.649,4.792-0.518c0.81,0.077,1.683,0.271,2.441,0.587
				c0.731,0.299,1.414,0.613,2.087,0.957c1.344,0.678,2.654,1.388,3.933,2.165c1.285,0.76,2.551,1.551,3.778,2.415
				c0.09,0.063,0.111,0.188,0.048,0.277c-0.052,0.073-0.144,0.101-0.226,0.074c-1.422-0.466-2.818-0.98-4.207-1.501
				c-1.397-0.502-2.77-1.049-4.143-1.558c-0.686-0.247-1.369-0.51-2.032-0.719c-0.629-0.206-1.222-0.312-1.888-0.365
				c-1.299-0.114-2.731,0.031-4.031,0.238l-0.069,0.011c-0.58,0.092-1.124-0.303-1.217-0.882
				C751.723,88.558,752.044,88.059,752.54,87.905z"/>
		</g>
		<g>
			<path style="fill:#302F71;" d="M743.998,85.336c-0.005,0.069-0.039-0.059-0.074-0.111c-0.034-0.072-0.075-0.151-0.124-0.23
				c-0.094-0.162-0.211-0.327-0.341-0.491c-0.261-0.33-0.58-0.653-0.931-0.96c-0.711-0.627-1.512-1.159-2.425-1.715
				c-0.953-0.594-1.858-1.249-2.689-2.008c-0.825-0.761-1.591-1.589-2.135-2.614c-0.051-0.096-0.014-0.216,0.082-0.267
				c0.073-0.039,0.158-0.027,0.218,0.021l0.022,0.018c0.801,0.656,1.731,1.189,2.638,1.688c0.919,0.49,1.861,0.941,2.809,1.35
				c1.002,0.411,2.07,0.974,2.999,1.74c0.465,0.391,0.908,0.835,1.284,1.372c0.188,0.269,0.355,0.561,0.497,0.882
				c0.138,0.354,0.25,0.609,0.29,1.187c0.038,0.586-0.405,1.091-0.991,1.129C744.542,86.366,744.036,85.922,743.998,85.336z"/>
		</g>
		
			<path style="fill:none;stroke:#302F71;stroke-width:2.8347;stroke-linecap:round;stroke-linejoin:round;stroke-miterlimit:10;" d="
			M754.389,93.687c0,0,1.742,0.266,2.83,1.354c1.014,1.015,2.233,3.034,6.987,2.535"/>
		
			<path style="fill:none;stroke:#302F71;stroke-width:2.8347;stroke-linecap:round;stroke-linejoin:round;stroke-miterlimit:10;" d="
			M737.254,85.267c0,0,2.355,4.908,7.805,4.908"/>
		
			<path style="fill:none;stroke:#302F71;stroke-width:1.3916;stroke-linecap:round;stroke-linejoin:round;stroke-miterlimit:10;" d="
			M746.002,86.521c0,0,0.973,4.058-2.135,7.166c-3.107,3.108-6.973,7.159-6.973,9.924c0,3.277,2.142,4.297,4.786,4.297
			c0,0,2.954-0.196,4.832,0.366c2.474,0.74,5.359,1.102,5.359-3.72"/>
		
			<path style="fill:none;stroke:#302F71;stroke-width:1.3916;stroke-linecap:round;stroke-linejoin:round;stroke-miterlimit:10;" d="
			M736.592,111.337c0,1.33,2.774,2.412,3.94,3.577c0,0,3.881,0.789,5.159,1.677c2.057,1.428,7.363,2.882,10.743,1.756"/>
		
			<path style="fill:none;stroke:#302F71;stroke-width:1.3502;stroke-linecap:round;stroke-linejoin:round;stroke-miterlimit:10;" d="
			M738.901,113.777c0,0-1.82,4.806,2.281,7.014c4.101,2.208,8.862,1.723,11.603-1.914"/>
		
			<path style="fill:none;stroke:#302F71;stroke-width:2.7731;stroke-linecap:round;stroke-linejoin:round;stroke-miterlimit:10;" d="
			M733.6,91.871c0,0-28.099,8.805-30.708,9.696c-2.607,0.891-3.208,1.119-4.613,6.875c-1.404,5.755,0.903,11.939-2.206,15.189
			c-3.11,3.25-7.022,7.128-8.227,10.691c-1.205,3.563-0.804,5.242-3.612,8.176c-2.093,2.186-2.945,5.153-4.302,7.786
			c-0.637,1.236-1.049,2.506-1.772,3.707c-0.777,1.289-1.444,2.345-1.931,3.744c-0.514,1.477-1.456,3.082-2.459,4.278"/>
		
			<path style="fill:none;stroke:#302F71;stroke-width:2.8347;stroke-linecap:round;stroke-linejoin:round;stroke-miterlimit:10;" d="
			M840.575,247.278c-5.052,4.88-10.148,9.662-15.234,14.593c-8.531,8.272-19.326,13.249-29.186,19.685
			c-4.203,2.744-8.854,6.562-13.719,7.957"/>
		
			<path style="fill:none;stroke:#302F71;stroke-width:2.8347;stroke-linecap:round;stroke-linejoin:round;stroke-miterlimit:10;" d="
			M861.611,175.581c-0.126,1.733-0.203,3.088-0.203,3.814c0,3.773-4.194,16.456-4.194,25.261c0,0.355-0.01,0.733-0.028,1.132"/>
		
			<path style="fill:none;stroke:#302F71;stroke-width:2.8347;stroke-linecap:round;stroke-linejoin:round;stroke-miterlimit:10;" d="
			M811.531,82.793c0,0,2.68,4.357,9.718,7.609c5.472,2.528,21.896,14.849,30.215,22.582"/>
		
			<path style="fill:none;stroke:#302F71;stroke-width:2.8347;stroke-linecap:round;stroke-linejoin:round;stroke-miterlimit:10;" d="
			M817.174,169.751c0,0-4.193,7.548-4.193,14.675c0,7.127-2.306,17.818-2.306,21.173c0,3.355-0.955,7.757-0.955,12.16
			c0,4.402,0,8.176,0,8.176c-8.424,6.185-16.174,12.526-23.876,19.569c-3.572,3.266-7.393,6.353-11.673,8.643
			c-1.82,0.974-3.602,1.218-5.408,1.927c-2.05,0.805-4.295,2.617-6.076,3.939"/>
		
			<path style="fill:none;stroke:#302F71;stroke-width:1.3916;stroke-linecap:round;stroke-linejoin:round;stroke-miterlimit:10;" d="
			M807.56,97.652c-0.568,0.96-2.401,49.668-5.514,62.875c-3.111,13.208-11.916,43.186-11.916,46.121
			c0,2.935-1.258,36.887-1.258,36.887"/>
		
			<path style="fill:none;stroke:#302F71;stroke-width:2.8347;stroke-linecap:round;stroke-linejoin:round;stroke-miterlimit:10;" d="
			M753.68,135.858c0,0,1.877,59.382-0.11,89.348"/>
		
			<path style="fill:none;stroke:#302F71;stroke-width:1.3916;stroke-linecap:round;stroke-linejoin:round;stroke-miterlimit:10;" d="
			M735.884,111.337l-5.081,16.697l5.656,3.774l-8.801,4.051c0,0,1.72,16.507,3.597,32.705"/>
		
			<path style="fill:none;stroke:#302F71;stroke-width:2.8347;stroke-linecap:round;stroke-linejoin:round;stroke-miterlimit:10;" d="
			M800.598,108.442c0,0-10.257,29.235-11.725,33.218c-1.469,3.983-9.224,24.737-8.176,39.831
			c1.047,15.094,3.562,64.568,3.562,64.568"/>
		
			<path style="fill:none;stroke:#302F71;stroke-width:1.3916;stroke-linecap:round;stroke-linejoin:round;stroke-miterlimit:10;" d="
			M761.148,135.644l5.083,15.03c0,0-8.175,31.236-8.175,42.137c0,10.901-0.997,50.942-0.997,50.942"/>
		
			<path style="fill:none;stroke:#302F71;stroke-width:1.3916;stroke-linecap:round;stroke-linejoin:round;stroke-miterlimit:10;" d="
			M776.182,133.268c0,0,9.768,7.281,11.02,13.078"/>
		
			<path style="fill:none;stroke:#302F71;stroke-width:1.3916;stroke-linecap:round;stroke-linejoin:round;stroke-miterlimit:10;" d="
			M779.137,135.644l-5.567,15.03c-4.821,2.935-7.338,0-7.338,0"/>
		
			<path style="fill:none;stroke:#302F71;stroke-width:1.3916;stroke-linecap:round;stroke-linejoin:round;stroke-miterlimit:10;" d="
			M773.569,150.675c0,0,4.402,11.111,4.402,21.383c0,10.272,3.321,75.507,3.321,75.507"/>
		
			<path style="fill:none;stroke:#302F71;stroke-width:1.3916;stroke-linecap:round;stroke-linejoin:round;stroke-miterlimit:10;" d="
			M831.639,171.638c0,0,12.075-3.014,21.924-10.203"/>
		
			<path style="fill:none;stroke:#302F71;stroke-width:1.3916;stroke-linecap:round;stroke-linejoin:round;stroke-miterlimit:10;" d="
			M851.909,124.214c-5.784,3.214-14.215,10.041-21.108,24.26c-11.74,24.213-13.627,22.326-13.627,22.326"/>
		
			<path style="fill:none;stroke:#302F71;stroke-width:1.3916;stroke-linecap:round;stroke-linejoin:round;stroke-miterlimit:10;" d="
			M851.709,148.637c-8.355,7.394-24.812,21.042-36.156,24.58"/>
		
			<line style="fill:none;stroke:#302F71;stroke-width:1.3916;stroke-linecap:round;stroke-linejoin:round;stroke-miterlimit:10;" x1="807.122" y1="102.445" x2="846.052" y2="128.228"/>
		
			<path style="fill:none;stroke:#302F71;stroke-width:1.3148;stroke-linecap:round;stroke-linejoin:round;stroke-miterlimit:10;" d="
			M701.233,103.122c0,0,2.633,5.616,2.633,12.825c0,5.134,2.576,27.232,5.214,41.79"/>
		
			<path style="fill:none;stroke:#302F71;stroke-width:1.3916;stroke-linecap:round;stroke-linejoin:round;stroke-miterlimit:10;" d="
			M809.72,225.935c0,0,9.131-3.983,18.565,0c9.433,3.983,15.723,12.997,15.723,12.997"/>
		
			<path style="fill:none;stroke:#302F71;stroke-width:1.3916;stroke-linecap:round;stroke-linejoin:round;stroke-miterlimit:10;" d="
			M815.553,210.631c0,0,9.168,8.386,15.248,11.321c4.868,2.351,13.653,7.677,14.906,15.082"/>
		
			<path style="fill:none;stroke:#302F71;stroke-width:1.3916;stroke-linecap:round;stroke-linejoin:round;stroke-miterlimit:10;" d="
			M798.935,57.281c1.868-1.172,3.395-3.061,4.09-5.163c1.23-3.724-0.964-7.103-3.041-10.037"/>
		
			<path style="fill:none;stroke:#302F71;stroke-width:1.3916;stroke-linecap:round;stroke-linejoin:round;stroke-miterlimit:10;" d="
			M798.308,48.371c0.99,4.616-2.534,8.415-5.241,11.635"/>
		
			<path style="fill:none;stroke:#302F71;stroke-width:1.3916;stroke-linecap:round;stroke-linejoin:round;stroke-miterlimit:10;" d="
			M814.658,49.314c-0.998,4.535-4.676,8.111-9.538,7.652"/>
		
			<path style="fill:none;stroke:#302F71;stroke-width:1.3916;stroke-linecap:round;stroke-linejoin:round;stroke-miterlimit:10;" d="
			M759.839,46.484c2.68,2.002,4.235,5.277,3.914,8.589c-0.323,3.312-2.183,5.364-4.858,7.134"/>
		
			<path style="fill:none;stroke:#302F71;stroke-width:1.3916;stroke-linecap:round;stroke-linejoin:round;stroke-miterlimit:10;" d="
			M788.873,77.616c-2.699,3.932-4.727,8.4-1.991,12.789"/>
		
			<path style="fill:none;stroke:#302F71;stroke-width:2.8347;stroke-linecap:round;stroke-linejoin:round;stroke-miterlimit:10;" d="
			M145.489,350.108c0,0,23.292-92.105,84.793-102.863c0,0,27.999-1.883,46.666,7.591c37.118,18.839,94.018,50.295,104.208,60.465"/>
		
			<path style="fill:none;stroke:#302F71;stroke-width:2.8347;stroke-linecap:round;stroke-linejoin:round;stroke-miterlimit:10;" d="
			M282.076,243.187c0.097-0.883,0.526-6.052-1.984-10.896c-2.757-5.316-18.316-36.677-4.839-64.497
			c18.986-39.191,58.65-26.703,72.078-21.743c15.458,5.71,24.462,12.569,27.23,28.788c0.995,5.837-0.649,12.068-6.852,18.27
			c-5.486,5.486-10.04,13.782-10.04,24.021c0,0-0.076,5.267-3.249,5.267c0,0-3.259-9.598-11.725-5.66
			c-8.466,3.938-8.654,13.782-15.939,21.067c-6.936,6.936-12.93,14.586-19.434,13.948"/>
		
			<path style="fill:none;stroke:#302F71;stroke-width:2.8347;stroke-linecap:round;stroke-linejoin:round;stroke-miterlimit:10;" d="
			M115.294,115.159c14.624-3.573,28.009-2.132,35.357,9.12c7.548,11.558,17.16,33.443,27.035,56.265"/>
		
			<path style="fill:none;stroke:#302F71;stroke-width:1.4173;stroke-linecap:round;stroke-linejoin:round;stroke-miterlimit:10;" d="
			M105.828,334.103c-15.604-40.9-47.676-124.967-47.676-124.967s-19.659-41.438,0-61.097c11.68-11.679,35.738-27.65,57.142-32.88"/>
		
			<path style="fill:none;stroke:#302F71;stroke-width:1.4173;stroke-linecap:round;stroke-linejoin:round;stroke-miterlimit:10;" d="
			M100.849,331.571c-15.971-41.863-46.533-121.972-46.533-121.972s-19.659-41.438,0-61.097c11.68-11.679,35.738-27.65,57.142-32.88"
			/>
		
			<path style="fill:none;stroke:#302F71;stroke-width:2.8347;stroke-linecap:round;stroke-linejoin:round;stroke-miterlimit:10;" d="
			M113.301,115.677c0,0-54.015,13.41-90.503,49.898c0,0-12.361,7.938-6.384,35.075c3.642,16.531,23.77,71.006,44.738,115.648"/>
		
			<path style="fill:none;stroke:#302F71;stroke-width:2.8347;stroke-linecap:round;stroke-linejoin:round;stroke-miterlimit:10;" d="
			M625.336,471.225c12.692-5.642,23.067-11.723,23.067-11.723"/>
		
			<path style="fill:none;stroke:#302F71;stroke-width:2.8347;stroke-linecap:round;stroke-linejoin:round;stroke-miterlimit:10;" d="
			M659.657,298.233c0,0-34.827-1.23-45.852,21.77c-11.024,23-19.237,72-26.881,87c-7.644,15-18.144,62.69-2.644,71.845
			c0.45,0.266,0.929,0.5,1.433,0.704"/>
		
			<path style="fill:none;stroke:#302F71;stroke-width:2.8347;stroke-linecap:round;stroke-linejoin:round;stroke-miterlimit:10;" d="
			M624.281,449.826c0,0-4.5-6.824,2.5-18.824c8.042-13.787,9.169-13.634,25.393-56.345"/>
		
			<path style="fill:none;stroke:#302F71;stroke-width:2.8347;stroke-linecap:round;stroke-linejoin:round;stroke-miterlimit:10;" d="
			M641.762,401.338c0,0-8.111,41.121,2.433,51.665c10.544,10.543,12.087,11.5,12.087,23.5s0,40.868,0,40.868"/>
		
			<path style="fill:none;stroke:#302F71;stroke-width:2.8347;stroke-linecap:round;stroke-linejoin:round;stroke-miterlimit:10;" d="
			M643.988,200.641c0,0-2.789,11.713-2.789,17.287c0,5.574,3.04,13.791,1.394,19.599s-2.644,15.918,2.189,27.196
			c4.833,11.278,4.166,22.945,12.166,22.945s5.97,0,5.97,0"/>
		
			<path style="fill:none;stroke:#302F71;stroke-width:2.8347;stroke-linecap:round;stroke-linejoin:round;stroke-miterlimit:10;" d="
			M777.459,289.794c0,0,34.406-1.292,38.364,45.208"/>
		
			<path style="fill:none;stroke:#302F71;stroke-width:1.3916;stroke-linecap:round;stroke-linejoin:round;stroke-miterlimit:10;" d="
			M617.974,313.564c0,0,44.093,10.247,34.2,61.093"/>
		
			<path style="fill:none;stroke:#302F71;stroke-width:2.8347;stroke-linecap:round;stroke-linejoin:round;stroke-miterlimit:10;" d="
			M682.281,161.949c0,0,27.798-15.388,50.667,7.481c22.869,22.869,18.533,96.028,45.911,123.406c0,0-5.999,5.333-14.455,2.667
			c0,0-13.72,30.665-45.031,34c-34.425,3.667-60.759-8-68.092-21c0,0,12.34-7.173,12.34-29.647
			c0-27.455-17.203-36.185-19.427-69.484C643.26,195.379,643.91,161.949,682.281,161.949z"/>
		
			<path style="fill:none;stroke:#302F71;stroke-width:2.8347;stroke-linecap:round;stroke-linejoin:round;stroke-miterlimit:10;" d="
			M606.159,497.445l-9.759,29.413c0,0-2.873,13.406,0,19.152c2.717,5.433,40.361,68.13,44.453,74.94
			c0.235,0.392,0.359,0.599,0.359,0.599"/>
		
			<path style="fill:none;stroke:#302F71;stroke-width:2.8347;stroke-linecap:round;stroke-linejoin:round;stroke-miterlimit:10;" d="
			M851.279,145.651c0,0,2.076,5.46,0.865,7.321c0,0-2.375,3.166,0.981,4.631c0,0-1.249,2.356,0.81,3.833c0,0,1.89,0.411,1.575,2.95
			c-0.399,3.226,0.788,8.091,5.729,9.881c4.94,1.79,32.307-3.357,41.76-24.694"/>
		
			<path style="fill:none;stroke:#302F71;stroke-width:1.4826;stroke-linecap:round;stroke-linejoin:round;stroke-miterlimit:10;" d="
			M853.126,157.603c0,0,1.403-0.622,4.203-0.065c2.8,0.555,5.356-0.373,5.736-0.856"/>
		
			<path style="fill:none;stroke:#302F71;stroke-width:1.3916;stroke-linecap:round;stroke-linejoin:round;stroke-miterlimit:10;" d="
			M854.487,161.432c0,0,3.258,0.097,6.648-3.722"/>
		
			<path style="fill:#FFFFFF;stroke:#302F71;stroke-width:2.8347;stroke-linecap:round;stroke-linejoin:round;stroke-miterlimit:10;" d="
			M857.063,124.864c0,0,7.218,1.117,10.644,4.435"/>
		
			<path style="fill:none;stroke:#302F71;stroke-width:1.3916;stroke-linecap:round;stroke-linejoin:round;stroke-miterlimit:10;" d="
			M859.357,126.437c0,0-0.68,2.399,0.502,3.58c0,0,3.21-0.716,6.581-1.79"/>
		<g>
			<path style="fill:#302F71;" d="M856.558,120.148c1.261-0.677,2.76-0.863,4.127-0.743c1.382,0.132,2.69,0.522,3.898,1.067
				c2.427,1.072,4.529,2.627,6.4,4.373c0.063,0.06,0.067,0.16,0.008,0.224c-0.052,0.055-0.135,0.065-0.197,0.028
				c-2.195-1.276-4.43-2.457-6.75-3.204c-1.163-0.348-2.335-0.614-3.487-0.664c-1.156-0.058-2.259,0.069-3.306,0.473
				c-0.439,0.169-0.932-0.05-1.102-0.489c-0.156-0.405,0.018-0.856,0.392-1.056L856.558,120.148z"/>
		</g>
		
			<path style="fill:none;stroke:#302F71;stroke-width:2.8347;stroke-linecap:round;stroke-linejoin:round;stroke-miterlimit:10;" d="
			M855.44,104.427c0,0-3.817-20.593,6.397-23.886c10.214-3.294,11.933-3.867,19.809-7.161c7.877-3.293,44.68-9.594,59.572,13.032
			c14.895,22.626,20.049,54.762,25.205,66.905c5.154,12.144,4.439,29.471-3.151,37.061"/>
		
			<path style="fill:none;stroke:#302F71;stroke-width:2.8347;stroke-linecap:round;stroke-linejoin:round;stroke-miterlimit:10;" d="
			M900.693,120.292c0.744,0.746,8.352,15.763,0,36.194c-8.354,20.431-6.825,28.641-5.871,33.892
			c0.955,5.251,1.145,16.135-5.537,27.209c0,0-12.223,14.893-21.96,14.893c0,0,5.361,4.096,14.708-0.927"/>
		
			<path style="fill:none;stroke:#302F71;stroke-width:3.0256;stroke-linecap:round;stroke-linejoin:round;stroke-miterlimit:10;" d="
			M875.653,172.395c0,0,4.81-2.195,7.852,4.77c3.042,6.964,10.95,21.506,10.95,21.506"/>
		
			<path style="fill:none;stroke:#302F71;stroke-width:2.8347;stroke-linecap:round;stroke-linejoin:round;stroke-miterlimit:10;" d="
			M884.06,179.054c0,0-12.149,15.237-14.346,19.82c-2.196,4.583-5.348,7.733-5.348,7.733s9.453,6.111,7.258,16.517"/>
		
			<path style="fill:none;stroke:#302F71;stroke-width:2.8347;stroke-linecap:round;stroke-linejoin:round;stroke-miterlimit:10;" d="
			M871.624,223.124c-0.312,1.973-2.363,3.615-4.299,5.14c-11.139,8.77-25.472,29.555-19.972,64.25"/>
		
			<path style="fill:none;stroke:#302F71;stroke-width:1.3916;stroke-linecap:round;stroke-linejoin:round;stroke-miterlimit:10;" d="
			M890.412,191.438c-1.833,3.385-3.499,6.779-4.99,10.338c-1.693,4.04-6.307,12.891-13.043,21.506"/>
		
			<path style="fill:none;stroke:#302F71;stroke-width:2.8347;stroke-linecap:round;stroke-linejoin:round;stroke-miterlimit:10;" d="
			M871.683,173.704c0,0-3.114,16.578-9.845,24.98c-6.73,8.401-13.413,25.013-13.413,34.751"/>
		
			<path style="fill:none;stroke:#302F71;stroke-width:2.8498;stroke-linecap:round;stroke-linejoin:round;stroke-miterlimit:10;" d="
			M867.325,209.195c0,0-17.946,21.235-24.247,34.551c-6.301,13.316-10.595,29.224-6.204,40.997"/>
		<path style="fill:none;stroke:#302F71;stroke-width:2.9525;stroke-miterlimit:10;" d="M813.578,270.992
			c23.49,12.667,41.011,26.305,53.938,41.796"/>
		
			<path style="fill:none;stroke:#302F71;stroke-width:1.3916;stroke-linecap:round;stroke-linejoin:round;stroke-miterlimit:10;" d="
			M913.863,216.018c12.079-16.218,27.145-52.266,19.338-82.064"/>
		
			<path style="fill:none;stroke:#302F71;stroke-width:2.8347;stroke-linecap:round;stroke-linejoin:round;stroke-miterlimit:10;" d="
			M961.98,188.841c0.255,0.317,0.503,0.673,0.744,1.094c1.126,1.963,2.175,3.971,3.175,6.001c1.835,3.721,3.487,7.528,5.106,11.346
			c16.842,39.707,5.511,111.112,7.427,139.474"/>
		
			<path style="fill:none;stroke:#302F71;stroke-width:2.8347;stroke-linecap:round;stroke-linejoin:round;stroke-miterlimit:10;" d="
			M913.521,244.413c0,0,20.251-42.293,47.557-23.963c27.305,18.33,0.572,60.91-3.438,66.638c-2.666,3.808-13.18,17.49-23.575,29.04"
			/>
		
			<path style="fill:#FFFFFF;stroke:#302F71;stroke-width:2.8347;stroke-linecap:round;stroke-linejoin:round;stroke-miterlimit:10;" d="
			M914.036,243.86c-1.562,1.616-2.828,3.359-3.678,5.231c-3.979,8.777-7.835,17.768-13.021,25.923
			c-3.501,5.506-9.199,8.966-13.431,13.821c-4.059,4.656-8.469,9.906-10.481,15.811c-0.782,2.294-1.155,4.846-2.187,7.071"/>
		
			<path style="fill:none;stroke:#302F71;stroke-width:1.3916;stroke-linecap:round;stroke-linejoin:round;stroke-miterlimit:10;" d="
			M950.193,227.516c0,0-23.655,4.778-35.043,15.259"/>
		
			<path style="fill:none;stroke:#302F71;stroke-width:1.3916;stroke-linecap:round;stroke-linejoin:round;stroke-miterlimit:10;" d="
			M947.854,247.564c-2.935,2.935-19.428,9.738-28.782,9.738c-9.355,0-15.173,5.684-15.173,5.684"/>
		
			<path style="fill:none;stroke:#302F71;stroke-width:1.3916;stroke-linecap:round;stroke-linejoin:round;stroke-miterlimit:10;" d="
			M925.372,244.413c0,0-7.923,2.482-10.501,6.11c-2.578,3.628-7.609,5.359-7.609,5.359"/>
		
			<path style="fill:none;stroke:#302F71;stroke-width:2.8347;stroke-linecap:round;stroke-linejoin:round;stroke-miterlimit:10;" d="
			M961.372,187.658c-1.516,5.114-4.779,9.73-11.179,11.885c-14.317,4.822-26.007,9.264-33.129,14.38"/>
		
			<path style="fill:none;stroke:#302F71;stroke-width:1.3916;stroke-linecap:round;stroke-linejoin:round;stroke-miterlimit:10;" d="
			M959.682,167.417c0.348,0.348,3.56,11.557,0.745,21.052"/>
		
			<path style="fill:none;stroke:#302F71;stroke-width:2.8347;stroke-linecap:round;stroke-linejoin:round;stroke-miterlimit:10;" d="
			M852.863,146.557c-1.791-1.79-4.44-0.573-6.588-2.72c-2.148-2.148,4.439-11.027,6.444-15.61c2.004-4.582-0.717-8.449-0.717-8.449
			c-1.861-1.862,2.292-11.313,4.011-17.185c1.718-5.872,8.162-9.022,8.162-9.022l3.149-1.168"/>
		
			<path style="fill:none;stroke:#302F71;stroke-width:1.3916;stroke-linecap:round;stroke-linejoin:round;stroke-miterlimit:10;" d="
			M858.16,141.116c2.578,4.582-3.508,7.232-5.297,5.441"/>
		
			<path style="fill:none;stroke:#302F71;stroke-width:1.3916;stroke-linecap:round;stroke-linejoin:round;stroke-miterlimit:10;" d="
			M867.04,93.252c1.278-4.222,4.153-6.84,4.153-6.84s23.028-19.807,42.531-15.148"/>
		
			<path style="fill:none;stroke:#302F71;stroke-width:2.8347;stroke-linecap:round;stroke-linejoin:round;stroke-miterlimit:10;" d="
			M903.7,130.661c0,0-6.588,4.01-9.308-1.432c-2.722-5.441-11.313-1.432-17.758-6.301c-6.445-4.869-3.866-9.452-8.665-19.333
			c-1.925-3.965-1.786-7.515-0.93-10.344"/>
		
			<path style="fill:none;stroke:#302F71;stroke-width:2.8347;stroke-linecap:round;stroke-linejoin:round;stroke-miterlimit:10;" d="
			M673.328,542.115c0,0,36.644-145.299,40.091-155.258c3.447-9.959,12.641-28.728,29.11-35.24
			c16.471-6.512,106.869-19.535,134.064-26.43c27.195-6.895,65.883-14.172,81.588-3.448c15.703,10.726,15.032,17.273,15.032,17.273
			s11.78,9.54,7.566,35.969c-4.214,26.43-23.365,108.017-33.708,136.362c-10.342,28.345-20.301,36.005-20.301,56.307
			c0,20.301-3.063,50.944-20.684,55.924s-240.166,55.54-247.061,37.538"/>
		
			<path style="fill:none;stroke:#302F71;stroke-width:1.3916;stroke-linecap:round;stroke-linejoin:round;stroke-miterlimit:10;" d="
			M681.06,595.439c0,0,26.231-47.322,37.722-99.033c11.491-51.71,22.599-114.528,42.518-120.274
			c19.917-5.746,89.247-11.875,123.721-19.535c34.474-7.661,84.012-23.934,89.248-15.704"/>
		
			<path style="fill:none;stroke:#302F71;stroke-width:1.3916;stroke-linecap:round;stroke-linejoin:round;stroke-miterlimit:10;" d="
			M674.4,615.543c0,0,37.023-56.497,48.422-114.945c10.14-51.992,22.599-114.528,42.518-120.274
			c19.917-5.746,89.247-11.875,123.721-19.535c34.474-7.661,84.012-23.934,89.248-15.704"/>
		
			<path style="fill:none;stroke:#302F71;stroke-width:2.8347;stroke-linecap:round;stroke-linejoin:round;stroke-miterlimit:10;" d="
			M669.498,630.597c0,0,6.72-21.016,9.356-27.962c4.348-11.455,6.986-31.409,0.986-45.581c-6-14.172-51.838-81.332-51.838-81.332
			s-4.214-8.619-10.151-8.619s-22.599,0-22.599,0s-6.894,0.383-8.81,12.832c-1.915,12.449-11.3,42.326-11.3,42.326
			s-5.554,14.747,1.916,32.367c7.469,17.619,51.264,97.483,51.264,97.483s2.619,7.566,12.449,10.247l13.277-0.014
			c0,0,8.235,0.875,10.726-11.382C667.263,638.705,669.498,630.597,669.498,630.597z"/>
		
			<path style="fill:none;stroke:#302F71;stroke-width:1.3916;stroke-linecap:round;stroke-linejoin:round;stroke-miterlimit:10;" d="
			M588.471,473.001c0,0,5.44-5.451,9.653,1.7c4.214,7.15,54.521,87.589,54.521,87.589s7.209,9.224,1.79,31.154
			c-4.963,20.086-15.321,55.668-15.321,55.668s-3.831,11.498-8.438,6.892"/>
		
			<path style="fill:none;stroke:#302F71;stroke-width:1.3916;stroke-linecap:round;stroke-linejoin:round;stroke-miterlimit:10;" d="
			M641.129,621.875c-2.31,8.797-4.127,15.49-4.127,15.49s-3.063,12.832-9.959,0.957c-6.895-11.873-42.899-81.204-42.899-81.204
			s-8.235-16.279-3.639-32.941c4.596-16.662,11.107-37.921,11.107-37.921s2.107-8.044,6.894-1.149
			c1.057,1.521,3.886,6.112,7.653,12.343"/>
		
			<path style="fill:none;stroke:#302F71;stroke-width:2.8347;stroke-linecap:round;stroke-linejoin:round;stroke-miterlimit:10;" d="
			M606.16,497.45c13.305,22.003,38.312,64.456,38.312,64.456s7.853,9.768,5.938,21.45c-1.153,7.037-5.459,23.96-8.957,37.286"/>
		<path style="fill:#302F71;" d="M862.146,126.365c-1.035-0.155-2.053-0.406-3.086-0.553c0.113,1.038,0.187,2.1,0.064,3.111
			c-0.022,0.173-0.065,0.338-0.102,0.506c0.335,0.364,0.746,0.588,1.197,0.588c1.105,0,2.003-1.299,2.003-2.902
			C862.223,126.854,862.191,126.605,862.146,126.365z"/>
		<path style="fill:#302F71;" d="M592.201,50.939c1.346,0.371-0.577-0.074-0.896-0.098c-0.49-0.037-0.979-0.066-1.471-0.092
			c-0.383-0.02-0.763-0.046-1.144-0.076c-0.261,0.445-0.421,0.959-0.421,1.515c0,1.646,1.315,2.979,2.938,2.979
			c1.622,0,2.938-1.333,2.938-2.979c0-0.358-0.072-0.696-0.187-1.014C593.376,51.164,592.786,51.1,592.201,50.939z"/>
		<path style="fill:#302F71;" d="M616.242,53.431c1.346,0.371-0.577-0.074-0.896-0.098c-0.49-0.037-0.979-0.066-1.471-0.092
			c-0.383-0.02-0.763-0.046-1.144-0.076c-0.261,0.445-0.421,0.959-0.421,1.515c0,1.646,1.315,2.979,2.938,2.979
			c1.622,0,2.938-1.333,2.938-2.979c0-0.358-0.072-0.696-0.186-1.014C617.417,53.656,616.827,53.592,616.242,53.431z"/>
		<path style="fill:none;stroke:#302F71;stroke-width:2.8347;stroke-miterlimit:10;" d="M424.472,756.275
			c0.127-4.608-4.872-8.025-4.872-8.025l-80.968-53.768"/>
		<path style="fill:none;stroke:#302F71;stroke-width:1.4173;stroke-miterlimit:10;" d="M313.021,720.659l-0.691-15.601l82.6,53.735
			c0,0,16.156,11.297,25.342,4.217c2.365-1.823,3.554-3.623,3.995-5.306"/>
		
			<line style="fill:none;stroke:#302F71;stroke-width:1.4173;stroke-miterlimit:10;" x1="303.936" y1="722.166" x2="303.311" y2="706.513"/>
		<path style="fill:none;stroke:#302F71;stroke-width:1.317;stroke-miterlimit:10;" d="M217.577,838.912
			c-5.136-1.408-7.606-8.718-5.521-16.328c0.383-1.396,0.893-2.705,1.501-3.904"/>
		<path style="fill:none;stroke:#302F71;stroke-width:2.6245;stroke-miterlimit:10;" d="M224.578,811.228
			c0.185,0.034,0.37,0.076,0.552,0.126c5.136,1.408,7.607,8.717,5.521,16.328c-1.933,7.049-7.099,11.883-11.932,11.438"/>
		<path style="fill:none;stroke:#302F71;stroke-width:2.634;stroke-miterlimit:10;" d="M865.258,792.091c0,0,5.34,3.911,5.34,12.01
			c0,8.099-5.222,13.323-7.445,13.323h-20.525"/>
		<path style="fill:none;stroke:#302F71;stroke-width:1.317;stroke-miterlimit:10;" d="M845.008,817.218
			c5.136-1.408,7.606-8.718,5.521-16.328c-0.383-1.396-0.893-2.705-1.501-3.904"/>
		<path style="fill:none;stroke:#302F71;stroke-width:2.6245;stroke-miterlimit:10;" d="M838.007,789.534
			c-0.185,0.034-0.37,0.076-0.552,0.126c-5.136,1.408-7.607,8.717-5.521,16.328c1.933,7.049,7.099,11.883,11.932,11.438"/>
		<path style="fill:none;stroke:#302F71;stroke-width:1.3528;stroke-miterlimit:10;" d="M418.06,800.567
			c-4.318-0.833-7.662-6.599-7.662-13.588c0-2.978,0.608-5.735,1.639-7.982"/>
		<path style="fill:none;stroke:#302F71;stroke-width:2.8347;stroke-miterlimit:10;" d="M659.383,793.992
			c1.75,1.378,5.356,5.29,5.356,14.128c0,10.511-8.75,13.916-8.75,13.916H642.47c0,0-11.244-0.186-11.244-14.333
			c0-9.146,4.34-10.803,4.34-10.803"/>
		<path style="fill:none;stroke:#302F71;stroke-width:1.3528;stroke-miterlimit:10;" d="M638.949,821.849
			c4.318-0.833,7.662-6.599,7.662-13.588c0-2.979-0.607-5.735-1.639-7.982"/>
		
			<path style="fill:none;stroke:#302F71;stroke-width:1.3916;stroke-linecap:round;stroke-linejoin:round;stroke-miterlimit:10;" d="
			M263.186,140.013c1.193,0.052,2.148,0.008,2.998-0.96c0.307-0.349,0.549-0.763,0.857-1.116c0.687-0.785,1.493-0.91,2.52-1.049"/>
		
			<path style="fill:none;stroke:#302F71;stroke-width:1.0284;stroke-linecap:round;stroke-linejoin:round;stroke-miterlimit:10;" d="
			M266.665,119.294c1.099,0.657,3.389,0.899,3.418-1.016"/>
		
			<path style="fill:none;stroke:#302F71;stroke-width:1.3916;stroke-linecap:round;stroke-linejoin:round;stroke-miterlimit:10;" d="
			M191.191,142.879c-0.062,2.72-0.185,5.447-0.351,8.192c-0.438,7.209-1.599,14.762,1.049,21.692
			c3.493,9.145,13.199,15.745,12.797,26.417"/>
		
			<path style="fill:none;stroke:#302F71;stroke-width:1.3916;stroke-linecap:round;stroke-linejoin:round;stroke-miterlimit:10;" d="
			M218.536,181.658c-1.117,6.249-0.254,13.106,2.339,18.814c2.894,6.371,8.091,11.402,10.646,17.991
			c2.248,5.798,4.184,12.885,3.89,19.168c-0.161,3.441-0.427,7.007-0.365,10.542"/>
		
			<path style="fill:none;stroke:#302F71;stroke-width:1.3916;stroke-linecap:round;stroke-linejoin:round;stroke-miterlimit:10;" d="
			M264.186,90.013c3.552-0.944,6.354-0.286,8.5,2.834"/>
		<path style="fill:#302F71;" d="M246.556,125.851c0.514,0.923,1.411,1.621,2.532,1.812c1.963,0.334,3.824-0.985,4.159-2.948
			c0.08-0.474,0.061-0.94-0.037-1.381C251.166,124.4,248.868,125.363,246.556,125.851z"/>
		
			<path style="fill:none;stroke:#302F71;stroke-width:1.3916;stroke-linecap:round;stroke-linejoin:round;stroke-miterlimit:10;" d="
			M253.364,125.93c-0.819,0.895-1.786,1.678-2.989,1.966c-1.41,0.337-2.538-0.118-3.886-0.341"/>
		
			<path style="fill:none;stroke:#302F71;stroke-width:1.3916;stroke-linecap:round;stroke-linejoin:round;stroke-miterlimit:10;" d="
			M271.478,118.075c-0.819,0.895-1.786,1.678-2.989,1.966c-1.41,0.337-2.538-0.118-3.886-0.341"/>
		
			<path style="fill:none;stroke:#302F71;stroke-width:1.3916;stroke-linecap:round;stroke-linejoin:round;stroke-miterlimit:10;" d="
			M386.919,61.675c1.672-1.15,3.216-1.713,5.228-1.844c1.581-0.103,3.92,0.548,5.272-0.323"/>
		
			<path style="fill:none;stroke:#302F71;stroke-width:1.3916;stroke-linecap:round;stroke-linejoin:round;stroke-miterlimit:10;" d="
			M415.52,22.513c-3.093-5.323-7.755-7.043-13.517-7.693c-5.55-0.627-11.113-4.031-16.816-2.64"/>
		
			<path style="fill:none;stroke:#302F71;stroke-width:1.3916;stroke-linecap:round;stroke-linejoin:round;stroke-miterlimit:10;" d="
			M412.061,66.138c-0.125,0.021-0.25,0.041-0.375,0.062"/>
		
			<path style="fill:none;stroke:#302F71;stroke-width:1.3916;stroke-linecap:round;stroke-linejoin:round;stroke-miterlimit:10;" d="
			M385.311,82.013c-0.863,2.033-2.102,3.864-3.875,5.25"/>
		
			<path style="fill:none;stroke:#302F71;stroke-width:1.3916;stroke-linecap:round;stroke-linejoin:round;stroke-miterlimit:10;" d="
			M493.02,108.18c4.107,10.029-1.702,19.685-1.667,29.667"/>
		
			<path style="fill:none;stroke:#302F71;stroke-width:1.3916;stroke-linecap:round;stroke-linejoin:round;stroke-miterlimit:10;" d="
			M514.352,142.18c2.791,6.097-1.975,13.405-4.414,18.766c-2.262,4.97-3.891,6.077-2.252,11.234"/>
		
			<path style="fill:none;stroke:#302F71;stroke-width:1.3916;stroke-linecap:round;stroke-linejoin:round;stroke-miterlimit:10;" d="
			M533.352,143.847c-0.044,8.252-3.213,13.844-9.421,19.537c-4.199,3.851-12.488,9.389-12.912,15.796"/>
		
			<path style="fill:none;stroke:#302F71;stroke-width:1.3916;stroke-linecap:round;stroke-linejoin:round;stroke-miterlimit:10;" d="
			M378.811,65.388c0.086,3.933,0.447,7.135,3.25,10.125"/>
		
			<path style="fill:none;stroke:#302F71;stroke-width:1.3916;stroke-linecap:round;stroke-linejoin:round;stroke-miterlimit:10;" d="
			M385.936,76.888c-1.181-0.74-1.746-3.152-0.472-4.044c0.535-0.374,1.353-0.125,1.856-0.61c0.803-0.773,0.492-3.093-0.385-3.721"/>
		
			<path style="fill:none;stroke:#302F71;stroke-width:1.2716;stroke-linecap:round;stroke-linejoin:round;stroke-miterlimit:10;" d="
			M596.744,67.493c-0.246,1.691,1.715,1.892,2.608,2.785c1.015,1.014,2.119,2.084,3.818,1.142c0.554-0.308,2.808-0.833,3.42-1.082
			c0.786-0.32,1.22-1.185,1.22-1.841"/>
		
			<path style="fill:none;stroke:#302F71;stroke-width:1.3916;stroke-linecap:round;stroke-linejoin:round;stroke-miterlimit:10;" d="
			M580.685,42.081c-6.862,20.409-7.213,42.963-5.41,64.688c2.333,28.108,9.714,49.049,10.946,81.936"/>
		
			<path style="fill:none;stroke:#302F71;stroke-width:1.3916;stroke-linecap:round;stroke-linejoin:round;stroke-miterlimit:10;" d="
			M626.688,52.513c0.958,15.881,1.135,31.12,0.67,46.996c-0.494,16.888-2.949,82.336-2.951,99.235"/>
		
			<path style="fill:none;stroke:#302F71;stroke-width:1.3916;stroke-linecap:round;stroke-linejoin:round;stroke-miterlimit:10;" d="
			M852.937,153.513c0.626,0,1.624,0.519,2.562,0.771c2.191,0.588,5.312,3.426,7.312,2.607"/>
		
			<path style="fill:none;stroke:#302F71;stroke-width:1.3916;stroke-linecap:round;stroke-linejoin:round;stroke-miterlimit:10;" d="
			M384.936,228.513c3.811-1.871,7.133-4.897,9.971-8.091c1.863-2.098,4.43-4.71,7.279-5.284"/>
		
			<path style="fill:none;stroke:#302F71;stroke-width:1.3916;stroke-linecap:round;stroke-linejoin:round;stroke-miterlimit:10;" d="
			M669.437,111.263c2.381,6.995,0.522,14.935-2.75,21.25"/>
		<path style="fill:none;stroke:#302F71;stroke-width:2.756;stroke-linecap:round;stroke-linejoin:round;stroke-miterlimit:10;" d="
			M979.286,420.021c1.107,19.663-0.852,36.98-18.809,46.235"/>
		
			<path style="fill:none;stroke:#302F71;stroke-width:1.3916;stroke-linecap:round;stroke-linejoin:round;stroke-miterlimit:10;" d="
			M681.354,162.513c3.084,0.106,6.143-0.218,9.223,0.068c10.375,0.965,16.924,6.292,24.444,13.265"/>
		
			<path style="fill:none;stroke:#302F71;stroke-width:1.3916;stroke-linecap:round;stroke-linejoin:round;stroke-miterlimit:10;" d="
			M750.021,266.513c2.818,8.988,5.606,28.946,18.333,29.667"/>
		
			<path style="fill:none;stroke:#302F71;stroke-width:1.3916;stroke-linecap:round;stroke-linejoin:round;stroke-miterlimit:10;" d="
			M667.473,227.758c1.487,4.556,2.904,9.134,4.3,13.64c7.292,23.541,4.85,55.885-20.085,68.116"/>
		
			<path style="fill:none;stroke:#302F71;stroke-width:2.8347;stroke-linecap:round;stroke-linejoin:round;stroke-miterlimit:10;" d="
			M596.4,526.858c0,0,20.528,51.299,47.807,78.578"/>
		
			<path style="fill:none;stroke:#302F71;stroke-width:2.8347;stroke-linecap:round;stroke-linejoin:round;stroke-miterlimit:10;" d="
			M624.006,437.896c2.429-1.28,8.313-4.256,13.797-6.049"/>
		
			<path style="fill:none;stroke:#302F71;stroke-width:2.8347;stroke-linecap:round;stroke-linejoin:round;stroke-miterlimit:10;" d="
			M381.156,315.301c4.977,3.162,10.989,10.803,10.989,29.268c0,31.5-2.5,67,1,79s4,26.5-3,43s-6,24-6,26.5"/>
		
			<path style="fill:none;stroke:#302F71;stroke-width:1.3916;stroke-linecap:round;stroke-linejoin:round;stroke-miterlimit:10;" d="
			M312.291,382.167c2.586-12.862,9.503-29.083,18.354-48.098c13.5-29,44-21,44-21s2.997,0,6.511,2.232"/>
		
			<path style="fill:none;stroke:#302F71;stroke-width:2.8347;stroke-linecap:round;stroke-linejoin:round;stroke-miterlimit:10;" d="
			M392.146,410.069l11.5-13.5c35.5,0,41.5,28,41.5,28s-5.011,17.228-41.5,66c-40.212,53.748-60.729,36.5-60.729,36.5
			c-16.728-8.5-18.771-51.5-18.771-62.5s-9-14.5-9-27s1-24-3-38c-1.377-4.82-1.213-10.648,0.146-17.402"/>
		
			<path style="fill:none;stroke:#302F71;stroke-width:2.8347;stroke-linecap:round;stroke-linejoin:round;stroke-miterlimit:10;" d="
			M448.275,539.228c9.891-4.07,18.547-5.201,23.381-0.532"/>
		
			<path style="fill:none;stroke:#302F71;stroke-width:2.8347;stroke-linecap:round;stroke-linejoin:round;stroke-miterlimit:10;" d="
			M305.7,641.605c22.128-3.458,40.584-18.01,56.846-32.683c11.097-10.012,20.705-20.71,30.716-31.315
			c4.634-4.909,17.178-15.653,31.126-25.038"/>
		
			<path style="fill:none;stroke:#302F71;stroke-width:2.8347;stroke-linecap:round;stroke-linejoin:round;stroke-miterlimit:10;" d="
			M458.686,508.013c12.97,5.015,15.185,20.495,15.792,32.483"/>
		
			<path style="fill:none;stroke:#302F71;stroke-width:1.3916;stroke-linecap:round;stroke-linejoin:round;stroke-miterlimit:10;" d="
			M323.732,471.199c1.725,25.128-21.272,38.5-19.499,64.497"/>
		
			<path style="fill:none;stroke:#302F71;stroke-width:1.6829;stroke-linecap:round;stroke-linejoin:round;stroke-miterlimit:10;" d="
			M328.192,507.798c-18.741,12.457-23.721,27.758-32.917,45.883"/>
		
			<path style="fill:none;stroke:#302F71;stroke-width:3.0743;stroke-linecap:round;stroke-linejoin:round;stroke-miterlimit:10;" d="
			M341.892,217.371c-6.098,3.96-1.889,11.526-0.476,16.883c0.464,1.761,0.893,4.521,2.27,5.917c1.751,1.773,4.29,0.65,6.338,0.034"
			/>
		
			<path style="fill:none;stroke:#302F71;stroke-width:2.8347;stroke-linecap:round;stroke-linejoin:round;stroke-miterlimit:10;" d="
			M884.937,309.763c-7.596-0.713-16.245,3.501-23.015,6.532c-7.548,3.379-15.933,3.128-24.04,2.851
			c-4.082-0.139-8.172-0.298-12.248,0.04c-2.864,0.237-8.557,0.333-10.947,2.078"/>
		
			<path style="fill:none;stroke:#302F71;stroke-width:2.8347;stroke-linecap:round;stroke-linejoin:round;stroke-miterlimit:10;" d="
			M882.033,231.553c-3.159,3.592-7.183,5.727-12.096,7.379c0,0,17.416,5.998,29.249-7.383c7.052-7.975,9.758-12.981,21.097-19.563"
			/>
		
			<path style="fill:none;stroke:#302F71;stroke-width:1.3916;stroke-linecap:round;stroke-linejoin:round;stroke-miterlimit:10;" d="
			M880.437,109.888c1.415,3.489,2.91,7.763,5.759,10.346c2.775,2.516,6.094,4.786,8.241,7.904"/>
		
			<path style="fill:none;stroke:#302F71;stroke-width:1.3916;stroke-linecap:round;stroke-linejoin:round;stroke-miterlimit:10;" d="
			M905.687,172.513c-2.888,6.496-5.613,12.726-7.504,19.627c-0.944,3.45-1.657,6.972-2.732,10.385
			c-0.761,2.414-2.093,4.73-2.514,7.238"/>
		
			<path style="fill:#FFFFFF;stroke:#302F71;stroke-width:2.8347;stroke-linecap:round;stroke-linejoin:round;stroke-miterlimit:10;" d="
			M883.823,240.943c-2.183,7.296-7.443,13.891-12.396,19.417c-3.879,4.328-8.054,7.879-11.727,12.45
			c-4.732,5.89-9.505,12.798-11.264,20.204"/>
		<path style="fill:none;stroke:#302F71;stroke-width:2.941;stroke-linecap:round;stroke-linejoin:round;stroke-miterlimit:10;" d="
			M751.42,671.656c8.969,3.987,14.774,10.349,14.774,17.518c0,12.074-16.47,21.862-36.787,21.862
			c-20.317,0-36.786-9.788-36.786-21.862c0-7.064,5.638-13.345,14.384-17.342"/>
		
			<path style="fill:none;stroke:#302F71;stroke-width:2.8347;stroke-linecap:round;stroke-linejoin:round;stroke-miterlimit:10;" d="
			M751.077,684.171c-0.137,6.836-9.786,12.353-21.67,12.353c-11.969,0-21.67-5.596-21.67-12.51"/>
		
			<line style="fill:none;stroke:#302F71;stroke-width:1.3916;stroke-linecap:round;stroke-linejoin:round;stroke-miterlimit:10;" x1="741.635" y1="709.796" x2="741.635" y2="725.615"/>
		<path style="fill:none;stroke:#302F71;stroke-width:2.941;stroke-linecap:round;stroke-linejoin:round;stroke-miterlimit:10;" d="
			M726.437,726.422c0,0,8.271,1.658,15.198,0"/>
		
			<line style="fill:none;stroke:#302F71;stroke-width:1.3916;stroke-linecap:round;stroke-linejoin:round;stroke-miterlimit:10;" x1="726.437" y1="711.035" x2="726.437" y2="726.422"/>
		
			<line style="fill:none;stroke:#302F71;stroke-width:1.3916;stroke-linecap:round;stroke-linejoin:round;stroke-miterlimit:10;" x1="691.77" y1="691.169" x2="691.77" y2="707.823"/>
		
			<line style="fill:none;stroke:#302F71;stroke-width:2.8347;stroke-miterlimit:10;" x1="766.194" y1="687.013" x2="767.582" y2="702.039"/>
		
			<path style="fill:none;stroke:#302F71;stroke-width:2.8347;stroke-linecap:round;stroke-linejoin:round;stroke-miterlimit:10;" d="
			M707.737,684.025c0,0,0-11.639,0-20.844"/>
		<path style="fill:none;stroke:#302F71;stroke-width:2.766;stroke-linecap:round;stroke-linejoin:round;stroke-miterlimit:10;" d="
			M751.078,656.946c0,7.775,0,27.147,0,27.147"/>
	</g>
</g>
</svg>
